G04 DipTrace 3.0.0.1*
G04 BottomMask.gbr*
%MOIN*%
G04 #@! TF.FileFunction,Soldermask,Bot*
G04 #@! TF.Part,Single*
%ADD17R,0.066929X0.066929*%
%ADD18C,0.066929*%
%ADD43C,0.15748*%
%ADD44C,0.19685*%
%ADD59C,0.066929*%
%ADD60R,0.057874X0.057874*%
%ADD62R,0.062992X0.074803*%
%ADD64C,0.057874*%
%ADD66C,0.057874*%
%ADD68O,0.047244X0.086614*%
%ADD70O,0.094488X0.149606*%
%ADD72C,0.076772*%
%ADD74R,0.076772X0.076772*%
%ADD76C,0.133858*%
%ADD78C,0.070866*%
%ADD80R,0.070866X0.070866*%
%ADD86O,0.066929X0.086614*%
%ADD90C,0.098425*%
%ADD92R,0.098425X0.098425*%
%ADD94C,0.102362*%
%ADD96R,0.102362X0.102362*%
%ADD98C,0.074803*%
%ADD99R,0.074803X0.074803*%
%FSLAX26Y26*%
G04*
G70*
G90*
G75*
G01*
G04 BotMask*
%LPD*%
D99*
X5936850Y4620312D3*
D98*
Y4720312D3*
Y4820312D3*
D96*
X5013911Y7160239D3*
D94*
Y6963388D3*
D96*
X5861843Y3626458D3*
D94*
Y3429608D3*
D92*
X4436295Y7335257D3*
D90*
X4286295D3*
X4136295D3*
D99*
X9833778Y6205719D3*
D98*
Y6305719D3*
Y6405719D3*
D17*
X7714552Y3055469D3*
D18*
X7814552D3*
X7914552D3*
X8014552D3*
X8114552D3*
X8214552D3*
X8314552D3*
X8414552D3*
Y3355469D3*
X8314552D3*
X8214552D3*
X8114552D3*
X8014552D3*
X7914552D3*
X7814552D3*
X7714552D3*
D99*
X5924349Y5189122D3*
D98*
Y5289122D3*
Y5389122D3*
D99*
X9187192Y3007643D3*
D98*
X9087192D3*
X8987192D3*
D99*
X9799756D3*
D98*
X9699756D3*
X9599756D3*
D99*
X5013911Y4953757D3*
D98*
Y5053757D3*
Y5153757D3*
Y5253757D3*
D99*
X5017606Y3691416D3*
D98*
Y3791416D3*
Y3891416D3*
D99*
X5897093Y2933072D3*
D98*
Y2833072D3*
Y2733072D3*
Y2633072D3*
D99*
X7261990Y2307570D3*
D86*
X7161990D3*
X7061990D3*
D99*
X5013911Y4259934D3*
D98*
Y4359934D3*
Y4459934D3*
Y4559934D3*
D99*
X5017606Y3078852D3*
D98*
Y3178852D3*
Y3278852D3*
D99*
X3829982Y1122105D3*
D98*
Y1222105D3*
X3929982Y1122105D3*
Y1222105D3*
X4029982Y1122105D3*
Y1222105D3*
X4129982Y1122105D3*
Y1222105D3*
X4229982Y1122105D3*
Y1222105D3*
D99*
X6061604Y6104719D3*
D98*
Y6004719D3*
Y5904719D3*
D99*
X1785978Y7335177D3*
D98*
X1885978D3*
X1985978D3*
X2085978D3*
X2185978D3*
X2285978D3*
X2385978D3*
X2485978D3*
D99*
X9562274Y4082285D3*
D98*
X9662274D3*
X9762274D3*
X9862274D3*
X9962274D3*
X10062274D3*
X10162274D3*
X10262274D3*
D99*
X2486091Y5728839D3*
D98*
X2386091D3*
X2286091D3*
X2186091D3*
X2086091D3*
X1986091D3*
X1886091D3*
X1786091D3*
D99*
X9562274Y5716143D3*
D98*
X9662274D3*
X9762274D3*
X9862274D3*
X9962274D3*
X10062274D3*
X10162274D3*
X10262274D3*
D99*
X2861026Y7331024D3*
D98*
X2961026D3*
X3061026D3*
X3161026D3*
X3261026D3*
X3361026D3*
X3461026D3*
X3561026D3*
D99*
X3561203Y5722588D3*
D98*
X3461203D3*
X3361203D3*
X3261203D3*
X3161203D3*
X3061203D3*
X2961203D3*
X2861203D3*
D17*
X4098760Y6585178D3*
D18*
X4496398D3*
D99*
X2304822Y1122105D3*
D98*
Y1222105D3*
X2404822Y1122105D3*
Y1222105D3*
X2504822Y1122105D3*
Y1222105D3*
X2604822Y1122105D3*
Y1222105D3*
X2704822Y1122105D3*
Y1222105D3*
D17*
X929573Y5987133D3*
D18*
X1079573D3*
D17*
X929573Y5687133D3*
D18*
X1079573D3*
D17*
X942075Y5343315D3*
D18*
X1092075D3*
D17*
X942075Y5043315D3*
D18*
X1092075D3*
D96*
X5013911Y6297648D3*
D94*
Y6494499D3*
D96*
Y5666332D3*
D94*
Y5863182D3*
D99*
X5017606Y2290978D3*
D98*
Y2390978D3*
Y2490978D3*
Y2590978D3*
D99*
Y1622157D3*
D98*
Y1722157D3*
Y1822157D3*
D43*
X10372231Y7190287D3*
X5802550Y7170367D3*
D44*
X623307Y7343525D3*
D43*
X10320244Y2083451D3*
X5771516Y2091008D3*
D44*
X5306717Y7344430D3*
X5412978Y606223D3*
X623291Y717829D3*
D99*
X1542138Y1155375D3*
D98*
X1642138D3*
X1742138D3*
X1842138D3*
X1942138D3*
X2042138D3*
D17*
X10107344Y5026711D3*
D18*
Y4629073D3*
D99*
X8826337Y2320976D3*
D86*
X8726337D3*
X8626337D3*
D99*
X9273357Y2617554D3*
D86*
X9173357D3*
X9073357D3*
D80*
X910822Y1936707D3*
D78*
Y2035133D3*
Y2113873D3*
Y2212298D3*
D76*
X1017121Y1815841D3*
Y2333164D3*
D74*
X2648545Y2302315D3*
D72*
X2748545D3*
X2848545D3*
X2948545D3*
X3048545D3*
X3148545D3*
X3248545D3*
X3348545D3*
X3448545D3*
X3548545D3*
Y2402315D3*
X3448545D3*
X3348545D3*
X3248545D3*
X3148545D3*
X3048545D3*
X2948545D3*
X2848545D3*
X2748545D3*
X2648545D3*
D74*
X2648596Y4028667D3*
D72*
X2748596D3*
X2848596D3*
X2948596D3*
X3048596D3*
X3148596D3*
X3248596D3*
X3348596D3*
X3448596D3*
X3548596D3*
Y4128667D3*
X3448596D3*
X3348596D3*
X3248596D3*
X3148596D3*
X3048596D3*
X2948596D3*
X2848596D3*
X2748596D3*
X2648596D3*
D70*
X2561098Y5366301D3*
X2326098Y5286301D3*
X2796098D3*
Y4806301D3*
X2326098D3*
X3461193Y5366387D3*
X3226193Y5286387D3*
X3696193D3*
Y4806387D3*
X3226193D3*
D99*
X6551445Y4753127D3*
D98*
Y4853127D3*
Y4953127D3*
Y5053127D3*
Y5153127D3*
Y5253127D3*
Y5353127D3*
Y5453127D3*
Y5553127D3*
Y5653127D3*
Y5753127D3*
Y5853127D3*
Y5953127D3*
Y6053127D3*
Y6153127D3*
Y6253127D3*
D99*
X8367301Y5774096D3*
D98*
Y5674096D3*
Y5574096D3*
Y5474096D3*
Y5374096D3*
Y5274096D3*
D99*
X7883836Y5774096D3*
D98*
Y5674096D3*
Y5574096D3*
Y5474096D3*
Y5374096D3*
Y5274096D3*
D99*
X9801264Y7012714D3*
D98*
X9901264D3*
X10001264D3*
X10101264D3*
D99*
X9602617Y7025845D3*
D98*
X9502617D3*
X9402617D3*
X9302617D3*
D99*
X4536312Y3197472D3*
D98*
Y3297472D3*
Y3397472D3*
Y3497472D3*
Y3597472D3*
Y3697472D3*
D99*
X3992454Y3697323D3*
D98*
Y3597323D3*
Y3497323D3*
Y3397323D3*
Y3297323D3*
Y3197323D3*
D99*
X4536312Y4703727D3*
D98*
Y4803727D3*
Y4903727D3*
Y5003727D3*
Y5103727D3*
Y5203727D3*
D99*
X3992454Y5203731D3*
D98*
Y5103731D3*
Y5003731D3*
Y4903731D3*
Y4803731D3*
Y4703731D3*
D99*
X2183360Y3647286D3*
D98*
Y3547286D3*
Y3447286D3*
Y3347286D3*
Y3247286D3*
Y3147286D3*
D99*
X1636115Y3147318D3*
D98*
Y3247318D3*
Y3347318D3*
Y3447318D3*
Y3547318D3*
Y3647318D3*
D99*
X2183360Y4503710D3*
D98*
Y4403710D3*
Y4303710D3*
Y4203710D3*
Y4103710D3*
Y4003710D3*
D99*
X1636115Y4003576D3*
D98*
Y4103576D3*
Y4203576D3*
Y4303576D3*
Y4403576D3*
Y4503576D3*
D99*
X4536312Y4459955D3*
D98*
Y4359955D3*
Y4259955D3*
Y4159955D3*
Y4059955D3*
Y3959955D3*
D99*
X3992454D3*
D98*
Y4059955D3*
Y4159955D3*
Y4259955D3*
Y4359955D3*
Y4459955D3*
D99*
X4536312Y5441361D3*
D98*
Y5541361D3*
Y5641361D3*
Y5741361D3*
Y5841361D3*
Y5941361D3*
D99*
X3992454Y5941486D3*
D98*
Y5841486D3*
Y5741486D3*
Y5641486D3*
Y5541486D3*
Y5441486D3*
D99*
X8065577Y2310631D3*
D98*
X7965577D3*
X7865577D3*
D99*
X8446075Y2648589D3*
D86*
X8346075D3*
X8246075D3*
D99*
X7786787Y6887836D3*
D98*
Y6787836D3*
Y6687836D3*
Y6587836D3*
Y6487836D3*
Y6387836D3*
D99*
X7303323Y6887846D3*
D98*
Y6787846D3*
Y6687846D3*
Y6587846D3*
Y6487846D3*
Y6387846D3*
D99*
X1373370Y6774715D3*
D98*
Y6874715D3*
Y6974715D3*
X1573370Y6774715D3*
Y6874715D3*
Y6974715D3*
D17*
X4511303Y2778529D3*
D18*
Y2678529D3*
Y2578529D3*
Y2478529D3*
Y2378529D3*
Y2278529D3*
Y2178529D3*
X4211303D3*
Y2278529D3*
Y2378529D3*
Y2478529D3*
Y2578529D3*
Y2678529D3*
Y2778529D3*
D17*
X2023542Y2703521D3*
D18*
Y2603521D3*
Y2503521D3*
Y2403521D3*
Y2303521D3*
Y2203521D3*
Y2103521D3*
X1723542D3*
Y2203521D3*
Y2303521D3*
Y2403521D3*
Y2503521D3*
Y2603521D3*
Y2703521D3*
D99*
X4555058Y1122105D3*
D98*
Y1222105D3*
X4655058Y1122105D3*
Y1222105D3*
X4755058Y1122105D3*
Y1222105D3*
X4855058Y1122105D3*
Y1222105D3*
X4955058Y1122105D3*
Y1222105D3*
D99*
X3061151Y1115854D3*
D98*
Y1215854D3*
X3161151Y1115854D3*
Y1215854D3*
X3261151Y1115854D3*
Y1215854D3*
X3361151Y1115854D3*
Y1215854D3*
X3461151Y1115854D3*
Y1215854D3*
D99*
X829563Y6787217D3*
D98*
Y6887217D3*
Y6987217D3*
X1029563Y6787217D3*
Y6887217D3*
Y6987217D3*
D99*
X6624423Y2301319D3*
D98*
X6724423D3*
D68*
X9699787Y3750724D3*
X9749787Y3800724D3*
X9799787Y3750724D3*
D66*
X9457073Y3763416D3*
D64*
X9157073D3*
D74*
X2179808Y1653411D3*
D72*
X2279808D3*
X2379808D3*
X2479808D3*
X2579808D3*
X2679808D3*
X2779808D3*
X2879808D3*
X2979808D3*
X3079808D3*
X3179808D3*
X3279808D3*
X3379808D3*
X3479808D3*
X3579808D3*
X3679808D3*
X3779808D3*
X3879808D3*
X3979808D3*
X4079808D3*
Y1753411D3*
X3979808D3*
X3879808D3*
X3779808D3*
X3679808D3*
X3579808D3*
X3479808D3*
X3379808D3*
X3279808D3*
X3179808D3*
X3079808D3*
X2979808D3*
X2879808D3*
X2779808D3*
X2679808D3*
X2579808D3*
X2479808D3*
X2379808D3*
X2279808D3*
X2179808D3*
D99*
X9701626Y2310631D3*
D86*
X9601626D3*
D98*
X9501626D3*
D99*
X10166287D3*
D86*
X10066287D3*
D98*
X9966287D3*
D99*
X7121038Y3680329D3*
D98*
Y3780329D3*
Y3880329D3*
Y3980329D3*
Y4080329D3*
Y4180329D3*
D99*
X7604501Y3680339D3*
D98*
Y3780339D3*
Y3880339D3*
Y3980339D3*
Y4080339D3*
Y4180339D3*
D99*
X6016824Y6828699D3*
D98*
Y6728699D3*
Y6628699D3*
X6216824Y6828699D3*
Y6728699D3*
Y6628699D3*
D74*
X7135749Y5991537D3*
D72*
Y5891537D3*
Y5791537D3*
Y5691537D3*
Y5591537D3*
Y5491537D3*
Y5391537D3*
Y5291537D3*
Y5191537D3*
Y5091537D3*
X7235749D3*
Y5191537D3*
Y5291537D3*
Y5391537D3*
Y5491537D3*
Y5591537D3*
Y5691537D3*
Y5791537D3*
Y5891537D3*
Y5991537D3*
D74*
X8835749Y5993316D3*
D72*
Y5893316D3*
Y5793316D3*
Y5693316D3*
Y5593316D3*
Y5493316D3*
Y5393316D3*
Y5293316D3*
Y5193316D3*
Y5093316D3*
X8935749D3*
Y5193316D3*
Y5293316D3*
Y5393316D3*
Y5493316D3*
Y5593316D3*
Y5693316D3*
Y5793316D3*
Y5893316D3*
Y5993316D3*
D99*
X8325783Y4175348D3*
D98*
Y4075348D3*
Y3975348D3*
Y3875348D3*
Y3775348D3*
Y3675348D3*
D99*
X8809249Y4175358D3*
D98*
Y4075358D3*
Y3975358D3*
Y3875358D3*
Y3775358D3*
Y3675358D3*
D99*
X6278004Y2310631D3*
D98*
X6178004D3*
X6078004D3*
X5978004D3*
D99*
X7625583Y2638243D3*
D86*
X7525583D3*
X7425583D3*
D17*
X2004790Y5510066D3*
D18*
Y5410066D3*
Y5310066D3*
Y5210066D3*
Y5110066D3*
Y5010066D3*
Y4910066D3*
Y4810066D3*
X1704790D3*
Y4910066D3*
Y5010066D3*
Y5110066D3*
Y5210066D3*
Y5310066D3*
Y5410066D3*
Y5510066D3*
D17*
X8205450Y6884390D3*
D18*
X8305450D3*
X8405450D3*
X8505450D3*
X8605450D3*
X8705450D3*
X8805450D3*
X8905450D3*
Y6584390D3*
X8805450D3*
X8705450D3*
X8605450D3*
X8505450D3*
X8405450D3*
X8305450D3*
X8205450D3*
D17*
X9754068Y4614971D3*
D18*
Y5012609D3*
D66*
X6861948Y1338718D3*
D62*
X6761948D3*
D66*
X6593169Y1044936D3*
D60*
X6493169D3*
D66*
X6580667Y1332466D3*
D60*
X6480667D3*
D66*
X6886950Y1032436D3*
D60*
X6786950D3*
D99*
X5970379Y1063688D3*
D98*
Y1163688D3*
Y1263688D3*
D59*
X6801717Y776157D3*
X6201717D3*
D66*
X8480867Y1332467D3*
D60*
X8380867D3*
D66*
X8212089Y1038685D3*
D60*
X8112089D3*
D66*
X8199587Y1326215D3*
D60*
X8099587D3*
D66*
X8505870Y1026185D3*
D60*
X8405870D3*
D99*
X7583049Y1057437D3*
D98*
Y1157437D3*
Y1257437D3*
D59*
X8420636Y769907D3*
X7820636D3*
D66*
X10087286Y1313715D3*
D60*
X9987286D3*
D66*
X9818508Y1019933D3*
D60*
X9718508D3*
D66*
X9806005Y1307463D3*
D60*
X9706005D3*
D66*
X10112289Y1007433D3*
D60*
X10012289D3*
D99*
X9189467Y1038685D3*
D98*
Y1138685D3*
Y1238685D3*
D59*
X10027055Y751155D3*
X9427055D3*
D96*
X942075Y4355711D3*
D94*
Y4552562D3*
M02*
