M48
INCH
T01C0.0191
T02C0.022
T03C0.028
T04C0.0315
T05C0.0354
T06C0.0394
T07C0.0433
T08C0.0449
T09C0.0512
T10C0.0571
T11C0.063
T12C0.0906
T13C0.1575
T14C0.1969
%
T01
X+013513Y+055908
X+013513Y+062877
X+011702Y+064967
X+017425Y+061906
X+022861Y+061906
X+025707Y+064945
X+026438Y+067607
X+027031Y+061989
X+027031Y+057130
X+027031Y+056415
X+029612Y+054994
X+025649Y+052048
X+024918Y+052048
X+022427Y+049760
X+020858Y+051103
X+018331Y+047071
X+020048Y+046359
X+021834Y+046359
X+023746Y+046359
X+024340Y+046953
X+024934Y+046359
X+025649Y+044974
X+025049Y+044381
X+026438Y+043787
X+029486Y+045765
X+030080Y+045051
X+031412Y+045051
X+034494Y+043193
X+036224Y+043344
X+037739Y+045051
X+040771Y+045200
X+042552Y+047887
X+043844Y+051325
X+043251Y+052766
X+045363Y+053481
X+044368Y+055820
X+044368Y+059260
X+049152Y+062976
X+049152Y+064945
X+052564Y+061989
X+052564Y+053860
X+050740Y+053266
X+048099Y+050631
X+047384Y+050037
X+050139Y+048346
X+050904Y+048467
X+053158Y+048467
X+053664Y+047752
X+054936Y+048796
X+049057Y+047037
X+048099Y+044905
X+049287Y+044599
X+049290Y+043599
X+046921Y+044193
X+043844Y+037580
X+037763Y+040600
X+037739Y+041314
X+035224Y+039374
X+034080Y+038781
X+033486Y+037580
X+034080Y+036954
X+032080Y+036357
X+030486Y+034697
X+028915Y+034473
X+027486Y+036954
X+028915Y+038387
X+028197Y+038981
X+025049Y+033473
X+024934Y+031958
X+026236Y+028202
X+027423Y+028202
X+027482Y+025447
X+028197Y+024883
X+025642Y+024735
X+022680Y+025447
X+021869Y+026070
X+021518Y+026785
X+024340Y+027972
X+020984Y+030822
X+017235Y+030822
X+015391Y+029039
X+014676Y+028912
X+015413Y+027603
X+018518Y+027972
X+018639Y+025035
X+019233Y+023441
X+018046Y+022740
X+017440Y+017747
X+016007Y+017032
X+015413Y+015844
X+016421Y+013348
X+018034Y+012876
X+019221Y+012876
X+018506Y+014063
X+018506Y+015844
X+019112Y+016438
X+020924Y+017747
X+023274Y+018394
X+022204Y+015251
X+022072Y+009500
X+021866Y+007565
X+021360Y+006971
X+017587Y+006141
X+016710Y+010704
X+013754Y+010704
X+013042Y+009500
X+011615Y+008273
X+012325Y+007565
X+008640Y+005196
X+007732Y+006141
X+007452Y+012246
X+008640Y+013942
X+009112Y+015251
X+009706Y+015844
X+010981Y+017032
X+010880Y+020012
X+007452Y+019367
X+012325Y+024035
X+012325Y+028197
X+009207Y+029632
X+011615Y+032473
X+012234Y+037202
X+011519Y+037681
X+011519Y+040182
X+009207Y+039023
X+007101Y+038430
X+006386Y+037681
X+007452Y+035067
X+011519Y+043711
X+017211Y+041036
X+017924Y+038308
X+020265Y+038902
X+031486Y+031958
X+032080Y+028796
X+032892Y+026070
X+034892Y+026070
X+037762Y+027257
X+039271Y+028796
X+039864Y+028202
X+041247Y+029068
X+041752Y+029983
X+043740Y+030577
X+044458Y+030255
X+044579Y+029540
X+043740Y+029268
X+046517Y+025973
X+045923Y+025379
X+046517Y+023785
X+045923Y+022785
X+046233Y+018400
X+044688Y+018400
X+044688Y+017214
X+044094Y+016027
X+044688Y+015082
X+044094Y+014016
X+041887Y+014488
X+037798Y+014488
X+035798Y+014488
X+036406Y+012766
X+036406Y+012051
X+038300Y+009824
X+040608Y+009369
X+045403Y+009585
X+049804Y+013543
X+051971Y+007683
X+063949Y+010887
X+064011Y+012229
X+067956Y+023742
X+064338Y+026737
X+059821Y+027331
X+066715Y+031742
X+068356Y+031148
X+068356Y+030143
X+068356Y+028924
X+071210Y+029549
X+071925Y+029518
X+071925Y+031148
X+071939Y+033555
X+074256Y+034837
X+073005Y+036025
X+069620Y+035431
X+069090Y+040803
X+069202Y+043125
X+071358Y+044493
X+072358Y+043899
X+073096Y+045208
X+074283Y+046395
X+076301Y+043719
X+077961Y+041803
X+078082Y+038347
X+080145Y+036803
X+080739Y+035431
X+081333Y+034837
X+082146Y+035431
X+081333Y+038347
X+081333Y+040753
X+084580Y+042532
X+087318Y+044493
X+088227Y+043125
X+088033Y+048026
X+087318Y+048026
X+088033Y+049213
X+088748Y+049359
X+091634Y+049953
X+092228Y+049359
X+092734Y+048026
X+087318Y+052933
X+087318Y+053671
X+084580Y+047432
X+082024Y+046150
X+080160Y+049138
X+076301Y+052915
X+075707Y+054915
X+079688Y+055741
X+081469Y+058348
X+080160Y+061144
X+079567Y+062331
X+080135Y+063651
X+081322Y+064838
X+078718Y+067127
X+076658Y+062476
X+073762Y+063125
X+073217Y+060509
X+069796Y+056915
X+070389Y+055915
X+068950Y+052630
X+069202Y+051915
X+070619Y+046395
X+064665Y+041803
X+062411Y+042532
X+059368Y+042955
X+063599Y+039448
X+050904Y+034975
X+050034Y+027819
X+042130Y+019932
X+041247Y+020526
X+040943Y+019338
X+036798Y+018866
X+031798Y+020526
X+028060Y+020012
X+026798Y+020606
X+027392Y+018394
X+029392Y+015082
X+029897Y+014488
X+028370Y+011627
X+027777Y+008867
X+027183Y+008273
X+030030Y+008158
X+031218Y+008395
X+033883Y+006971
X+035219Y+007565
X+036406Y+006735
X+035812Y+006141
X+037118Y+005669
X+037290Y+029983
X+034892Y+032973
X+036224Y+034361
X+037763Y+034361
X+036014Y+048064
X+035560Y+049760
X+037195Y+049916
X+033919Y+048064
X+033919Y+052273
X+035560Y+054088
X+037170Y+054884
X+037170Y+060258
X+036459Y+062976
X+062936Y+063260
X+062936Y+059047
X+067983Y+063125
X+069049Y+068878
X+083673Y+060550
X+089974Y+063651
X+091162Y+066533
X+093327Y+063651
X+097488Y+063057
X+094571Y+067720
X+089293Y+035431
X+086846Y+030158
X+086373Y+027331
X+086373Y+025731
X+088857Y+027678
X+089872Y+024546
X+093327Y+027084
X+081772Y+023835
X+076984Y+023835
X+073348Y+026737
X+078146Y+029518
X+079146Y+028924
X+078739Y+031365
X+082765Y+014795
X+081996Y+011152
X+096416Y+010637
X+096295Y+013840
X+013042Y+013942
T02
X+094571Y+037634
X+091571Y+037634
T03
X+068619Y+013387
X+067619Y+013387
X+065807Y+013325
X+064807Y+013325
X+064932Y+010449
X+065932Y+010449
X+067870Y+010324
X+068870Y+010324
X+081121Y+010387
X+082121Y+010387
X+084059Y+010262
X+085059Y+010262
X+084809Y+013325
X+083809Y+013325
X+081996Y+013262
X+080996Y+013262
X+097060Y+013075
X+098060Y+013075
X+099873Y+013137
X+100873Y+013137
X+101123Y+010074
X+100123Y+010074
X+098185Y+010199
X+097185Y+010199
T04
X+096998Y+037507
X+097498Y+038007
X+097998Y+037507
T05
X+077146Y+030555
X+078146Y+030555
X+079146Y+030555
X+080146Y+030555
X+081146Y+030555
X+082146Y+030555
X+083146Y+030555
X+084146Y+030555
X+084146Y+033555
X+083146Y+033555
X+082146Y+033555
X+081146Y+033555
X+080146Y+033555
X+079146Y+033555
X+078146Y+033555
X+077146Y+033555
X+097541Y+046150
X+101073Y+046291
X+101073Y+050267
X+097541Y+050126
X+089055Y+065844
X+088055Y+065844
X+087055Y+065844
X+086055Y+065844
X+085055Y+065844
X+084055Y+065844
X+083055Y+065844
X+082055Y+065844
X+082055Y+068844
X+083055Y+068844
X+084055Y+068844
X+085055Y+068844
X+086055Y+068844
X+087055Y+068844
X+088055Y+068844
X+089055Y+068844
X+044964Y+065852
X+040988Y+065852
X+020048Y+055101
X+020048Y+054101
X+020048Y+053101
X+020048Y+052101
X+020048Y+051101
X+020048Y+050101
X+020048Y+049101
X+020048Y+048101
X+017048Y+048101
X+017048Y+049101
X+017048Y+050101
X+017048Y+051101
X+017048Y+052101
X+017048Y+053101
X+017048Y+054101
X+017048Y+055101
X+010921Y+053433
X+009421Y+053433
X+009421Y+050433
X+010921Y+050433
X+010796Y+056871
X+009296Y+056871
X+009296Y+059871
X+010796Y+059871
X+017235Y+027035
X+017235Y+026035
X+017235Y+025035
X+017235Y+024035
X+017235Y+023035
X+017235Y+022035
X+017235Y+021035
X+020235Y+021035
X+020235Y+022035
X+020235Y+023035
X+020235Y+024035
X+020235Y+025035
X+020235Y+026035
X+020235Y+027035
X+009108Y+022123
X+009108Y+021139
X+009108Y+020351
X+009108Y+019367
X+042113Y+021785
X+042113Y+022785
X+042113Y+023785
X+042113Y+024785
X+042113Y+025785
X+042113Y+026785
X+042113Y+027785
X+045113Y+027785
X+045113Y+026785
X+045113Y+025785
X+045113Y+024785
X+045113Y+023785
X+045113Y+022785
X+045113Y+021785
X+062017Y+007762
X+068017Y+007762
X+078206Y+007699
X+084206Y+007699
X+094271Y+007512
X+100271Y+007512
T06
X+096016Y+023106
T07
X+059369Y+046203
X+059369Y+047203
X+059369Y+048203
X+059243Y+051891
X+059243Y+052891
X+059243Y+053891
X+060616Y+059047
X+060616Y+060047
X+060616Y+061047
X+065514Y+061531
X+065514Y+062531
X+065514Y+060531
X+065514Y+059531
X+065514Y+058531
X+065514Y+057531
X+065514Y+056531
X+065514Y+055531
X+065514Y+054531
X+065514Y+053531
X+065514Y+052531
X+065514Y+051531
X+065514Y+050531
X+065514Y+049531
X+065514Y+048531
X+065514Y+047531
X+071210Y+041803
X+071210Y+040803
X+071210Y+039803
X+071210Y+038803
X+071210Y+037803
X+071210Y+036803
X+076045Y+036803
X+076045Y+037803
X+076045Y+038803
X+076045Y+039803
X+076045Y+040803
X+076045Y+041803
X+083258Y+041753
X+083258Y+040753
X+083258Y+039753
X+083258Y+038753
X+083258Y+037753
X+083258Y+036753
X+088092Y+036754
X+088092Y+037754
X+088092Y+038754
X+088092Y+039754
X+088092Y+040754
X+088092Y+041754
X+095623Y+040823
X+096623Y+040823
X+097623Y+040823
X+098623Y+040823
X+099623Y+040823
X+100623Y+040823
X+101623Y+040823
X+102623Y+040823
X+097998Y+030076
X+096998Y+030076
X+095998Y+030076
X+091872Y+030076
X+090872Y+030076
X+089872Y+030076
X+090734Y+026176
X+091734Y+026176
X+092734Y+026176
X+095016Y+023106
X+097016Y+023106
X+099663Y+023106
X+100663Y+023106
X+101663Y+023106
X+088263Y+023210
X+087263Y+023210
X+086263Y+023210
X+084461Y+026486
X+083461Y+026486
X+082461Y+026486
X+080656Y+023106
X+079656Y+023106
X+078656Y+023106
X+076256Y+026382
X+075256Y+026382
X+074256Y+026382
X+072620Y+023076
X+071620Y+023076
X+070620Y+023076
X+067244Y+023013
X+066244Y+023013
X+062780Y+023106
X+061780Y+023106
X+060780Y+023106
X+059780Y+023106
X+058971Y+026331
X+058971Y+027331
X+058971Y+028331
X+058971Y+029331
X+050176Y+030789
X+050176Y+031789
X+050176Y+032789
X+050176Y+036914
X+050176Y+037914
X+050176Y+038914
X+050139Y+042599
X+050139Y+043599
X+050139Y+044599
X+050139Y+045599
X+050139Y+049538
X+050139Y+050538
X+050139Y+051538
X+050139Y+052538
X+045363Y+052037
X+045363Y+051037
X+045363Y+050037
X+045363Y+049037
X+045363Y+048037
X+045363Y+047037
X+045363Y+044600
X+045363Y+043600
X+045363Y+042600
X+045363Y+041600
X+045363Y+040600
X+045363Y+039600
X+045363Y+036975
X+045363Y+035975
X+045363Y+034975
X+045363Y+033975
X+045363Y+032975
X+045363Y+031975
X+039925Y+031973
X+039925Y+032973
X+039925Y+033973
X+039925Y+034973
X+039925Y+035973
X+039925Y+036973
X+039925Y+039600
X+039925Y+040600
X+039925Y+041600
X+039925Y+042600
X+039925Y+043600
X+039925Y+044600
X+039925Y+047037
X+039925Y+048037
X+039925Y+049037
X+039925Y+050037
X+039925Y+051037
X+039925Y+052037
X+039925Y+054415
X+039925Y+055415
X+039925Y+056415
X+039925Y+057415
X+039925Y+058415
X+039925Y+059415
X+035612Y+057226
X+034612Y+057226
X+033612Y+057226
X+032612Y+057226
X+031612Y+057226
X+030612Y+057226
X+029612Y+057226
X+028612Y+057226
X+024861Y+057288
X+023861Y+057288
X+022861Y+057288
X+021861Y+057288
X+020861Y+057288
X+019861Y+057288
X+018861Y+057288
X+017861Y+057288
X+015734Y+067747
X+015734Y+068747
X+015734Y+069747
X+013734Y+069747
X+013734Y+068747
X+013734Y+067747
X+010296Y+067872
X+010296Y+068872
X+010296Y+069872
X+008296Y+069872
X+008296Y+068872
X+008296Y+067872
X+017860Y+073352
X+018860Y+073352
X+019860Y+073352
X+020860Y+073352
X+021860Y+073352
X+022860Y+073352
X+023860Y+073352
X+024860Y+073352
X+028610Y+073310
X+029610Y+073310
X+030610Y+073310
X+031610Y+073310
X+032610Y+073310
X+033610Y+073310
X+034610Y+073310
X+035610Y+073310
X+045363Y+059414
X+045363Y+058414
X+045363Y+057414
X+045363Y+056414
X+045363Y+055414
X+045363Y+054414
X+060168Y+066287
X+060168Y+067287
X+060168Y+068287
X+062168Y+068287
X+062168Y+067287
X+062168Y+066287
X+073033Y+065878
X+073033Y+066878
X+073033Y+067878
X+073033Y+068878
X+073033Y+064878
X+073033Y+063878
X+077868Y+063878
X+077868Y+064878
X+077868Y+065878
X+077868Y+066878
X+077868Y+067878
X+077868Y+068878
X+078838Y+057741
X+078838Y+056741
X+078838Y+055741
X+078838Y+054741
X+078838Y+053741
X+078838Y+052741
X+083673Y+052741
X+083673Y+053741
X+083673Y+054741
X+083673Y+055741
X+083673Y+056741
X+083673Y+057741
X+095623Y+057161
X+096623Y+057161
X+097623Y+057161
X+098623Y+057161
X+099623Y+057161
X+100623Y+057161
X+101623Y+057161
X+102623Y+057161
X+098338Y+062057
X+098338Y+063057
X+098338Y+064057
X+098013Y+070127
X+099013Y+070127
X+100013Y+070127
X+101013Y+070127
X+096026Y+070258
X+095026Y+070258
X+094026Y+070258
X+093026Y+070258
X+091895Y+012387
X+091895Y+011387
X+091895Y+010387
X+075830Y+010574
X+075830Y+011574
X+075830Y+012574
X+059704Y+012637
X+059704Y+011637
X+059704Y+010637
X+049551Y+011221
X+048551Y+011221
X+047551Y+011221
X+047551Y+012221
X+046551Y+012221
X+046551Y+011221
X+045551Y+011221
X+045551Y+012221
X+048551Y+012221
X+049551Y+012221
X+050176Y+016222
X+050176Y+017222
X+050176Y+018222
X+050176Y+022910
X+050176Y+023910
X+050176Y+024910
X+050176Y+025910
X+042300Y+012221
X+042300Y+011221
X+041300Y+011221
X+040300Y+011221
X+039300Y+011221
X+038300Y+011221
X+038300Y+012221
X+039300Y+012221
X+040300Y+012221
X+041300Y+012221
X+034612Y+012159
X+034612Y+011159
X+033612Y+011159
X+032612Y+011159
X+031612Y+011159
X+031612Y+012159
X+032612Y+012159
X+033612Y+012159
X+030612Y+012159
X+030612Y+011159
X+027048Y+011221
X+026048Y+011221
X+026048Y+012221
X+025048Y+012221
X+024048Y+012221
X+024048Y+011221
X+023048Y+011221
X+023048Y+012221
X+025048Y+011221
X+027048Y+012221
X+020421Y+011554
X+019421Y+011554
X+018421Y+011554
X+017421Y+011554
X+016421Y+011554
X+015421Y+011554
X+016361Y+031473
X+016361Y+032473
X+016361Y+033473
X+016361Y+034473
X+016361Y+035473
X+016361Y+036473
X+016361Y+040036
X+016361Y+041036
X+016361Y+042036
X+016361Y+043036
X+016361Y+044036
X+016361Y+045036
X+021834Y+045037
X+021834Y+044037
X+021834Y+043037
X+021834Y+042037
X+021834Y+041037
X+021834Y+040037
X+021834Y+036473
X+021834Y+035473
X+021834Y+034473
X+021834Y+033473
X+021834Y+032473
X+021834Y+031473
T08
X+026485Y+023023
X+027485Y+023023
X+028485Y+023023
X+029485Y+023023
X+030485Y+023023
X+031485Y+023023
X+032485Y+023023
X+033485Y+023023
X+034485Y+023023
X+035485Y+023023
X+035485Y+024023
X+034485Y+024023
X+033485Y+024023
X+032485Y+024023
X+031485Y+024023
X+030485Y+024023
X+029485Y+024023
X+028485Y+024023
X+027485Y+024023
X+026485Y+024023
X+026798Y+017534
X+025798Y+017534
X+025798Y+016534
X+026798Y+016534
X+027798Y+016534
X+028798Y+016534
X+029798Y+016534
X+030798Y+016534
X+031798Y+016534
X+032798Y+016534
X+033798Y+016534
X+034798Y+016534
X+035798Y+016534
X+036798Y+016534
X+037798Y+016534
X+038798Y+016534
X+038798Y+017534
X+037798Y+017534
X+036798Y+017534
X+035798Y+017534
X+034798Y+017534
X+033798Y+017534
X+032798Y+017534
X+031798Y+017534
X+030798Y+017534
X+029798Y+017534
X+028798Y+017534
X+027798Y+017534
X+024798Y+017534
X+024798Y+016534
X+023798Y+016534
X+022798Y+016534
X+021798Y+016534
X+021798Y+017534
X+022798Y+017534
X+023798Y+017534
X+039798Y+017534
X+040798Y+017534
X+040798Y+016534
X+039798Y+016534
X+035486Y+040287
X+035486Y+041287
X+034486Y+041287
X+034486Y+040287
X+033486Y+040287
X+032486Y+040287
X+031486Y+040287
X+030486Y+040287
X+029486Y+040287
X+028486Y+040287
X+028486Y+041287
X+027486Y+041287
X+027486Y+040287
X+026486Y+040287
X+026486Y+041287
X+029486Y+041287
X+030486Y+041287
X+031486Y+041287
X+032486Y+041287
X+033486Y+041287
X+071357Y+050915
X+071357Y+051915
X+071357Y+052915
X+071357Y+053915
X+071357Y+054915
X+071357Y+055915
X+071357Y+056915
X+071357Y+057915
X+071357Y+058915
X+071357Y+059915
X+072357Y+059915
X+072357Y+058915
X+072357Y+057915
X+072357Y+056915
X+072357Y+055915
X+072357Y+054915
X+072357Y+053915
X+072357Y+052915
X+072357Y+051915
X+072357Y+050915
X+088357Y+050933
X+088357Y+051933
X+088357Y+052933
X+088357Y+053933
X+088357Y+054933
X+088357Y+055933
X+088357Y+056933
X+088357Y+057933
X+088357Y+058933
X+088357Y+059933
X+089357Y+059933
X+089357Y+058933
X+089357Y+057933
X+089357Y+056933
X+089357Y+055933
X+089357Y+054933
X+089357Y+053933
X+089357Y+052933
X+089357Y+051933
X+089357Y+050933
T09
X+044363Y+073353
X+042863Y+073353
X+041363Y+073353
T10
X+025611Y+053663
X+023261Y+052863
X+027961Y+052863
X+032262Y+052864
X+034612Y+053664
X+036962Y+052864
X+036962Y+048064
X+032262Y+048064
X+027961Y+048063
X+023261Y+048063
T11
X+050139Y+071602
X+050139Y+069634
X+050139Y+064945
X+050139Y+062976
X+050139Y+058632
X+050139Y+056663
X+058618Y+036265
X+058618Y+034296
X+009421Y+043557
X+009421Y+045526
T12
X+010171Y+018158
X+010171Y+023332
T13
X+103722Y+071903
X+058025Y+071704
X+057715Y+020910
X+103202Y+020835
T14
X+006233Y+073435
X+053067Y+073444
X+054130Y+006062
X+006233Y+007178
T00
M30
