G04 DipTrace 3.0.0.1*
G04 Top.gbr*
%MOIN*%
G04 #@! TF.FileFunction,Copper,L1,Top*
G04 #@! TF.Part,Single*
G04 #@! TA.AperFunction,Conductor*
%ADD15C,0.03937*%
%ADD16C,0.015748*%
G04 #@! TA.AperFunction,ComponentPad*
%ADD17R,0.066929X0.066929*%
%ADD18C,0.066929*%
%ADD19R,0.094488X0.094488*%
%ADD20C,0.094488*%
%ADD21R,0.090551X0.090551*%
%ADD22C,0.090551*%
%ADD23R,0.059055X0.059055*%
%ADD24C,0.059055*%
%ADD25O,0.059055X0.07874*%
%ADD26R,0.062992X0.070866*%
%ADD27R,0.070866X0.062992*%
G04 #@! TA.AperFunction,ComponentPad*
%ADD28R,0.062992X0.062992*%
%ADD29C,0.062992*%
%ADD30C,0.125984*%
%ADD31R,0.068898X0.068898*%
%ADD32C,0.068898*%
%ADD33O,0.086614X0.141732*%
%ADD34O,0.03937X0.07874*%
%ADD35C,0.05*%
%ADD36C,0.05*%
%ADD38R,0.055118X0.066929*%
%ADD39R,0.05X0.05*%
%ADD40C,0.059055*%
G04 #@! TA.AperFunction,ViaPad*
%ADD41C,0.04*%
%FSLAX26Y26*%
G04*
G70*
G90*
G75*
G01*
G04 Top*
%LPD*%
X1351316Y6287748D2*
D15*
Y5590776D1*
X1170210Y6496724D2*
X1201079D1*
X1221079Y6476724D1*
Y6374673D1*
X2285978Y7335177D2*
X2385978D1*
X3226193Y5286387D2*
X2796098D1*
Y5286301D1*
X1304182Y950008D2*
X2207178D1*
X1304182Y1394197D2*
X863970D1*
X3711781Y566854D2*
X3664537Y519610D1*
X863970D1*
X3461026Y7331024D2*
X3561026D1*
X2485978Y7335177D2*
X2570623Y7419823D1*
X3327562D1*
X3361026Y7386358D1*
Y7331024D1*
X2385978Y7335177D2*
X2485978D1*
X8987192Y3007643D2*
Y2956459D1*
X9020656Y2922995D1*
X9515108D1*
X9599756Y3007643D1*
X6724423Y2301319D2*
Y2454648D1*
X8987192D1*
X3992454Y3197323D2*
D16*
X3301395D1*
X3114537Y3010465D1*
X1683361D1*
X1636115Y3057710D1*
Y3147318D1*
X1670954Y1070413D2*
X1375364D1*
X4211303Y2778529D2*
X4314584D1*
X4403488Y2867433D1*
X4457887D1*
Y2954043D1*
X5013911Y5253757D2*
X4919605Y5348063D1*
X4536312D1*
X2286092Y6190555D2*
D15*
X1742505D1*
X4536312Y4703727D2*
D16*
X4905655D1*
Y4703728D1*
X2098399Y3082220D2*
X1723545D1*
X4536312Y3197472D2*
X4730108D1*
X4884324Y3351689D1*
X5102568D1*
X5149812Y3398933D1*
Y3917008D1*
X5102568Y3964252D1*
X4899675D1*
X4895378Y3959955D1*
X4536312D1*
X4457887Y2954043D2*
X4820953Y2590978D1*
X5017606D1*
X4536312Y5348063D2*
X3826115D1*
X3778871Y5300819D1*
Y5145465D1*
X3731627Y5098220D1*
X2097942D1*
X2085816Y5110346D1*
X9799756Y3007643D2*
Y3080479D1*
X9260028D1*
X9187192Y3007643D1*
X5936849Y4295455D2*
X5757030Y4115636D1*
Y2415849D1*
X6038885Y2133995D1*
X9554382D1*
X9601626Y2181239D1*
Y2310631D1*
X5936850Y4620312D2*
X5851516D1*
X5804270Y4667558D1*
Y5069043D1*
X5924349Y5189122D1*
X8684554Y3015759D2*
X8501867Y2833072D1*
X5897093D1*
X5982054Y2733073D2*
X8637310D1*
X7235749Y5291537D2*
X7630093D1*
Y5291534D1*
Y4371916D2*
X8882085D1*
Y4108823D1*
X8848621Y4075358D1*
X8809249D1*
X7309570Y4520810D2*
X8929329D1*
X8976573Y4473566D1*
Y4022602D1*
X8929329Y3975358D1*
X8809249D1*
X8133286Y4075349D2*
X7783955D1*
X7736711Y4028105D1*
Y3800420D1*
X7783955Y3753176D1*
X8026676D1*
X8073920Y3705932D1*
Y3649723D1*
X8026676Y3602479D1*
X7300487D1*
X6961991Y3543109D2*
X8073920D1*
X3061151Y1115854D2*
D15*
X2974671Y1029374D1*
X2304824D1*
X1742138D1*
Y1155375D1*
X4436848Y5581988D2*
Y5926008D1*
X1151860Y4371122D2*
X1223354Y4442617D1*
Y4536980D1*
X4511303Y2178529D2*
X4905157D1*
X5017606Y2290978D1*
X4077100Y4520035D2*
X4137180Y4459955D1*
X4536312D1*
X1985978Y7335177D2*
Y7246378D1*
X2056844Y7175512D1*
X2705514D1*
X2861026Y7331024D1*
X1151860Y3768150D2*
X1030951D1*
X2748230Y2544677D2*
X2268005D1*
X5013911Y4834594D2*
X4880801D1*
X4809934Y4905461D1*
Y5063098D1*
X4555058Y1122105D2*
Y973265D1*
X4540301Y958508D1*
X3121753Y839453D2*
X3686986D1*
X3829982Y982449D1*
X745230Y1936709D2*
Y1224606D1*
X1758749Y614098D2*
X773214D1*
X1087990Y2001197D2*
X1921218D1*
X2023542Y2103521D1*
X4436295Y7335257D2*
X4332144Y7231106D1*
X3094491D1*
X3061026Y7264571D1*
Y7331024D1*
X1885978Y7335177D2*
X1785978D1*
X1030951Y4018176D2*
X1151860D1*
Y4018177D1*
X5013911Y4953757D2*
X5419390D1*
X5493592Y4879555D1*
X4436848Y5926008D2*
X4421370Y5941486D1*
X3992454D1*
X2304822Y1122105D2*
X2304824Y1029374D1*
X2004793Y4635917D2*
X2183360D1*
X1223354Y4536980D2*
Y4623594D1*
X1826584D1*
X1838907Y4635917D1*
X2004793D1*
X4536312Y4459955D2*
X4620958D1*
X4651510Y4490508D1*
X4809934D1*
X1030951Y3768150D2*
Y3577556D1*
X960084Y3506689D1*
X745230D1*
X3829982Y982449D2*
X4015332D1*
X4060832Y936949D1*
X4915171Y6494500D2*
X2570738D1*
X4915171Y6297650D2*
X3645852D1*
X8803294Y4802609D2*
D16*
X9273357D1*
X8731798Y5367136D2*
X8649440D1*
Y4968593D1*
X8696684Y4921349D1*
X8803294D1*
X7968798Y5574097D2*
Y5020451D1*
X7921554Y4973207D1*
X6860829D1*
X6813585Y5020451D1*
Y5181629D1*
X6894987Y5263030D1*
X8731798Y4802609D2*
X8300766D1*
X8253522Y4849853D1*
Y5574096D1*
X8367301D1*
X8214554Y3543109D2*
X8929329D1*
X6979570Y5691538D2*
Y6110278D1*
X7026814Y6157522D1*
X7428310D1*
Y5795559D1*
X7475554Y5748315D1*
X7746895D1*
X7794140Y5701070D1*
Y5474096D1*
X7883836D1*
Y5374096D2*
X7677341D1*
X7630097Y5421340D1*
Y5591538D1*
X7582853Y5638782D1*
X7428310D1*
X7381066Y5686026D1*
Y6110278D1*
X7086184D1*
X7038940Y6063034D1*
Y5791537D1*
X7135749D1*
X8016038Y4913837D2*
X6671526D1*
X6624282Y4961081D1*
Y5219663D1*
X6590818Y5253127D1*
X6551445D1*
X8146908Y5834806D2*
X8159034Y5846932D1*
X8440136D1*
Y5407560D1*
X8406672Y5374096D1*
X8367301D1*
X7321696Y6050908D2*
Y5591537D1*
X7235749D1*
X7871751Y6712660D2*
X10054020D1*
X10101264Y6759904D1*
Y7012714D1*
X7235749Y5491537D2*
X7570727D1*
Y5491538D1*
X8731798Y5293318D2*
Y5042495D1*
X8779042Y4995251D1*
X9163428D1*
X9222798Y4935881D2*
X8874790D1*
X7303323Y6687846D2*
X7522798D1*
X7570042Y6640602D1*
Y6220995D1*
X7617286Y6173751D1*
X9009570D1*
X9056814Y6126507D1*
Y5240562D1*
X9009568Y5193316D1*
X8935749D1*
X6433833Y2673699D2*
X7334825D1*
X7376160Y6312499D2*
X6798333D1*
X7303323Y6587846D2*
X7475554D1*
X7522798Y6540602D1*
Y5988664D1*
X7570042Y5941420D1*
X8602199D1*
X8649444Y5894176D1*
Y5640562D1*
X8696689Y5593316D1*
X8835749D1*
X7303323Y6487846D2*
X7428310D1*
X7475554Y6440602D1*
Y5941420D1*
X7522798Y5894176D1*
X8554955D1*
X8602199Y5846932D1*
Y5540562D1*
X8649445Y5493316D1*
X8835749D1*
X8885707Y2767790D2*
X8803526D1*
X8684325Y2648589D1*
X8446075D1*
X9116184Y6653290D2*
X7993810D1*
X7928356Y6587836D1*
X7786787D1*
X8132223Y6483829D2*
X8128217Y6487836D1*
X7786787D1*
X8637310Y2573073D2*
X8629648Y2565412D1*
X8246075D1*
Y2648589D1*
X910822Y2212298D2*
D15*
X962005D1*
X993501Y2180802D1*
Y1930016D1*
X2877175D1*
Y2060882D1*
X2806308Y2131748D1*
X2633781D1*
X2562915Y2202614D1*
Y2367866D1*
X2597364Y2402315D1*
X2648545D1*
X3391864Y5227335D2*
X3320682Y5298516D1*
Y5428579D1*
X3249816Y5499445D1*
X2961202D1*
X3601387Y4806386D2*
X3391864D1*
X2961203Y5722588D2*
X3061203D1*
X7604501Y4180339D2*
D16*
X7796077D1*
X7303323Y6387846D2*
X6108849D1*
X6061604Y6340601D1*
Y6104719D1*
X7665790Y6247617D2*
X7680286Y6233121D1*
X7956672D1*
X7796077Y4180339D2*
X8145415D1*
X8192660Y4133093D1*
Y3649723D1*
X8239904Y3602479D1*
X8736370D1*
X8809249Y3675358D1*
X7956672Y6233121D2*
X8029270Y6305719D1*
X9748818D1*
X9662274Y5716143D2*
X9562274D1*
X6278004Y2310631D2*
X6360152Y2228483D1*
X7965577D1*
Y2310631D1*
X6551445Y4853127D2*
X6512073D1*
X6478609Y4886592D1*
Y6119663D1*
X6512073Y6153127D1*
X6551445D1*
X7121038Y4180329D2*
X6466487D1*
X7714552Y3355469D2*
X7783453Y3424369D1*
X8314550D1*
X9109831D1*
X9157073Y3471612D1*
Y3763416D1*
X7193873Y3355471D2*
X7714552D1*
Y3355469D1*
X9562274Y5716143D2*
Y4909223D1*
X9515030Y4861979D1*
X8414545D1*
X8367301Y4909223D1*
Y5274096D1*
X8314552Y3355469D2*
X8314550Y3424369D1*
X8177180Y2383467D2*
X8239671Y2320976D1*
X8626337D1*
X7965577Y2310631D2*
Y2350003D1*
X7999042Y2383467D1*
X8177180D1*
X6061604Y6004719D2*
X6100975D1*
X6349383Y6253127D1*
X6551445D1*
X9602617Y7025845D2*
Y7098680D1*
X9436081D1*
X9402617Y7065215D1*
Y7025845D1*
X8414552Y3055469D2*
X8498933Y3139849D1*
X9039948D1*
X9087192Y3092605D1*
Y3007643D1*
X5936850Y4720312D2*
X6414959D1*
X6447774Y4753127D1*
X6551445D1*
X9501626Y2310631D2*
X9417963D1*
X9345130Y2237798D1*
X8726337D1*
Y2320976D1*
X8325783Y4175348D2*
X8664451D1*
X8664462Y4175358D1*
X8809249D1*
X7121038Y3680329D2*
X7288353D1*
X7288362Y3680339D1*
X7604501D1*
X6748685Y2954942D2*
X7121038D1*
Y2954944D1*
X8367301Y5774096D2*
X7883836D1*
X10062274Y4082285D2*
X10162274D1*
X8935749Y5993316D2*
Y6032688D1*
X8901301Y6067136D1*
X8379428D1*
X8367302Y6055010D1*
X7303323Y6887846D2*
X6904948D1*
Y6887845D1*
X7786787Y6887836D2*
X7653672D1*
X7653661Y6887846D1*
X7303323D1*
X8905450Y6884390D2*
X8781924Y7007916D1*
X7906867D1*
X7786787Y6887836D1*
X9402617Y7025845D2*
Y6931634D1*
X9355373Y6884390D1*
X8905450D1*
X7604501Y3680339D2*
X8014550D1*
Y3680337D1*
X10162274Y4082285D2*
X10262274D1*
X1098076Y1703173D2*
X1600718D1*
X3388320Y697091D2*
X2135997D1*
X1723542Y2403521D2*
X1232470D1*
Y2403520D1*
X3640600Y673469D2*
X3486430D1*
X3438556Y625594D1*
X2008265D1*
X1877399Y756461D1*
X1232470D1*
X3640600Y1205067D2*
X3629812Y1215854D1*
X3461151D1*
X1373370Y6874715D2*
D15*
X1450245D1*
X1458706Y6866255D1*
Y6701323D1*
X1505950Y6654079D1*
X4427497D1*
X4496398Y6585178D1*
X638615Y3768150D2*
D16*
X920715D1*
X2220438Y1525063D2*
X911214D1*
X920715Y4018176D2*
Y3902323D1*
X920718D1*
X3776222Y2725740D2*
X2730214D1*
X2682970Y2772984D1*
Y2915976D1*
X2635726Y2963220D1*
X920718D1*
X1923308Y2344150D2*
Y2603287D1*
X2023542Y2703521D1*
X1911182Y1643803D2*
X899088D1*
X851844Y1596559D1*
Y1453567D1*
X1363552D1*
Y1358917D1*
X1220883Y1216248D1*
Y933949D1*
X1268127Y886705D1*
X2503108D1*
X2562478Y946075D1*
X3113907D1*
X3161151Y993319D1*
Y1115854D1*
X1792442Y3830831D2*
X1780320Y3842953D1*
X710112D1*
X1541348Y1584433D2*
X970584D1*
X1863938Y2503520D2*
X1792442Y2575016D1*
Y2772421D1*
X1553474D1*
X1541348Y2760295D1*
X1804568Y2273996D2*
X1994017D1*
X2023542Y2303521D1*
X2186556Y756461D2*
X3062383D1*
Y898823D1*
X3313907D1*
X3361151Y946067D1*
Y1115854D1*
X4468801Y1840024D2*
X4623289D1*
X4755058Y1122105D2*
Y1049268D1*
X4802302Y1002024D1*
X5075139D1*
X5122383Y1049268D1*
Y1413681D1*
X4920668D1*
X4873423Y1460927D1*
Y1985811D1*
X4826178Y2033055D1*
X4489647D1*
X4442403Y2080299D1*
Y2509629D1*
X4511303Y2578529D1*
X4980415Y1354311D2*
X5075139D1*
Y1096512D1*
X5027895Y1049268D1*
X4888522D1*
X4855058Y1082732D1*
Y1122105D1*
X4651698Y2378528D2*
Y2597272D1*
X4592328Y2278528D2*
Y2537902D1*
X4211303Y2578529D2*
X4319612Y2470220D1*
Y1946638D1*
X4366856Y1899394D1*
X4680651D1*
X4727895Y1852150D1*
Y1342185D1*
X4775139Y1294941D1*
X5027895D1*
Y1155570D1*
X4994430Y1122105D1*
X4955058D1*
X6748685Y3065178D2*
X6636719D1*
Y2926385D1*
X6561916D1*
X9457073Y3763416D2*
X9526247Y3694243D1*
X9699787D1*
Y3750724D1*
X9457073Y6772030D2*
X8317810D1*
X8205450Y6884390D1*
X1373370Y6974715D2*
D15*
X1471210Y7072555D1*
X4904744D1*
X5013911Y6963388D1*
X1648731Y6374673D2*
D16*
Y6449476D1*
X1339190D1*
X1291946Y6402232D1*
Y6299870D1*
X1244702Y6252626D1*
X1110843D1*
Y6374673D1*
X942075Y4355711D2*
X1060837Y4236949D1*
X1219379D1*
Y4311751D1*
X1333591Y4425962D1*
Y4536980D1*
X3207966Y2879602D2*
X3927052D1*
X1223356Y3720154D2*
X2328226D1*
X2412722Y3635657D1*
X3207966D1*
X1232470Y2819669D2*
X1580037D1*
X1616974Y2856606D1*
X2493360D1*
Y2737866D1*
X2092442D1*
Y2048441D1*
X2139686Y2001197D1*
X2805993D1*
X6201654Y957428D2*
X6076639D1*
X5970379Y1063688D1*
X6201654Y1088692D2*
Y957428D1*
X6207904Y1219954D2*
X6201654D1*
Y1088692D1*
X6188013Y1318827D2*
X6207904D1*
Y1219954D1*
X6318140D2*
Y1163495D1*
X6814701D1*
X6861948Y1210741D1*
Y1338718D1*
X6401134Y1222865D2*
Y1318827D1*
X6298249D1*
X6394882Y1088692D2*
X6311890D1*
Y957428D2*
X6886950D1*
Y1032436D1*
X7808072Y1357469D2*
Y1207453D1*
X7820573D1*
Y951177D2*
X7689308D1*
X7583049Y1057437D1*
X7820573Y1082441D2*
Y951177D1*
Y1207453D2*
Y1082441D1*
X7930810Y1207453D2*
X8433622D1*
X8480867Y1254698D1*
Y1332467D1*
X8276461Y1479516D2*
X7965551D1*
X7918308Y1432273D1*
Y1357469D1*
X8199587Y1115181D2*
X8034417D1*
X8001677Y1082441D1*
X7930810D1*
Y951177D2*
X8505870D1*
Y1026185D1*
X9189467Y1038685D2*
X9295727Y932425D1*
X9426992D1*
X9433243Y1194951D2*
X9414491D1*
Y1344967D1*
X9426992Y1063689D2*
Y1194951D1*
X9433243D1*
X9426992Y932425D2*
Y1063689D1*
X9543479Y1194951D2*
X10040039D1*
X10087286Y1242198D1*
Y1313715D1*
X9629512Y1383961D2*
Y1364967D1*
X9609512Y1344967D1*
X9524727D1*
X9641638Y1063689D2*
X9537228D1*
Y932425D2*
X10112289D1*
Y1007433D1*
X9987286Y1313715D2*
X9915768Y1242197D1*
X9771272D1*
X9706005Y1307463D1*
X5013911Y5666332D2*
D15*
X5112336Y5764757D1*
Y6026134D1*
X5041470Y6097000D1*
X2641604D1*
X2570738Y6026134D1*
Y5497988D1*
X2561098Y5488349D1*
Y5366301D1*
X3717033Y5488437D2*
X3461193D1*
Y5366387D1*
X3717033Y6025819D2*
X4851274D1*
X5013911Y5863182D1*
X3992454Y4059955D2*
D16*
X3776277D1*
Y4059953D1*
X3622364Y3436142D2*
X3776277D1*
X5017606Y3791416D2*
X4456798D1*
X4430812Y3817402D1*
X3120316D1*
X3070312Y3767398D1*
X2133064D1*
X2085820Y3814642D1*
Y4203710D1*
X2183360D1*
X2433990Y2797236D2*
X1851812D1*
X2183360Y3347286D2*
X2504860D1*
Y3347287D1*
X4928950Y4359933D2*
X4869304Y4419579D1*
Y4532161D1*
X4822060Y4579406D1*
X3974604D1*
X3833265Y4438067D1*
X2504860D1*
Y3347287D2*
X2926210D1*
X3048596Y3469673D1*
X2183360Y3247286D2*
X2256194D1*
X2307685Y3195795D1*
X2493360D1*
X4928675Y4459933D2*
Y4579406D1*
X4881430Y4626650D1*
X3914828D1*
X3846190Y4695287D1*
X2433990D1*
X2493360Y3195795D2*
X3148596D1*
X4384438Y5132547D2*
Y5229319D1*
X4431682Y5276563D1*
X4609147D1*
X4731953Y5153757D1*
X5013911D1*
X4384438Y3758031D2*
X4372312Y3770157D1*
X3614580D1*
X3567336Y3722913D1*
X3391709Y3547286D1*
X2183360D1*
X3567336Y3722913D2*
X3520092Y3770157D1*
X3360722D1*
X3348596Y3758031D1*
X2643777Y4378697D2*
X2492738D1*
X2445493Y4331453D1*
Y3885953D1*
X2492738Y3838709D1*
X2891537D1*
X2643777Y6760697D2*
X5315797D1*
X5363041Y6713453D1*
Y5101001D1*
X5315797Y5053757D1*
X5013911D1*
X2183360Y3447286D2*
X2891537D1*
Y3447287D1*
Y3838709D2*
X2990277Y3937449D1*
X3448596D1*
Y4028667D1*
X2564856Y4497437D2*
X2386932D1*
X2339688Y4450193D1*
Y4150955D1*
X2292442Y4103710D1*
X2183360D1*
X2703147Y5712980D2*
X2663777D1*
X2643777Y5692980D1*
Y5283756D1*
X2564856Y5204835D1*
X5256427Y6198909D2*
X2703147D1*
X5090442Y4846720D2*
X5315797D1*
X1721076Y4103575D2*
X1898049Y4280547D1*
Y4529303D1*
X1945293Y4576547D1*
X2948596D1*
X3622415Y4334366D2*
X3648004Y4359955D1*
X3992454D1*
X5017606Y3078852D2*
X5149812D1*
X5197056Y3126096D1*
Y3964252D1*
X5149812Y4011496D1*
X4824142D1*
X4575682Y4259955D1*
X4536312D1*
X2648596Y4028667D2*
X2539982D1*
Y4212709D1*
X2587228Y4259955D1*
X3992454D1*
X3407966Y3878079D2*
X4065289D1*
X4112533Y3925323D1*
Y4112713D1*
X4065290Y4159955D1*
X3992454D1*
X2748596Y3695350D2*
X3407966D1*
X4229982Y1222105D2*
X4269352D1*
X4302816Y1188640D1*
Y1089063D1*
X4255572Y1041819D1*
X3747214D1*
X3699970Y1089063D1*
Y1335933D1*
X2818650D1*
X2704822Y1222105D1*
X4255572Y1041819D2*
X4445497Y851894D1*
X5197056D1*
X5342537Y997374D1*
Y3913260D1*
X5197056Y4058740D1*
X5052726D1*
X4692139Y4419327D1*
X2374619Y4635917D2*
X2289974D1*
X2242730Y4683161D1*
Y4869382D1*
X2289974Y4916626D1*
X3772423D1*
X3785318Y4903731D1*
X3992454D1*
X5256427Y5385965D2*
X5101030Y5541361D1*
X4536312D1*
X4373950Y2926803D2*
X4241529D1*
X4140281Y2825555D1*
Y2249551D1*
X4211303Y2178529D1*
X3555997Y5408752D2*
X3776403D1*
X3909136Y5541486D1*
X3992454D1*
X2242730Y4975996D2*
X3555997D1*
X1850643Y1584433D2*
X1982682D1*
Y1668055D1*
X1935438Y1715299D1*
X1672852D1*
Y1792114D1*
X1720096Y1839358D1*
X2327375D1*
X1803399Y1287583D2*
Y1359079D1*
X1850643Y1406323D1*
X1922139Y1287583D2*
X1929497Y1294941D1*
X2632564D1*
X2679808Y1342185D1*
Y1653411D1*
X1467639Y2891161D2*
X1173100D1*
Y2150765D1*
X1220344Y2103521D1*
X1723542D1*
X4325068Y5276567D2*
X3873360D1*
X3826115Y5229323D1*
Y5098220D1*
X3778871Y5050976D1*
X2180304D1*
X2133060Y5003732D1*
Y4754343D1*
X2085816Y4707098D1*
X1833060D1*
X3992454Y5641486D2*
X2703147D1*
Y5641484D1*
X2679808Y2060567D2*
X2433997D1*
X2386753Y2107811D1*
Y2296020D1*
X2564230Y2473496D1*
X4445761Y3025539D2*
X4577450D1*
X4939175Y2663815D1*
X5090442D1*
Y2524442D1*
X5056978Y2490978D1*
X5017606D1*
X4468801Y1721398D2*
X4528171D1*
X4575415Y1674154D1*
Y1342185D1*
X4528171Y1294941D1*
X4480930D1*
Y899138D1*
X5137686D1*
X5211273Y972724D1*
Y2885185D1*
X5137686Y2958772D1*
X5007112D1*
X4880974Y3084909D1*
X4433635D1*
X4121222Y3397323D1*
X3992454D1*
X2939178Y1508169D2*
X4468801D1*
X5090442Y3497472D2*
X4536312D1*
X4212997Y1993217D2*
Y1649902D1*
X4260241Y1602657D1*
X4409430D1*
Y1401555D2*
X4397304Y1389429D1*
X2927051D1*
X2879808Y1436672D1*
Y1653411D1*
X4255210Y4788685D2*
X4270252Y4803727D1*
X4536312D1*
X4124659Y2052587D2*
X4272367D1*
Y1709272D1*
X4319612Y1662028D1*
X4480927D1*
X4528171Y1614783D1*
Y1389429D1*
X4480927Y1342185D1*
X4077226D1*
X4029982Y1294941D1*
Y1222105D1*
X4175218Y2998339D2*
X3728978D1*
X4094257Y1933846D2*
X4027056D1*
X3979812Y1981091D1*
Y2586138D1*
X4045793Y2652118D1*
Y2891728D1*
X3998549Y2938972D1*
X3794411D1*
X3782285Y2926846D1*
X3622364D1*
Y3010465D1*
X3669608Y3057709D1*
X4373950D1*
X4124659Y2906799D2*
X4093037Y2875177D1*
Y2164280D1*
X4027056Y2098299D1*
Y2040461D1*
X4074301Y1993217D1*
X4153627D1*
Y1602661D1*
X4106383Y1555417D1*
X3079808D1*
Y1653411D1*
X2092446Y1774669D2*
X1744029D1*
X3289230Y2607000D2*
X2186930D1*
X3773895Y4131449D2*
X3669659D1*
X3622415Y4084205D1*
Y3937449D1*
X3522415D1*
X3141155Y4505051D2*
X3773895D1*
X2493360Y4635917D2*
X3007966D1*
Y4505051D1*
X5073990Y5326594D2*
X5315797D1*
Y6337020D1*
X5268552Y6384264D1*
X3385592D1*
X3259608Y6258280D1*
X1683135D1*
Y5673453D1*
X1730379Y5626209D1*
X2361533D1*
X2408777Y5578965D1*
Y5287827D1*
X2491769Y5204835D1*
X5197060Y768276D2*
X5185245Y756461D1*
X3521860D1*
X3003013Y815839D2*
X2932147Y886705D1*
X2777659D1*
X4738442Y5003728D2*
Y4810343D1*
X4785686Y4763098D1*
X5067214D1*
X5079344Y4775228D1*
X5366356D1*
X3179808Y2052587D2*
Y1753411D1*
X3719501Y4991606D2*
X3731626Y5003731D1*
X3992454D1*
X3579808Y1448799D2*
X2989738D1*
X1642139Y1334827D2*
X1773005Y1465693D1*
X2279808D1*
Y1653411D1*
X3581230Y614098D2*
X3545482Y578350D1*
X1913238D1*
X1818119Y673469D1*
X851844D1*
X804600Y720713D1*
Y3400073D1*
X851844Y3447318D1*
X1636115D1*
X2819726Y3898079D2*
X2539982D1*
X2492738Y3945323D1*
Y4272083D1*
X2539982Y4319327D1*
X3449391D1*
X3679808Y1886602D2*
Y2441016D1*
X3632564Y2488260D1*
X2819726D1*
X4188745Y1448799D2*
X3779808D1*
X2742340Y2820232D2*
X3986423D1*
X1539135Y2903850D2*
X2539982D1*
X2623600Y2820232D1*
X1636115Y3247318D2*
X1161513D1*
Y3247315D1*
X2718289Y827335D2*
X1161513D1*
Y827331D1*
X3640600Y1276563D2*
X3628474Y1288689D1*
X2962986D1*
X2837029Y1162732D1*
X5003407Y2781894D2*
X5090442D1*
X5137686Y2734650D1*
Y1669402D1*
X5090442Y1622157D1*
X5017606D1*
X3489175Y3297323D2*
X3992454D1*
X3489175Y2607000D2*
X3806383D1*
X3853627Y2559756D1*
Y1874476D1*
X3900871Y1827232D1*
X3945358D1*
X3979808Y1792782D1*
Y1753411D1*
X2026450Y3890201D2*
X1590434D1*
X1318490Y4162146D1*
X855458D1*
X808214Y4209390D1*
Y4418701D1*
X942075Y4552562D1*
X1072163Y4682650D1*
X1726446D1*
X1773690Y4729894D1*
Y4878966D1*
X2004790Y5110066D1*
X2151812Y2678496D2*
X2163938Y2666370D1*
X3853627D1*
X3900871Y2619126D1*
Y1921720D1*
X3948115Y1874476D1*
X4032563D1*
X4079808Y1827231D1*
Y1753411D1*
X1329615Y4236949D2*
X1318490Y4209390D1*
Y4162146D1*
X2379808Y1653411D2*
Y1394197D1*
X2332564Y1346953D1*
X1862769D1*
Y1228213D1*
X1542138D1*
Y1155375D1*
X2739178Y1839358D2*
X2479808D1*
Y1753411D1*
X8016042Y6114381D2*
X8962325D1*
X9009570Y6067136D1*
Y5527765D1*
X8975121Y5493316D1*
X8935749D1*
X8013483Y6365089D2*
X8158206D1*
X8205450Y6412333D1*
Y6584390D1*
X8202428Y4614971D2*
X9754068D1*
X7698420Y2383467D2*
X7695577Y2386310D1*
X6807759D1*
X6795605Y2374156D1*
X8367301Y5674096D2*
X8253522D1*
X8206278Y5626852D1*
Y4731113D1*
X8253522Y4683869D1*
X9822967D1*
Y4556605D1*
X9489440Y4223077D1*
Y3990436D1*
X9536685Y3943190D1*
X9702543D1*
X9749787Y3895946D1*
Y3800724D1*
X6835617Y3014314D2*
X6876772Y3055469D1*
X7714552D1*
X7192534Y3114841D2*
X6835617D1*
X7814554Y2951814D2*
X7192534D1*
X7914554Y2892444D2*
X6835617D1*
X6359873Y3944845D2*
X6730896Y3573822D1*
Y3268699D1*
X6778140Y3221455D1*
X7967308D1*
X8014552Y3174211D1*
Y3055469D1*
X6671526Y3174211D2*
X7836207D1*
X7873924Y3136495D1*
X6293589Y5904719D2*
X6061604D1*
X7038936Y5591538D2*
X6671526D1*
X6624282Y5638782D1*
Y6325963D1*
X6293589D1*
X7121038Y3980329D2*
X6949865D1*
X6902621Y3933085D1*
Y3315944D1*
X6949865Y3268699D1*
X9825349D1*
X9872593Y3221455D1*
Y2481598D1*
X9701626Y2310631D1*
X7428310Y4639546D2*
X7061932D1*
X6909007Y4080329D2*
X7121038D1*
X6016824Y6728699D2*
X6056196D1*
X6089660Y6762164D1*
Y7145924D1*
X6136904Y7193168D1*
X10187865D1*
X10235109Y7145924D1*
Y6208656D1*
X10382353Y6061412D1*
Y5301720D1*
X10107344Y5026711D1*
X8457991Y4253176D2*
X6241133D1*
X9662274Y4082285D2*
X9762274D1*
X6241133Y4253176D2*
Y3083865D1*
X6288377Y3036621D1*
X6561916D1*
X9762274Y4082285D2*
Y4217762D1*
X9917455Y4372944D1*
Y4695995D1*
X9870211Y4743239D1*
X8457991D1*
X9332727Y2708420D2*
X9011719D1*
X8817003Y2513703D1*
X6225248D1*
X6178004Y2466459D1*
Y2310631D1*
X8997444Y6365089D2*
X9332727D1*
X7235751Y4389944D2*
X6174374D1*
X6127130Y4342699D1*
Y3442822D1*
X5804274Y3119966D1*
Y2491285D1*
X5851518Y2444041D1*
X6030756D1*
X6078004Y2396793D1*
Y2310631D1*
X7135749Y5191537D2*
X6920199D1*
Y5191534D1*
X8822715Y4312546D2*
X6920199D1*
X7135751Y4449314D2*
X8731798D1*
X7808207Y3834719D2*
X8133290D1*
Y3483739D2*
X7425585D1*
X3696193Y5286387D2*
Y5145465D1*
X2326098D1*
Y5286301D1*
Y5531718D1*
X2278852Y5578965D1*
X1635891D1*
Y5531720D1*
X1538495Y5629117D1*
Y6374673D1*
X1635891Y5531720D2*
Y5178965D1*
X1704790Y5110066D1*
D41*
X1351316Y5590776D3*
Y6287748D3*
X1170210Y6496724D3*
X2207178Y950008D3*
X1304182D3*
X863970Y1394197D3*
Y519610D3*
X3711781Y566854D3*
X1304182Y1394197D3*
X8987192Y2454648D3*
X1375364Y1070413D3*
X1670954D3*
X1742505Y6190555D3*
X2286092D3*
X1723545Y3082220D3*
X2098399D3*
X2085816Y5110346D3*
X4536312Y5348063D3*
X4457887Y2954043D3*
X4905655Y4703728D3*
X5936849Y4295455D3*
X8684554Y3015759D3*
X8637310Y2733073D3*
X5982054D3*
X7630093Y5291534D3*
Y4371916D3*
X7309570Y4520810D3*
X7300487Y3602479D3*
X8133286Y4075349D3*
X8073920Y3543109D3*
X6961991D3*
X2004793Y4635917D3*
X745230Y3506689D3*
X2268005Y2544677D3*
X2748230D3*
X4809934Y5063098D3*
X5013911Y4834594D3*
X4540301Y958508D3*
X4060832Y936949D3*
X1151860Y4371122D3*
Y3768150D3*
X745230Y1224606D3*
X773214Y614098D3*
X1758749D3*
X1087990Y2001197D3*
X3121753Y839453D3*
X4436848Y5581988D3*
X2183360Y4635917D3*
X1151860Y4018177D3*
X4436848Y5926008D3*
X4077100Y4520035D3*
X4809934Y4490508D3*
X5493592Y4879555D3*
X3829982Y982449D3*
X745230Y1936709D3*
X2570738Y6494500D3*
X4915171D3*
X3645852Y6297650D3*
X4915171D3*
X9273357Y4802609D3*
X8803294D3*
Y4921349D3*
X8731798Y5367136D3*
X6894987Y5263030D3*
X7968798Y5574097D3*
X8731798Y4802609D3*
X8929329Y3543109D3*
X8214554D3*
X6979570Y5691538D3*
X8146908Y5834806D3*
X8016038Y4913837D3*
X7321696Y6050908D3*
X7871751Y6712660D3*
X7570727Y5491538D3*
X9163428Y4995251D3*
X8731798Y5293318D3*
X8874790Y4935881D3*
X9222798D3*
X7334825Y2673699D3*
X6433833D3*
X6798333Y6312499D3*
X7376160D3*
X8885707Y2767790D3*
X9116184Y6653290D3*
X8132223Y6483829D3*
X8637310Y2573073D3*
X2961202Y5499445D3*
X3391864Y5227335D3*
Y4806386D3*
X3601387D3*
X9748818Y6305719D3*
X7665790Y6247617D3*
X7956672Y6233121D3*
X7796077Y4180339D3*
X8177180Y2383467D3*
X6466487Y4180329D3*
X7193873Y3355471D3*
X7121038Y2954944D3*
X6904948Y6887845D3*
X8367302Y6055010D3*
X8014550Y3680337D3*
X1600718Y1703173D3*
X1098076D3*
X2135997Y697091D3*
X3388320D3*
X1232470Y2403520D3*
Y756461D3*
X3640600Y673469D3*
Y1205067D3*
X638615Y3768150D3*
X911214Y1525063D3*
X2220438D3*
X920718Y3902323D3*
Y2963220D3*
X3776222Y2725740D3*
X1923308Y2344150D3*
X1911182Y1643803D3*
X710112Y3842953D3*
X1792442Y3830831D3*
X970584Y1584433D3*
X1541348D3*
Y2760295D3*
X1863938Y2503520D3*
X1804568Y2273996D3*
X2186556Y756461D3*
X4623289Y1840024D3*
X4468801D3*
X4980415Y1354311D3*
X4651698Y2597272D3*
Y2378528D3*
X4592328Y2537902D3*
Y2278528D3*
X9457073Y6772030D3*
X3927052Y2879602D3*
X3207966D3*
Y3635657D3*
X1223356Y3720154D3*
X2805993Y2001197D3*
X1232470Y2819669D3*
X6401134Y1222865D3*
X6394882Y1088692D3*
X8276461Y1479516D3*
X8199587Y1115181D3*
X9629512Y1383961D3*
X9641638Y1063689D3*
X3717033Y6025819D3*
Y5488437D3*
X3776277Y4059953D3*
Y3436142D3*
X3622364D3*
X1851812Y2797236D3*
X2433990D3*
X2504860Y4438067D3*
X4928950Y4359933D3*
X3048596Y3469673D3*
X2504860Y3347287D3*
X2433990Y4695287D3*
X4928675Y4459933D3*
X3148596Y3195795D3*
X2493360D3*
X4384438Y5132547D3*
Y3758031D3*
X3348596D3*
X2643777Y4378697D3*
Y6760697D3*
X2891537Y3447287D3*
Y3838709D3*
X2564856Y4497437D3*
Y5204835D3*
X2703147Y5712980D3*
Y6198909D3*
X5256427D3*
X5315797Y4846720D3*
X5090442D3*
X2948596Y4576547D3*
X1721076Y4103575D3*
X3622415Y4334366D3*
X3407966Y3878079D3*
Y3695350D3*
X2748596D3*
X4692139Y4419327D3*
X2374619Y4635917D3*
X5256427Y5385965D3*
X4373950Y2926803D3*
X3555997Y5408752D3*
Y4975996D3*
X2242730D3*
X2327375Y1839358D3*
X1850643Y1584433D3*
Y1406323D3*
X1803399Y1287583D3*
X1922139D3*
X1467639Y2891161D3*
X1833060Y4707098D3*
X4325068Y5276567D3*
X2703147Y5641484D3*
X2564230Y2473496D3*
X2679808Y2060567D3*
X4445761Y3025539D3*
X4468801Y1721398D3*
Y1508169D3*
X2939178D3*
X5090442Y3497472D3*
X4409430Y1401555D3*
Y1602657D3*
X4212997Y1993217D3*
X4255210Y4788685D3*
X4124659Y2052587D3*
X3728978Y2998339D3*
X4175218D3*
X4373950Y3057709D3*
X4094257Y1933846D3*
X4124659Y2906799D3*
X1744029Y1774669D3*
X2092446D3*
X2186930Y2607000D3*
X3289230D3*
X3522415Y3937449D3*
X3773895Y4131449D3*
Y4505051D3*
X3141155D3*
X3007966D3*
X2493360Y4635917D3*
X2491769Y5204835D3*
X5073990Y5326594D3*
X3521860Y756461D3*
X5197060Y768276D3*
X2777659Y886705D3*
X3003013Y815839D3*
X5366356Y4775228D3*
X4738442Y5003728D3*
X3179808Y2052587D3*
X3719501Y4991606D3*
X2989738Y1448799D3*
X3579808D3*
X1642139Y1334827D3*
X3581230Y614098D3*
X3449391Y4319327D3*
X2819726Y3898079D3*
Y2488260D3*
X3679808Y1886602D3*
X3779808Y1448799D3*
X4188745D3*
X3986423Y2820232D3*
X2742340D3*
X2623600D3*
X1539135Y2903850D3*
X1161513Y3247315D3*
Y827331D3*
X2718289Y827335D3*
X2837029Y1162732D3*
X3640600Y1276563D3*
X5003407Y2781894D3*
X3489175Y3297323D3*
Y2607000D3*
X2151812Y2678496D3*
X2026450Y3890201D3*
X2739178Y1839358D3*
X8016042Y6114381D3*
X8013483Y6365089D3*
X6795605Y2374156D3*
X7698420Y2383467D3*
X8202428Y4614971D3*
X6835617Y3014314D3*
Y3114841D3*
X7192534D3*
Y2951814D3*
X7814554D3*
X6835617Y2892444D3*
X7914554D3*
X6359873Y3944845D3*
X7873924Y3136495D3*
X6671526Y3174211D3*
X6293589Y5904719D3*
Y6325963D3*
X7038936Y5591538D3*
X7061932Y4639546D3*
X7428310D3*
X6909007Y4080329D3*
X6241133Y4253176D3*
X8457991Y4743239D3*
Y4253176D3*
X9332727Y2708420D3*
Y6365089D3*
X8997444D3*
X7235751Y4389944D3*
X6920199Y5191534D3*
Y4312546D3*
X8822715D3*
X8731798Y4449314D3*
X7135751D3*
X8133290Y3834719D3*
X7808207D3*
X7425585Y3483739D3*
X8133290D3*
D17*
X5936850Y4620312D3*
D18*
Y4720312D3*
Y4820312D3*
D19*
X5013911Y7160239D3*
D20*
Y6963388D3*
D19*
X5861843Y3626458D3*
D20*
Y3429608D3*
D21*
X4436295Y7335257D3*
D22*
X4286295D3*
X4136295D3*
D17*
X9833778Y6205719D3*
D18*
Y6305719D3*
Y6405719D3*
D23*
X7714552Y3055469D3*
D24*
X7814552D3*
X7914552D3*
X8014552D3*
X8114552D3*
X8214552D3*
X8314552D3*
X8414552D3*
Y3355469D3*
X8314552D3*
X8214552D3*
X8114552D3*
X8014552D3*
X7914552D3*
X7814552D3*
X7714552D3*
D17*
X5924349Y5189122D3*
D18*
Y5289122D3*
Y5389122D3*
D17*
X9187192Y3007643D3*
D18*
X9087192D3*
X8987192D3*
D17*
X9799756D3*
D18*
X9699756D3*
X9599756D3*
D17*
X5013911Y4953757D3*
D18*
Y5053757D3*
Y5153757D3*
Y5253757D3*
D17*
X5017606Y3691416D3*
D18*
Y3791416D3*
Y3891416D3*
D17*
X5897093Y2933072D3*
D18*
Y2833072D3*
Y2733072D3*
Y2633072D3*
D17*
X7261990Y2307570D3*
D25*
X7161990D3*
X7061990D3*
D17*
X5013911Y4259934D3*
D18*
Y4359934D3*
Y4459934D3*
Y4559934D3*
D17*
X5017606Y3078852D3*
D18*
Y3178852D3*
Y3278852D3*
D17*
X3829982Y1122105D3*
D18*
Y1222105D3*
X3929982Y1122105D3*
Y1222105D3*
X4029982Y1122105D3*
Y1222105D3*
X4129982Y1122105D3*
Y1222105D3*
X4229982Y1122105D3*
Y1222105D3*
D17*
X6061604Y6104719D3*
D18*
Y6004719D3*
Y5904719D3*
D17*
X1785978Y7335177D3*
D18*
X1885978D3*
X1985978D3*
X2085978D3*
X2185978D3*
X2285978D3*
X2385978D3*
X2485978D3*
D17*
X9562274Y4082285D3*
D18*
X9662274D3*
X9762274D3*
X9862274D3*
X9962274D3*
X10062274D3*
X10162274D3*
X10262274D3*
D17*
X2486091Y5728839D3*
D18*
X2386091D3*
X2286091D3*
X2186091D3*
X2086091D3*
X1986091D3*
X1886091D3*
X1786091D3*
D17*
X9562274Y5716143D3*
D18*
X9662274D3*
X9762274D3*
X9862274D3*
X9962274D3*
X10062274D3*
X10162274D3*
X10262274D3*
D17*
X2861026Y7331024D3*
D18*
X2961026D3*
X3061026D3*
X3161026D3*
X3261026D3*
X3361026D3*
X3461026D3*
X3561026D3*
D17*
X3561203Y5722588D3*
D18*
X3461203D3*
X3361203D3*
X3261203D3*
X3161203D3*
X3061203D3*
X2961203D3*
X2861203D3*
D26*
X1329615Y4236949D3*
X1219379D3*
X920715Y4018176D3*
X1030951D3*
D27*
X6561916Y2926385D3*
Y3036621D3*
D23*
X4098760Y6585178D3*
D24*
X4496398D3*
D26*
X920715Y3768150D3*
X1030951D3*
D17*
X2304822Y1122105D3*
D18*
Y1222105D3*
X2404822Y1122105D3*
Y1222105D3*
X2504822Y1122105D3*
Y1222105D3*
X2604822Y1122105D3*
Y1222105D3*
X2704822Y1122105D3*
Y1222105D3*
D23*
X929573Y5987133D3*
D24*
X1079573D3*
D23*
X929573Y5687133D3*
D24*
X1079573D3*
D23*
X942075Y5343315D3*
D24*
X1092075D3*
D23*
X942075Y5043315D3*
D24*
X1092075D3*
D19*
X5013911Y6297648D3*
D20*
Y6494499D3*
D19*
Y5666332D3*
D20*
Y5863182D3*
D17*
X5017606Y2290978D3*
D18*
Y2390978D3*
Y2490978D3*
Y2590978D3*
D17*
Y1622157D3*
D18*
Y1722157D3*
Y1822157D3*
D17*
X1542138Y1155375D3*
D18*
X1642138D3*
X1742138D3*
X1842138D3*
X1942138D3*
X2042138D3*
D23*
X10107344Y5026711D3*
D24*
Y4629073D3*
D17*
X8826337Y2320976D3*
D25*
X8726337D3*
X8626337D3*
D17*
X9273357Y2617554D3*
D25*
X9173357D3*
X9073357D3*
D28*
X910822Y1936707D3*
D29*
Y2035133D3*
Y2113873D3*
Y2212298D3*
D30*
X1017121Y1815841D3*
Y2333164D3*
D31*
X2648545Y2302315D3*
D32*
X2748545D3*
X2848545D3*
X2948545D3*
X3048545D3*
X3148545D3*
X3248545D3*
X3348545D3*
X3448545D3*
X3548545D3*
Y2402315D3*
X3448545D3*
X3348545D3*
X3248545D3*
X3148545D3*
X3048545D3*
X2948545D3*
X2848545D3*
X2748545D3*
X2648545D3*
D31*
X2648596Y4028667D3*
D32*
X2748596D3*
X2848596D3*
X2948596D3*
X3048596D3*
X3148596D3*
X3248596D3*
X3348596D3*
X3448596D3*
X3548596D3*
Y4128667D3*
X3448596D3*
X3348596D3*
X3248596D3*
X3148596D3*
X3048596D3*
X2948596D3*
X2848596D3*
X2748596D3*
X2648596D3*
D33*
X2561098Y5366301D3*
X2326098Y5286301D3*
X2796098D3*
Y4806301D3*
X2326098D3*
X3461193Y5366387D3*
X3226193Y5286387D3*
X3696193D3*
Y4806387D3*
X3226193D3*
D17*
X6551445Y4753127D3*
D18*
Y4853127D3*
Y4953127D3*
Y5053127D3*
Y5153127D3*
Y5253127D3*
Y5353127D3*
Y5453127D3*
Y5553127D3*
Y5653127D3*
Y5753127D3*
Y5853127D3*
Y5953127D3*
Y6053127D3*
Y6153127D3*
Y6253127D3*
D17*
X8367301Y5774096D3*
D18*
Y5674096D3*
Y5574096D3*
Y5474096D3*
Y5374096D3*
Y5274096D3*
D17*
X7883836Y5774096D3*
D18*
Y5674096D3*
Y5574096D3*
Y5474096D3*
Y5374096D3*
Y5274096D3*
D26*
X1110843Y6374673D3*
X1221079D3*
D17*
X9801264Y7012714D3*
D18*
X9901264D3*
X10001264D3*
X10101264D3*
D17*
X9602617Y7025845D3*
D18*
X9502617D3*
X9402617D3*
X9302617D3*
D17*
X4536312Y3197472D3*
D18*
Y3297472D3*
Y3397472D3*
Y3497472D3*
Y3597472D3*
Y3697472D3*
D17*
X3992454Y3697323D3*
D18*
Y3597323D3*
Y3497323D3*
Y3397323D3*
Y3297323D3*
Y3197323D3*
D17*
X4536312Y4703727D3*
D18*
Y4803727D3*
Y4903727D3*
Y5003727D3*
Y5103727D3*
Y5203727D3*
D17*
X3992454Y5203731D3*
D18*
Y5103731D3*
Y5003731D3*
Y4903731D3*
Y4803731D3*
Y4703731D3*
D17*
X2183360Y3647286D3*
D18*
Y3547286D3*
Y3447286D3*
Y3347286D3*
Y3247286D3*
Y3147286D3*
D17*
X1636115Y3147318D3*
D18*
Y3247318D3*
Y3347318D3*
Y3447318D3*
Y3547318D3*
Y3647318D3*
D17*
X2183360Y4503710D3*
D18*
Y4403710D3*
Y4303710D3*
Y4203710D3*
Y4103710D3*
Y4003710D3*
D17*
X1636115Y4003576D3*
D18*
Y4103576D3*
Y4203576D3*
Y4303576D3*
Y4403576D3*
Y4503576D3*
D17*
X4536312Y4459955D3*
D18*
Y4359955D3*
Y4259955D3*
Y4159955D3*
Y4059955D3*
Y3959955D3*
D17*
X3992454D3*
D18*
Y4059955D3*
Y4159955D3*
Y4259955D3*
Y4359955D3*
Y4459955D3*
D17*
X4536312Y5441361D3*
D18*
Y5541361D3*
Y5641361D3*
Y5741361D3*
Y5841361D3*
Y5941361D3*
D17*
X3992454Y5941486D3*
D18*
Y5841486D3*
Y5741486D3*
Y5641486D3*
Y5541486D3*
Y5441486D3*
D17*
X8065577Y2310631D3*
D18*
X7965577D3*
X7865577D3*
D17*
X8446075Y2648589D3*
D25*
X8346075D3*
X8246075D3*
D17*
X7786787Y6887836D3*
D18*
Y6787836D3*
Y6687836D3*
Y6587836D3*
Y6487836D3*
Y6387836D3*
D17*
X7303323Y6887846D3*
D18*
Y6787846D3*
Y6687846D3*
Y6587846D3*
Y6487846D3*
Y6387846D3*
D17*
X1373370Y6774715D3*
D18*
Y6874715D3*
Y6974715D3*
X1573370Y6774715D3*
Y6874715D3*
Y6974715D3*
D23*
X4511303Y2778529D3*
D24*
Y2678529D3*
Y2578529D3*
Y2478529D3*
Y2378529D3*
Y2278529D3*
Y2178529D3*
X4211303D3*
Y2278529D3*
Y2378529D3*
Y2478529D3*
Y2578529D3*
Y2678529D3*
Y2778529D3*
D23*
X2023542Y2703521D3*
D24*
Y2603521D3*
Y2503521D3*
Y2403521D3*
Y2303521D3*
Y2203521D3*
Y2103521D3*
X1723542D3*
Y2203521D3*
Y2303521D3*
Y2403521D3*
Y2503521D3*
Y2603521D3*
Y2703521D3*
D17*
X4555058Y1122105D3*
D18*
Y1222105D3*
X4655058Y1122105D3*
Y1222105D3*
X4755058Y1122105D3*
Y1222105D3*
X4855058Y1122105D3*
Y1222105D3*
X4955058Y1122105D3*
Y1222105D3*
D17*
X3061151Y1115854D3*
D18*
Y1215854D3*
X3161151Y1115854D3*
Y1215854D3*
X3261151Y1115854D3*
Y1215854D3*
X3361151Y1115854D3*
Y1215854D3*
X3461151Y1115854D3*
Y1215854D3*
D17*
X829563Y6787217D3*
D18*
Y6887217D3*
Y6987217D3*
X1029563Y6787217D3*
Y6887217D3*
Y6987217D3*
D17*
X6624423Y2301319D3*
D18*
X6724423D3*
D34*
X9699787Y3750724D3*
X9749787Y3800724D3*
X9799787Y3750724D3*
D27*
X6748685Y3065178D3*
Y2954942D3*
D35*
X9457073Y3763416D3*
D36*
X9157073D3*
D26*
X1538495Y6374673D3*
X1648731D3*
D31*
X2179808Y1653411D3*
D32*
X2279808D3*
X2379808D3*
X2479808D3*
X2579808D3*
X2679808D3*
X2779808D3*
X2879808D3*
X2979808D3*
X3079808D3*
X3179808D3*
X3279808D3*
X3379808D3*
X3479808D3*
X3579808D3*
X3679808D3*
X3779808D3*
X3879808D3*
X3979808D3*
X4079808D3*
Y1753411D3*
X3979808D3*
X3879808D3*
X3779808D3*
X3679808D3*
X3579808D3*
X3479808D3*
X3379808D3*
X3279808D3*
X3179808D3*
X3079808D3*
X2979808D3*
X2879808D3*
X2779808D3*
X2679808D3*
X2579808D3*
X2479808D3*
X2379808D3*
X2279808D3*
X2179808D3*
D17*
X9701626Y2310631D3*
D25*
X9601626D3*
D18*
X9501626D3*
D17*
X10166287D3*
D25*
X10066287D3*
D18*
X9966287D3*
D17*
X7121038Y3680329D3*
D18*
Y3780329D3*
Y3880329D3*
Y3980329D3*
Y4080329D3*
Y4180329D3*
D17*
X7604501Y3680339D3*
D18*
Y3780339D3*
Y3880339D3*
Y3980339D3*
Y4080339D3*
Y4180339D3*
D17*
X6016824Y6828699D3*
D18*
Y6728699D3*
Y6628699D3*
X6216824Y6828699D3*
Y6728699D3*
Y6628699D3*
D31*
X7135749Y5991537D3*
D32*
Y5891537D3*
Y5791537D3*
Y5691537D3*
Y5591537D3*
Y5491537D3*
Y5391537D3*
Y5291537D3*
Y5191537D3*
Y5091537D3*
X7235749D3*
Y5191537D3*
Y5291537D3*
Y5391537D3*
Y5491537D3*
Y5591537D3*
Y5691537D3*
Y5791537D3*
Y5891537D3*
Y5991537D3*
D31*
X8835749Y5993316D3*
D32*
Y5893316D3*
Y5793316D3*
Y5693316D3*
Y5593316D3*
Y5493316D3*
Y5393316D3*
Y5293316D3*
Y5193316D3*
Y5093316D3*
X8935749D3*
Y5193316D3*
Y5293316D3*
Y5393316D3*
Y5493316D3*
Y5593316D3*
Y5693316D3*
Y5793316D3*
Y5893316D3*
Y5993316D3*
D17*
X8325783Y4175348D3*
D18*
Y4075348D3*
Y3975348D3*
Y3875348D3*
Y3775348D3*
Y3675348D3*
D17*
X8809249Y4175358D3*
D18*
Y4075358D3*
Y3975358D3*
Y3875358D3*
Y3775358D3*
Y3675358D3*
D17*
X6278004Y2310631D3*
D18*
X6178004D3*
X6078004D3*
X5978004D3*
D17*
X7625583Y2638243D3*
D25*
X7525583D3*
X7425583D3*
D23*
X2004790Y5510066D3*
D24*
Y5410066D3*
Y5310066D3*
Y5210066D3*
Y5110066D3*
Y5010066D3*
Y4910066D3*
Y4810066D3*
X1704790D3*
Y4910066D3*
Y5010066D3*
Y5110066D3*
Y5210066D3*
Y5310066D3*
Y5410066D3*
Y5510066D3*
D23*
X8205450Y6884390D3*
D24*
X8305450D3*
X8405450D3*
X8505450D3*
X8605450D3*
X8705450D3*
X8805450D3*
X8905450D3*
Y6584390D3*
X8805450D3*
X8705450D3*
X8605450D3*
X8505450D3*
X8405450D3*
X8305450D3*
X8205450D3*
D23*
X9754068Y4614971D3*
D24*
Y5012609D3*
D26*
X1223354Y4536980D3*
X1333591D3*
D35*
X6861948Y1338718D3*
D38*
X6761948D3*
D35*
X6593169Y1044936D3*
D39*
X6493169D3*
D35*
X6580667Y1332466D3*
D39*
X6480667D3*
D35*
X6886950Y1032436D3*
D39*
X6786950D3*
D17*
X5970379Y1063688D3*
D18*
Y1163688D3*
Y1263688D3*
D40*
X6801717Y776157D3*
X6201717D3*
D26*
X6207904Y1219954D3*
X6318140D3*
X6188013Y1318827D3*
X6298249D3*
X6201654Y1088692D3*
X6311890D3*
X6201654Y957428D3*
X6311890D3*
D35*
X8480867Y1332467D3*
D39*
X8380867D3*
D35*
X8212089Y1038685D3*
D39*
X8112089D3*
D35*
X8199587Y1326215D3*
D39*
X8099587D3*
D35*
X8505870Y1026185D3*
D39*
X8405870D3*
D17*
X7583049Y1057437D3*
D18*
Y1157437D3*
Y1257437D3*
D40*
X8420636Y769907D3*
X7820636D3*
D26*
X7820573Y1207453D3*
X7930810D3*
X7808072Y1357469D3*
X7918308D3*
X7820573Y1082441D3*
X7930810D3*
X7820573Y951177D3*
X7930810D3*
D35*
X10087286Y1313715D3*
D39*
X9987286D3*
D35*
X9818508Y1019933D3*
D39*
X9718508D3*
D35*
X9806005Y1307463D3*
D39*
X9706005D3*
D35*
X10112289Y1007433D3*
D39*
X10012289D3*
D17*
X9189467Y1038685D3*
D18*
Y1138685D3*
Y1238685D3*
D40*
X10027055Y751155D3*
X9427055D3*
D26*
X9433243Y1194951D3*
X9543479D3*
X9414491Y1344967D3*
X9524727D3*
X9426992Y1063689D3*
X9537228D3*
X9426992Y932425D3*
X9537228D3*
D19*
X942075Y4355711D3*
D20*
Y4552562D3*
M02*
