G04 DipTrace 3.0.0.1*
G04 TopSilk.gbr*
%MOIN*%
G04 #@! TF.FileFunction,Legend,Top*
G04 #@! TF.Part,Single*
%ADD10C,0.009843*%
%ADD15C,0.03937*%
%ADD37C,0.001312*%
%ADD100C,0.00772*%
%ADD101C,0.015439*%
%ADD102C,0.012351*%
%ADD103C,0.009264*%
%FSLAX26Y26*%
G04*
G70*
G90*
G75*
G01*
G04 TopSilk*
%LPD*%
X5886845Y4570331D2*
D10*
X5986850D1*
Y4870293D1*
X5886845D1*
Y4570331D1*
X5074934Y7258664D2*
X4952887D1*
Y6864963D1*
X5074934D1*
Y7258664D1*
X5922866Y3724883D2*
X5800819D1*
Y3331182D1*
X5922866D1*
Y3724883D1*
X4511295Y7280139D2*
X4061295D1*
Y7390375D1*
X4511295D1*
Y7280139D1*
X9783773Y6155738D2*
X9883778D1*
Y6455700D1*
X9783773D1*
Y6155738D1*
X7662978Y3307835D2*
X8466127D1*
Y3103102D2*
Y3307835D1*
X7662978Y3103102D2*
X8466127D1*
X7662978D2*
Y3181843D1*
Y3307835D2*
Y3229094D1*
Y3181843D2*
G03X7662978Y3229094I-13J23626D01*
G01*
X5874344Y5139141D2*
X5974349D1*
Y5439103D1*
X5874344D1*
Y5139141D1*
X9237173Y2957638D2*
X8937210D1*
Y3057643D1*
X9237173D1*
Y2957638D1*
X9849737D2*
X9549775D1*
Y3057643D1*
X9849737D1*
Y2957638D1*
X4963906Y4903740D2*
X5063911D1*
Y5303775D1*
X4963906D1*
Y4903740D1*
X4967601Y3641435D2*
X5067606D1*
Y3941397D1*
X4967601D1*
Y3641435D1*
X5947098Y2983090D2*
X5847093D1*
Y2583055D1*
X5947098D1*
Y2983090D1*
X7311971Y2257565D2*
X7012008D1*
Y2357570D1*
X7311971D1*
Y2257565D1*
X4963906Y4209917D2*
X5063911D1*
Y4609952D1*
X4963906D1*
Y4209917D1*
X4967601Y3028871D2*
X5067606D1*
Y3328833D1*
X4967601D1*
Y3028871D1*
X3779982Y1272105D2*
X4279982D1*
Y1072105D1*
X3779982D1*
Y1272105D1*
X6111609Y6154700D2*
X6011604D1*
Y5854738D1*
X6111609D1*
Y6154700D1*
X1736014Y7385179D2*
X2535941D1*
Y7285177D1*
X1736014D1*
Y7385179D1*
X9512311Y4132286D2*
X10312238D1*
Y4032285D1*
X9512311D1*
Y4132286D1*
X2536054Y5678837D2*
X1736127D1*
Y5778839D1*
X2536054D1*
Y5678837D1*
X9512311Y5766145D2*
X10312238D1*
Y5666143D1*
X9512311D1*
Y5766145D1*
X2811063Y7381025D2*
X3610990D1*
Y7281024D1*
X2811063D1*
Y7381025D1*
X3611167Y5672586D2*
X2811240D1*
Y5772588D1*
X3611167D1*
Y5672586D1*
X1286277Y4205484D2*
X1262718D1*
X1286277Y4268413D2*
X1262718D1*
X1278863D2*
Y4205484D1*
X1286312Y4268413D2*
Y4205484D1*
X964054Y4049640D2*
X987613D1*
X964054Y3986711D2*
X987613D1*
X971468D2*
Y4049640D1*
X964019Y3986711D2*
Y4049640D1*
X6530451Y2969723D2*
Y2993282D1*
X6593381Y2969723D2*
Y2993282D1*
Y2977137D2*
X6530451D1*
X6593381Y2969688D2*
X6530451D1*
X4197106Y6539903D2*
Y6630454D1*
X4398051D1*
X4230491Y6539903D2*
Y6630454D1*
X4398051Y6539903D2*
Y6630454D1*
X4197106Y6539903D2*
X4398051D1*
X964054Y3799614D2*
X987613D1*
X964054Y3736685D2*
X987613D1*
X971468D2*
Y3799614D1*
X964019Y3736685D2*
Y3799614D1*
X2254822Y1272105D2*
X2754822D1*
Y1072105D1*
X2254822D1*
Y1272105D1*
X873323Y6043383D2*
X1148323D1*
Y5630883D1*
X873323D1*
Y6043383D1*
X885824Y5399565D2*
X1160824D1*
Y4987065D1*
X885824D1*
Y5399565D1*
X4952887Y6199223D2*
X5074934D1*
Y6592924D1*
X4952887D1*
Y6199223D1*
Y5567907D2*
X5074934D1*
Y5961608D1*
X4952887D1*
Y5567907D1*
X4967601Y2240960D2*
X5067606D1*
Y2640995D1*
X4967601D1*
Y2240960D1*
Y1572176D2*
X5067606D1*
Y1872139D1*
X4967601D1*
Y1572176D1*
X1492165Y1205377D2*
X2092110D1*
Y1105375D1*
X1492165D1*
Y1205377D1*
X10062068Y4928365D2*
X10152619D1*
Y4727420D1*
X10062068Y4894981D2*
X10152619D1*
X10062068Y4727420D2*
X10152619D1*
X10062068Y4928365D2*
Y4727420D1*
X8876318Y2270971D2*
X8576356D1*
Y2370976D1*
X8876318D1*
Y2270971D1*
X9323338Y2567549D2*
X9023376D1*
Y2667554D1*
X9323338D1*
Y2567549D1*
X1422633Y1802834D2*
Y2346171D1*
Y1802834D2*
X1095892D1*
X1422633Y2346171D2*
X1095836D1*
X938357Y1802834D2*
X861609D1*
Y2346171D1*
X938357D1*
X2596970Y2453890D2*
X3600119D1*
Y2250740D1*
X2596970D1*
Y2453890D1*
X2597021Y4180241D2*
X3600171D1*
Y3977092D1*
X2597021D1*
Y4180241D1*
X2886098Y5466301D2*
Y4576301D1*
X2236098D2*
X2886098D1*
X2236098D2*
Y5466301D1*
X2886098D2*
X2236098D1*
X2796073Y5191291D2*
Y5166282D1*
X2586123D1*
Y5216300D1*
X2561098D1*
X2536073D1*
Y5116264D2*
X2586123D1*
Y5166282D1*
X2536073Y5216300D2*
Y5166282D1*
X2326123D1*
X2536073D2*
Y5116264D1*
X2326123Y5166282D2*
Y5191291D1*
X2536073Y5216300D2*
X2586123Y5116264D1*
X2561098Y5091344D2*
Y4831286D1*
X2586123Y4806277D1*
X2708128D2*
X2586123D1*
X2536073D2*
X2413093D1*
X2586123D2*
X2598083Y4793283D1*
X2561098Y5281270D2*
Y5241309D1*
X3786193Y5466387D2*
Y4576387D1*
X3136193D2*
X3786193D1*
X3136193D2*
Y5466387D1*
X3786193D2*
X3136193D1*
X3696168Y5191377D2*
Y5166368D1*
X3486218D1*
Y5216386D1*
X3461193D1*
X3436168D1*
Y5116350D2*
X3486218D1*
Y5166368D1*
X3436168Y5216386D2*
Y5166368D1*
X3226218D1*
X3436168D2*
Y5116350D1*
X3226218Y5166368D2*
Y5191377D1*
X3436168Y5216386D2*
X3486218Y5116350D1*
X3461193Y5091430D2*
Y4831372D1*
X3486218Y4806363D1*
X3608223D2*
X3486218D1*
X3436168D2*
X3313188D1*
X3486218D2*
X3498178Y4793369D1*
X3461193Y5281356D2*
Y5241395D1*
X6501443Y4703200D2*
X6601445D1*
Y6303054D1*
X6501443D1*
Y4703200D1*
X1154181Y6406138D2*
X1177740D1*
X1154181Y6343209D2*
X1177740D1*
X1161595D2*
Y6406138D1*
X1154146Y6343209D2*
Y6406138D1*
X9751246Y7062719D2*
X10151281D1*
Y6962714D1*
X9751246D1*
Y7062719D1*
X9652634Y6975840D2*
X9252599D1*
Y7075845D1*
X9652634D1*
Y6975840D1*
X8115559Y2260626D2*
X7815596D1*
Y2360631D1*
X8115559D1*
Y2260626D1*
X8496056Y2598584D2*
X8196094D1*
Y2698589D1*
X8496056D1*
Y2598584D1*
X1323370Y6724716D2*
X1623370D1*
Y7018465D1*
X1323370D1*
Y6724716D1*
X4505058Y1272105D2*
X5005058D1*
Y1072105D1*
X4505058D1*
Y1272105D1*
X3011151Y1265854D2*
X3511151D1*
Y1065854D1*
X3011151D1*
Y1265854D1*
X779563Y6737217D2*
X1079563D1*
Y7030967D1*
X779563D1*
Y6737217D1*
X6574411Y2351324D2*
X6774435D1*
Y2251319D1*
X6574411D1*
Y2351324D1*
X9834564Y3673822D2*
X9854255Y3654133D1*
X9814874D2*
X9834564Y3634445D1*
X9854255Y3654133D1*
X9635791Y3750769D2*
G02X9635791Y3750769I113949J0D01*
G01*
X6717220Y3021840D2*
Y2998281D1*
X6780150Y3021840D2*
Y2998281D1*
X9387223Y3733416D2*
Y3793416D1*
X9226923Y3733416D2*
X9387223D1*
X9226923D2*
Y3793416D1*
X9387223D1*
X1581833Y6343209D2*
X1605392D1*
X1581833Y6406138D2*
X1605392D1*
X2128234Y1804986D2*
X4131383D1*
Y1601836D1*
X2128234D1*
Y1804986D1*
X9751607Y2260626D2*
X9451645D1*
Y2360631D1*
X9751607D1*
Y2260626D1*
X10216269D2*
X9916306D1*
Y2360631D1*
X10216269D1*
Y2260626D1*
X7071036Y3630357D2*
X7171038D1*
Y4230302D1*
X7071036D1*
Y3630357D1*
X7554500Y3630366D2*
X7654501D1*
Y4230311D1*
X7554500D1*
Y3630366D1*
X5966824Y6878699D2*
X6266824D1*
Y6584949D1*
X5966824D1*
Y6878699D1*
X7287324Y6043112D2*
X7084175D1*
Y5039962D1*
X7287324D1*
Y6043112D1*
X8987324Y6044891D2*
X8784175D1*
Y5041741D1*
X8987324D1*
Y6044891D1*
X8375785Y4225320D2*
X8275783D1*
Y3625375D1*
X8375785D1*
Y4225320D1*
X8859251Y4225331D2*
X8759249D1*
Y3625386D1*
X8859251D1*
Y4225331D1*
X6328022Y2260626D2*
X5927986D1*
Y2360631D1*
X6328022D1*
Y2260626D1*
X7675564Y2588238D2*
X7375602D1*
Y2688243D1*
X7675564D1*
Y2588238D1*
X4139389Y7263375D2*
D37*
X4439423D1*
Y7044597D1*
X4139389D1*
Y7263375D1*
X4145637Y7250853D2*
Y6919587D1*
X4151885Y6913347D2*
X4239390Y6850821D1*
X4439423Y7250853D2*
X4445671Y6907107D1*
Y6988353D2*
X4151885D1*
X4251887Y6844581D2*
X4358166D1*
X4445671Y6913347D1*
X9727873Y6448629D2*
X9509095D1*
Y6148595D1*
X9727873D1*
Y6448629D1*
X9715351Y6442381D2*
X9384085D1*
X9377845Y6436133D2*
X9315319Y6348628D1*
X9715351Y6148595D2*
X9371605Y6142347D1*
X9452851D2*
Y6436133D1*
X9309079Y6336132D2*
Y6229852D1*
X9377845Y6142347D1*
X9799344Y4713318D2*
D10*
X9708793D1*
Y4914262D1*
X9799344Y4746702D2*
X9708793D1*
X9799344Y4914262D2*
X9708793D1*
X9799344Y4713318D2*
Y4914262D1*
X1266693Y4505516D2*
X1290252D1*
X1266693Y4568445D2*
X1290252D1*
X6002482Y4554680D2*
D37*
X6221260D1*
Y4854714D1*
X6002482D1*
Y4554680D1*
X6015004Y4560929D2*
X6346270D1*
X6352510Y4567177D2*
X6415036Y4654682D1*
X6015004Y4854714D2*
X6358750Y4860963D1*
X6277504D2*
Y4567177D1*
X6421276Y4667178D2*
Y4773458D1*
X6352510Y4860963D1*
X5996232Y5129741D2*
X6215010D1*
Y5429775D1*
X5996232D1*
Y5129741D1*
X6008754Y5135989D2*
X6340020D1*
X6346260Y5142237D2*
X6408786Y5229742D1*
X6008754Y5429775D2*
X6352500Y5436023D1*
X6271254D2*
Y5142237D1*
X6415026Y5242238D2*
Y5348518D1*
X6346260Y5436023D1*
X9221570Y3054523D2*
X8921536D1*
Y3273301D1*
X9221570D1*
Y3054523D1*
X9215322Y3067045D2*
Y3398311D1*
X9209074Y3404551D2*
X9121569Y3467077D1*
X8921536Y3067045D2*
X8915288Y3410791D1*
Y3329545D2*
X9209074D1*
X9109073Y3473317D2*
X9002793D1*
X8915288Y3404551D1*
X9852886Y3079526D2*
X9552852D1*
Y3298304D1*
X9852886D1*
Y3079526D1*
X9846638Y3092048D2*
Y3423314D1*
X9840390Y3429554D2*
X9752885Y3492080D1*
X9552852Y3092048D2*
X9546604Y3435794D1*
Y3354548D2*
X9840390D1*
X9740389Y3498320D2*
X9634109D1*
X9546604Y3429554D1*
X6711954Y1263780D2*
D10*
Y1413656D1*
X6712179Y1263480D2*
G03X6712179Y1413956I99796J75238D01*
G01*
X6443176Y969998D2*
Y1119873D1*
X6443401Y969698D2*
G03X6443401Y1120173I99796J75238D01*
G01*
X6430673Y1257528D2*
Y1407404D1*
X6430898Y1257228D2*
G03X6430898Y1407704I99796J75238D01*
G01*
X6736957Y957498D2*
Y1107373D1*
X6737182Y957198D2*
G03X6737182Y1107673I99796J75238D01*
G01*
X5920374Y1013707D2*
X6020379D1*
Y1313669D1*
X5920374D1*
Y1013707D1*
X6251243Y1188490D2*
X6274802D1*
X6251243Y1251419D2*
X6274802D1*
X6231352Y1287362D2*
X6254911D1*
X6231352Y1350291D2*
X6254911D1*
X6244992Y1057227D2*
X6268551D1*
X6244992Y1120156D2*
X6268551D1*
X6244992Y925963D2*
X6268551D1*
X6244992Y988892D2*
X6268551D1*
X8330874Y1257529D2*
Y1407405D1*
X8331099Y1257229D2*
G03X8331099Y1407705I99796J75238D01*
G01*
X8062096Y963747D2*
Y1113623D1*
X8062321Y963447D2*
G03X8062321Y1113923I99796J75238D01*
G01*
X8049593Y1251277D2*
Y1401153D1*
X8049818Y1250977D2*
G03X8049818Y1401453I99796J75238D01*
G01*
X8355877Y951247D2*
Y1101123D1*
X8356102Y950947D2*
G03X8356102Y1101423I99796J75238D01*
G01*
X7533044Y1007456D2*
X7633049D1*
Y1307418D1*
X7533044D1*
Y1007456D1*
X7863912Y1175988D2*
X7887471D1*
X7863912Y1238917D2*
X7887471D1*
X7851411Y1326004D2*
X7874970D1*
X7851411Y1388933D2*
X7874970D1*
X7863912Y1050976D2*
X7887471D1*
X7863912Y1113906D2*
X7887471D1*
X7863912Y919713D2*
X7887471D1*
X7863912Y982642D2*
X7887471D1*
X9937293Y1238777D2*
Y1388653D1*
X9937518Y1238477D2*
G03X9937518Y1388953I99796J75238D01*
G01*
X9668514Y944995D2*
Y1094871D1*
X9668739Y944695D2*
G03X9668739Y1095171I99796J75238D01*
G01*
X9656012Y1232525D2*
Y1382401D1*
X9656237Y1232226D2*
G03X9656237Y1382701I99796J75238D01*
G01*
X9962295Y932495D2*
Y1082371D1*
X9962520Y932195D2*
G03X9962520Y1082671I99796J75238D01*
G01*
X9139462Y988704D2*
X9239467D1*
Y1288666D1*
X9139462D1*
Y988704D1*
X9476581Y1163487D2*
X9500140D1*
X9476581Y1226416D2*
X9500140D1*
X9457829Y1313503D2*
X9481388D1*
X9457829Y1376432D2*
X9481388D1*
X9470331Y1032224D2*
X9493890D1*
X9470331Y1095154D2*
X9493890D1*
X9470331Y900961D2*
X9493890D1*
X9470331Y963890D2*
X9493890D1*
X881051Y4257286D2*
X1003098D1*
Y4650987D1*
X881051D1*
Y4257286D1*
X3373684Y3347339D2*
D15*
X2904885Y3341088D1*
X2892383D2*
X3011146Y3434848D1*
X2036043Y1703416D2*
X1723510D1*
X3023647Y3241077D2*
X2898634Y3334837D1*
X1711009Y1697165D2*
X1804769Y1784675D1*
Y1622157D2*
X1717260Y1697165D1*
X5625500Y7600707D2*
X5630568Y1738760D1*
X5625500Y1825101D2*
X10568587Y1826269D1*
X5630568Y1788765D2*
X5626001Y464531D1*
X7318245Y1801266D2*
X7319929Y439529D1*
X8857089Y1800098D2*
X8857591Y439529D1*
X5813867Y4640972D2*
D100*
X5763683Y4664904D1*
Y4631410D1*
Y4692281D2*
X5766059Y4685151D1*
X5770812Y4682720D1*
X5775621D1*
X5780374Y4685151D1*
X5782806Y4689905D1*
X5785182Y4699466D1*
X5787559Y4706651D1*
X5792368Y4711404D1*
X5797121Y4713781D1*
X5804306D1*
X5809059Y4711404D1*
X5811491Y4709028D1*
X5813867Y4701843D1*
Y4692281D1*
X5811491Y4685151D1*
X5809059Y4682720D1*
X5804306Y4680343D1*
X5797121D1*
X5792368Y4682720D1*
X5787559Y4687528D1*
X5785182Y4694658D1*
X5782806Y4704219D1*
X5780374Y4709028D1*
X5775621Y4711404D1*
X5770812D1*
X5766059Y4709028D1*
X5763683Y4701843D1*
Y4692281D1*
Y4743590D2*
X5766059Y4736405D1*
X5773244Y4731597D1*
X5785182Y4729220D1*
X5792368D1*
X5804306Y4731597D1*
X5811491Y4736405D1*
X5813867Y4743590D1*
Y4748344D1*
X5811491Y4755529D1*
X5804306Y4760282D1*
X5792368Y4762714D1*
X5785182D1*
X5773244Y4760282D1*
X5766059Y4755529D1*
X5763683Y4748344D1*
Y4743590D1*
X5773244Y4760282D2*
X5804306Y4731597D1*
X5770812Y4806838D2*
X5766059Y4804461D1*
X5763683Y4797276D1*
Y4792523D1*
X5766059Y4785338D1*
X5773244Y4780529D1*
X5785182Y4778153D1*
X5797121D1*
X5806682Y4780529D1*
X5811491Y4785338D1*
X5813867Y4792523D1*
Y4794900D1*
X5811491Y4802029D1*
X5806682Y4806838D1*
X5799497Y4809214D1*
X5797121D1*
X5789936Y4806838D1*
X5785182Y4802029D1*
X5782806Y4794900D1*
Y4792523D1*
X5785182Y4785338D1*
X5789936Y4780529D1*
X5797121Y4778153D1*
X4889281Y6880988D2*
X4886849Y6885797D1*
X4879719Y6892982D1*
X4929904D1*
X4891658Y6910853D2*
X4889281D1*
X4884473Y6913229D1*
X4882096Y6915606D1*
X4879719Y6920414D1*
Y6929976D1*
X4882096Y6934729D1*
X4884473Y6937106D1*
X4889281Y6939538D1*
X4894034D1*
X4898843Y6937106D1*
X4905972Y6932352D1*
X4929904Y6908421D1*
Y6941914D1*
X4896411Y6957353D2*
X4929904Y6971723D1*
X4896411Y6986038D1*
X4938195Y7001477D2*
Y7046909D1*
X4886849Y7095842D2*
X4882041Y7091088D1*
X4879664Y7083903D1*
Y7074342D1*
X4882041Y7067157D1*
X4886849Y7062348D1*
X4891602D1*
X4896411Y7064780D1*
X4898787Y7067157D1*
X4901164Y7071910D1*
X4905972Y7086280D1*
X4908349Y7091088D1*
X4910781Y7093465D1*
X4915534Y7095842D1*
X4922719D1*
X4927472Y7091088D1*
X4929904Y7083903D1*
Y7074342D1*
X4927472Y7067157D1*
X4922719Y7062348D1*
X4879664Y7111281D2*
X4915534D1*
X4922719Y7113657D1*
X4927472Y7118466D1*
X4929904Y7125651D1*
Y7130404D1*
X4927472Y7137589D1*
X4922719Y7142398D1*
X4915534Y7144774D1*
X4879664D1*
X4905972Y7160213D2*
Y7181769D1*
X4903596Y7188898D1*
X4901164Y7191330D1*
X4896411Y7193707D1*
X4889226D1*
X4884473Y7191330D1*
X4882041Y7188898D1*
X4879664Y7181769D1*
Y7160213D1*
X4929904D1*
X4905972Y7209146D2*
Y7230701D1*
X4903596Y7237831D1*
X4901164Y7240263D1*
X4896411Y7242639D1*
X4889226D1*
X4884473Y7240263D1*
X4882041Y7237831D1*
X4879664Y7230701D1*
Y7209146D1*
X4929904D1*
X5739589Y3461221D2*
X5737213D1*
X5732404Y3463597D1*
X5730028Y3465974D1*
X5727651Y3470782D1*
Y3480344D1*
X5730028Y3485097D1*
X5732404Y3487474D1*
X5737213Y3489906D1*
X5741966D1*
X5746774Y3487474D1*
X5753904Y3482720D1*
X5777836Y3458789D1*
Y3492282D1*
Y3531653D2*
X5727651D1*
X5761089Y3507721D1*
Y3543591D1*
X5727596Y3559030D2*
X5777836Y3578154D1*
X5727596Y3597277D1*
X3986786Y7463543D2*
X4013039D1*
X3998724Y7444420D1*
X4005909D1*
X4010662Y7442043D1*
X4013039Y7439667D1*
X4015471Y7432482D1*
Y7427728D1*
X4013039Y7420543D1*
X4008286Y7415735D1*
X4001101Y7413358D1*
X3993916D1*
X3986786Y7415735D1*
X3984409Y7418167D1*
X3981977Y7422920D1*
X4033287Y7418167D2*
X4030910Y7415735D1*
X4033287Y7413358D1*
X4035719Y7415735D1*
X4033287Y7418167D1*
X4055966Y7463543D2*
X4082219D1*
X4067904Y7444420D1*
X4075089D1*
X4079843Y7442043D1*
X4082219Y7439667D1*
X4084651Y7432482D1*
Y7427728D1*
X4082219Y7420543D1*
X4077466Y7415735D1*
X4070281Y7413358D1*
X4063096D1*
X4055966Y7415735D1*
X4053590Y7418167D1*
X4051158Y7422920D1*
X4100090Y7405068D2*
X4145522D1*
X4160961Y7439667D2*
X4182461D1*
X4189646Y7442099D1*
X4192078Y7444475D1*
X4194454Y7449228D1*
Y7454037D1*
X4192078Y7458790D1*
X4189646Y7461222D1*
X4182461Y7463598D1*
X4160961D1*
Y7413358D1*
X4177708Y7439667D2*
X4194454Y7413358D1*
X4240955Y7463598D2*
X4209894D1*
Y7413358D1*
X4240955D1*
X4209894Y7439667D2*
X4229017D1*
X4292264Y7451660D2*
X4289888Y7456413D1*
X4285079Y7461222D1*
X4280326Y7463598D1*
X4270765D1*
X4265956Y7461222D1*
X4261203Y7456413D1*
X4258771Y7451660D1*
X4256394Y7444475D1*
Y7432482D1*
X4258771Y7425352D1*
X4261203Y7420543D1*
X4265956Y7415790D1*
X4270765Y7413358D1*
X4280326D1*
X4285079Y7415790D1*
X4289888Y7420543D1*
X4292264Y7425352D1*
Y7432482D1*
X4280326D1*
X4307704Y7463598D2*
Y7427728D1*
X4310080Y7420543D1*
X4314889Y7415790D1*
X4322074Y7413358D1*
X4326827D1*
X4334012Y7415790D1*
X4338820Y7420543D1*
X4341197Y7427728D1*
Y7463598D1*
X4356636D2*
Y7413358D1*
X4385321D1*
X4439062D2*
X4419884Y7463598D1*
X4400760Y7413358D1*
X4407945Y7430105D2*
X4431877D1*
X4471248Y7463598D2*
Y7413358D1*
X4454501Y7463598D2*
X4487995D1*
X4517804D2*
X4512996Y7461222D1*
X4508242Y7456413D1*
X4505811Y7451660D1*
X4503434Y7444475D1*
Y7432482D1*
X4505811Y7425352D1*
X4508242Y7420543D1*
X4512996Y7415790D1*
X4517804Y7413358D1*
X4527366D1*
X4532119Y7415790D1*
X4536927Y7420543D1*
X4539304Y7425352D1*
X4541680Y7432482D1*
Y7444475D1*
X4539304Y7451660D1*
X4536927Y7456413D1*
X4532119Y7461222D1*
X4527366Y7463598D1*
X4517804D1*
X4557120Y7439667D2*
X4578620D1*
X4585805Y7442099D1*
X4588236Y7444475D1*
X4590613Y7449228D1*
Y7454037D1*
X4588236Y7458790D1*
X4585805Y7461222D1*
X4578620Y7463598D1*
X4557120D1*
Y7413358D1*
X4573866Y7439667D2*
X4590613Y7413358D1*
X9660610Y5992494D2*
Y6018747D1*
X9679734Y6004432D1*
Y6011617D1*
X9682110Y6016370D1*
X9684487Y6018747D1*
X9691672Y6021178D1*
X9696425D1*
X9703610Y6018747D1*
X9708419Y6013993D1*
X9710795Y6006808D1*
Y5999623D1*
X9708419Y5992494D1*
X9705987Y5990117D1*
X9701234Y5987685D1*
X9705987Y6038994D2*
X9708419Y6036618D1*
X9710795Y6038994D1*
X9708419Y6041426D1*
X9705987Y6038994D1*
X9660610Y6061674D2*
Y6087927D1*
X9679734Y6073612D1*
Y6080797D1*
X9682110Y6085550D1*
X9684487Y6087927D1*
X9691672Y6090359D1*
X9696425D1*
X9703610Y6087927D1*
X9708419Y6083174D1*
X9710795Y6075989D1*
Y6068804D1*
X9708419Y6061674D1*
X9705987Y6059297D1*
X9701234Y6056865D1*
X9719086Y6105798D2*
Y6151229D1*
X9684487Y6166669D2*
Y6188169D1*
X9682055Y6195354D1*
X9679678Y6197785D1*
X9674925Y6200162D1*
X9670117D1*
X9665364Y6197785D1*
X9662932Y6195354D1*
X9660555Y6188169D1*
Y6166669D1*
X9710795D1*
X9684487Y6183415D2*
X9710795Y6200162D1*
X9660555Y6246663D2*
Y6215601D1*
X9710795D1*
Y6246663D1*
X9684487Y6215601D2*
Y6234725D1*
X9672493Y6297972D2*
X9667740Y6295595D1*
X9662932Y6290787D1*
X9660555Y6286034D1*
Y6276472D1*
X9662932Y6271664D1*
X9667740Y6266910D1*
X9672493Y6264479D1*
X9679678Y6262102D1*
X9691672D1*
X9698802Y6264479D1*
X9703610Y6266910D1*
X9708363Y6271664D1*
X9710795Y6276472D1*
Y6286034D1*
X9708363Y6290787D1*
X9703610Y6295595D1*
X9698802Y6297972D1*
X9691672D1*
Y6286034D1*
X9660555Y6313411D2*
X9696425D1*
X9703610Y6315788D1*
X9708363Y6320596D1*
X9710795Y6327781D1*
Y6332534D1*
X9708363Y6339719D1*
X9703610Y6344528D1*
X9696425Y6346904D1*
X9660555D1*
Y6362344D2*
X9710795D1*
Y6391029D1*
Y6444770D2*
X9660555Y6425591D1*
X9710795Y6406468D1*
X9694048Y6413653D2*
Y6437585D1*
X9660555Y6476956D2*
X9710795D1*
X9660555Y6460209D2*
Y6493702D1*
Y6523512D2*
X9662932Y6518703D1*
X9667740Y6513950D1*
X9672493Y6511518D1*
X9679678Y6509141D1*
X9691672D1*
X9698802Y6511518D1*
X9703610Y6513950D1*
X9708363Y6518703D1*
X9710795Y6523512D1*
Y6533073D1*
X9708363Y6537826D1*
X9703610Y6542635D1*
X9698802Y6545011D1*
X9691672Y6547388D1*
X9679678D1*
X9672493Y6545011D1*
X9667740Y6542635D1*
X9662932Y6537826D1*
X9660555Y6533073D1*
Y6523512D1*
X9684487Y6562827D2*
Y6584327D1*
X9682055Y6591512D1*
X9679678Y6593944D1*
X9674925Y6596321D1*
X9670117D1*
X9665364Y6593944D1*
X9662932Y6591512D1*
X9660555Y6584327D1*
Y6562827D1*
X9710795D1*
X9684487Y6579574D2*
X9710795Y6596321D1*
X9670172Y6611760D2*
X9667740Y6616568D1*
X9660610Y6623753D1*
X9710795D1*
X7909381Y3407979D2*
X7933313Y3458164D1*
X7899820D1*
X7972684Y3407979D2*
Y3458164D1*
X7948752Y3424726D1*
X7984622D1*
X8000062Y3458219D2*
Y3407979D1*
X8033555Y3458219D2*
Y3407979D1*
X8000062Y3434287D2*
X8033555D1*
X8084864Y3446281D2*
X8082487Y3451034D1*
X8077679Y3455843D1*
X8072926Y3458219D1*
X8063364D1*
X8058556Y3455843D1*
X8053803Y3451034D1*
X8051371Y3446281D1*
X8048994Y3439096D1*
Y3427102D1*
X8051371Y3419973D1*
X8053803Y3415164D1*
X8058556Y3410411D1*
X8063364Y3407979D1*
X8072926D1*
X8077679Y3410411D1*
X8082487Y3415164D1*
X8084864Y3419973D1*
X8128988Y3458164D2*
X8105112D1*
X8102735Y3436664D1*
X8105112Y3439041D1*
X8112297Y3441472D1*
X8119427D1*
X8126612Y3439041D1*
X8131420Y3434287D1*
X8133797Y3427102D1*
Y3422349D1*
X8131420Y3415164D1*
X8126612Y3410356D1*
X8119427Y3407979D1*
X8112297D1*
X8105112Y3410356D1*
X8102735Y3412788D1*
X8100303Y3417541D1*
X8180353Y3441472D2*
X8177921Y3434287D1*
X8173168Y3429479D1*
X8165983Y3427102D1*
X8163606D1*
X8156421Y3429479D1*
X8151668Y3434287D1*
X8149236Y3441472D1*
Y3443849D1*
X8151668Y3451034D1*
X8156421Y3455787D1*
X8163606Y3458164D1*
X8165983D1*
X8173168Y3455787D1*
X8177921Y3451034D1*
X8180353Y3441472D1*
Y3429479D1*
X8177921Y3417541D1*
X8173168Y3410356D1*
X8165983Y3407979D1*
X8161229D1*
X8154044Y3410356D1*
X8151668Y3415164D1*
X8224477Y3458164D2*
X8200600D1*
X8198224Y3436664D1*
X8200600Y3439041D1*
X8207785Y3441472D1*
X8214915D1*
X8222100Y3439041D1*
X8226909Y3434287D1*
X8229285Y3427102D1*
Y3422349D1*
X8226909Y3415164D1*
X8222100Y3410356D1*
X8214915Y3407979D1*
X8207785D1*
X8200600Y3410356D1*
X8198224Y3412788D1*
X8195792Y3417541D1*
X5801366Y5194877D2*
X5751181Y5218809D1*
Y5185316D1*
Y5246186D2*
X5753558Y5239057D1*
X5758311Y5236625D1*
X5763120D1*
X5767873Y5239057D1*
X5770305Y5243810D1*
X5772681Y5253371D1*
X5775058Y5260556D1*
X5779866Y5265309D1*
X5784619Y5267686D1*
X5791804D1*
X5796558Y5265309D1*
X5798989Y5262933D1*
X5801366Y5255748D1*
Y5246186D1*
X5798989Y5239056D1*
X5796558Y5236625D1*
X5791804Y5234248D1*
X5784619D1*
X5779866Y5236625D1*
X5775058Y5241433D1*
X5772681Y5248563D1*
X5770305Y5258124D1*
X5767873Y5262933D1*
X5763120Y5265310D1*
X5758311D1*
X5753558Y5262933D1*
X5751181Y5255748D1*
Y5246186D1*
Y5297495D2*
X5753558Y5290310D1*
X5760743Y5285502D1*
X5772681Y5283125D1*
X5779866D1*
X5791804Y5285502D1*
X5798989Y5290310D1*
X5801366Y5297495D1*
Y5302249D1*
X5798989Y5309434D1*
X5791804Y5314187D1*
X5779866Y5316619D1*
X5772681D1*
X5760743Y5314187D1*
X5753558Y5309434D1*
X5751181Y5302249D1*
Y5297495D1*
X5760743Y5314187D2*
X5791804Y5285502D1*
X5758311Y5360743D2*
X5753558Y5358366D1*
X5751181Y5351181D1*
Y5346428D1*
X5753558Y5339243D1*
X5760743Y5334434D1*
X5772681Y5332058D1*
X5784619D1*
X5794181Y5334434D1*
X5798989Y5339243D1*
X5801366Y5346428D1*
Y5348805D1*
X5798989Y5355934D1*
X5794181Y5360743D1*
X5786996Y5363119D1*
X5784619D1*
X5777434Y5360743D1*
X5772681Y5355934D1*
X5770305Y5348805D1*
Y5346428D1*
X5772681Y5339243D1*
X5777434Y5334434D1*
X5784619Y5332058D1*
X5751181Y5390552D2*
X5765551Y5378559D1*
X5753558Y5392929D1*
X5751181Y5390552D1*
X8979230Y3080626D2*
X9003162Y3130811D1*
X8969669D1*
X9030539D2*
X9023410Y3128434D1*
X9020978Y3123681D1*
Y3118873D1*
X9023410Y3114119D1*
X9028163Y3111688D1*
X9037724Y3109311D1*
X9044909Y3106934D1*
X9049663Y3102126D1*
X9052039Y3097373D1*
Y3090188D1*
X9049663Y3085435D1*
X9047286Y3083003D1*
X9040101Y3080626D1*
X9030539D1*
X9023410Y3083003D1*
X9020978Y3085435D1*
X9018601Y3090188D1*
Y3097373D1*
X9020978Y3102126D1*
X9025786Y3106934D1*
X9032916Y3109311D1*
X9042478Y3111688D1*
X9047286Y3114119D1*
X9049663Y3118873D1*
Y3123681D1*
X9047286Y3128434D1*
X9040101Y3130811D1*
X9030539D1*
X9081849D2*
X9074664Y3128434D1*
X9069855Y3121249D1*
X9067478Y3109311D1*
Y3102126D1*
X9069855Y3090188D1*
X9074664Y3083003D1*
X9081849Y3080626D1*
X9086602D1*
X9093787Y3083003D1*
X9098540Y3090188D1*
X9100972Y3102126D1*
Y3109311D1*
X9098540Y3121249D1*
X9093787Y3128434D1*
X9086602Y3130811D1*
X9081849D1*
X9098540Y3121249D2*
X9069855Y3090188D1*
X9145096Y3123681D2*
X9142719Y3128434D1*
X9135534Y3130811D1*
X9130781D1*
X9123596Y3128434D1*
X9118788Y3121249D1*
X9116411Y3109311D1*
Y3097373D1*
X9118788Y3087811D1*
X9123596Y3083003D1*
X9130781Y3080626D1*
X9133158D1*
X9140288Y3083003D1*
X9145096Y3087811D1*
X9147473Y3094996D1*
Y3097373D1*
X9145096Y3104558D1*
X9140288Y3109311D1*
X9133158Y3111688D1*
X9130781D1*
X9123596Y3109311D1*
X9118788Y3104558D1*
X9116411Y3097373D1*
X9174905Y3130811D2*
X9162912Y3116441D1*
X9177282Y3128434D1*
X9174905Y3130811D1*
X9192721Y3121249D2*
X9197530Y3123681D1*
X9204715Y3130811D1*
Y3080626D1*
X9581045D2*
X9604976Y3130811D1*
X9571483D1*
X9632354D2*
X9625224Y3128434D1*
X9622792Y3123681D1*
Y3118873D1*
X9625224Y3114119D1*
X9629977Y3111688D1*
X9639539Y3109311D1*
X9646724Y3106934D1*
X9651477Y3102126D1*
X9653854Y3097373D1*
Y3090188D1*
X9651477Y3085435D1*
X9649100Y3083003D1*
X9641915Y3080626D1*
X9632354D1*
X9625224Y3083003D1*
X9622792Y3085435D1*
X9620416Y3090188D1*
Y3097373D1*
X9622792Y3102126D1*
X9627601Y3106934D1*
X9634730Y3109311D1*
X9644292Y3111688D1*
X9649100Y3114119D1*
X9651477Y3118873D1*
Y3123681D1*
X9649100Y3128434D1*
X9641915Y3130811D1*
X9632354D1*
X9683663D2*
X9676478Y3128434D1*
X9671669Y3121249D1*
X9669293Y3109311D1*
Y3102126D1*
X9671669Y3090188D1*
X9676478Y3083003D1*
X9683663Y3080626D1*
X9688416D1*
X9695601Y3083003D1*
X9700354Y3090188D1*
X9702786Y3102126D1*
Y3109311D1*
X9700354Y3121249D1*
X9695601Y3128434D1*
X9688416Y3130811D1*
X9683663D1*
X9700354Y3121249D2*
X9671669Y3090188D1*
X9746910Y3123681D2*
X9744534Y3128434D1*
X9737349Y3130811D1*
X9732596D1*
X9725410Y3128434D1*
X9720602Y3121249D1*
X9718225Y3109311D1*
Y3097373D1*
X9720602Y3087811D1*
X9725410Y3083003D1*
X9732596Y3080626D1*
X9734972D1*
X9742102Y3083003D1*
X9746910Y3087811D1*
X9749287Y3094996D1*
Y3097373D1*
X9746910Y3104558D1*
X9742102Y3109311D1*
X9734972Y3111688D1*
X9732596D1*
X9725410Y3109311D1*
X9720602Y3104558D1*
X9718225Y3097373D1*
X9776720Y3130811D2*
X9764726Y3116441D1*
X9779096Y3128434D1*
X9776720Y3130811D1*
X9796967Y3118873D2*
Y3121249D1*
X9799344Y3126058D1*
X9801721Y3128434D1*
X9806529Y3130811D1*
X9816091D1*
X9820844Y3128434D1*
X9823220Y3126058D1*
X9825652Y3121249D1*
Y3116496D1*
X9823220Y3111688D1*
X9818467Y3104558D1*
X9794536Y3080626D1*
X9828029D1*
X4890928Y4928974D2*
X4840688Y4909796D1*
X4890928Y4890672D1*
X4874181Y4897857D2*
Y4921789D1*
X4865835Y4944413D2*
Y4972048D1*
X4840688Y5018549D2*
Y4987487D1*
X4890928D1*
Y5018549D1*
X4864619Y4987487D2*
Y5006611D1*
X4840688Y5067481D2*
X4890928D1*
X4840688Y5033988D1*
X4890928D1*
X4852626Y5118791D2*
X4847873Y5116414D1*
X4843064Y5111606D1*
X4840688Y5106852D1*
Y5097291D1*
X4843064Y5092482D1*
X4847873Y5087729D1*
X4852626Y5085297D1*
X4859811Y5082921D1*
X4871804D1*
X4878934Y5085297D1*
X4883743Y5087729D1*
X4888496Y5092482D1*
X4890928Y5097291D1*
Y5106852D1*
X4888496Y5111605D1*
X4883743Y5116414D1*
X4878934Y5118791D1*
X4840688Y5148600D2*
X4843064Y5143791D1*
X4847873Y5139038D1*
X4852626Y5136606D1*
X4859811Y5134230D1*
X4871804D1*
X4878934Y5136606D1*
X4883743Y5139038D1*
X4888496Y5143791D1*
X4890928Y5148600D1*
Y5158161D1*
X4888496Y5162915D1*
X4883743Y5167723D1*
X4878934Y5170100D1*
X4871804Y5172476D1*
X4859811D1*
X4852626Y5170100D1*
X4847873Y5167723D1*
X4843064Y5162915D1*
X4840688Y5158161D1*
Y5148600D1*
Y5187916D2*
X4890928D1*
Y5204662D1*
X4888496Y5211847D1*
X4883743Y5216656D1*
X4878934Y5219032D1*
X4871804Y5221409D1*
X4859811D1*
X4852626Y5219032D1*
X4847873Y5216656D1*
X4843064Y5211847D1*
X4840688Y5204662D1*
Y5187916D1*
Y5267910D2*
Y5236848D1*
X4890928D1*
Y5267910D1*
X4864619Y5236848D2*
Y5255971D1*
Y5283349D2*
Y5304849D1*
X4862188Y5312034D1*
X4859811Y5314466D1*
X4855058Y5316842D1*
X4850249D1*
X4845496Y5314466D1*
X4843064Y5312034D1*
X4840688Y5304849D1*
Y5283349D1*
X4890928D1*
X4864619Y5300096D2*
X4890928Y5316842D1*
X4894623Y3650670D2*
X4844383Y3631492D1*
X4894623Y3612369D1*
X4877877Y3619554D2*
Y3643485D1*
X4902914Y3666110D2*
Y3711541D1*
X4894623Y3765227D2*
X4844383D1*
X4894623Y3746104D1*
X4844383Y3726980D1*
X4894623D1*
X4844383Y3795036D2*
X4846760Y3790228D1*
X4851568Y3785475D1*
X4856321Y3783043D1*
X4863507Y3780666D1*
X4875500D1*
X4882630Y3783043D1*
X4887438Y3785475D1*
X4892191Y3790228D1*
X4894623Y3795036D1*
Y3804598D1*
X4892191Y3809351D1*
X4887438Y3814159D1*
X4882630Y3816536D1*
X4875500Y3818913D1*
X4863507D1*
X4856321Y3816536D1*
X4851568Y3814159D1*
X4846760Y3809351D1*
X4844383Y3804598D1*
Y3795036D1*
Y3851099D2*
X4894623D1*
X4844383Y3834352D2*
Y3867845D1*
Y3897655D2*
X4846760Y3892846D1*
X4851568Y3888093D1*
X4856321Y3885661D1*
X4863507Y3883284D1*
X4875500D1*
X4882630Y3885661D1*
X4887438Y3888093D1*
X4892191Y3892846D1*
X4894623Y3897655D1*
Y3907216D1*
X4892191Y3911969D1*
X4887438Y3916778D1*
X4882630Y3919154D1*
X4875500Y3921531D1*
X4863507D1*
X4856321Y3919154D1*
X4851568Y3916778D1*
X4846760Y3911969D1*
X4844383Y3907216D1*
Y3897655D1*
X4868315Y3936970D2*
Y3958470D1*
X4865883Y3965655D1*
X4863506Y3968087D1*
X4858753Y3970464D1*
X4853945D1*
X4849192Y3968087D1*
X4846760Y3965655D1*
X4844383Y3958470D1*
Y3936970D1*
X4894623D1*
X4868315Y3953717D2*
X4894623Y3970464D1*
X5824110Y2572548D2*
X5773870Y2553369D1*
X5824110Y2534246D1*
X5807363Y2541431D2*
X5807364Y2565363D1*
X5824110Y2626233D2*
X5773870Y2626234D1*
X5824110Y2607110D1*
X5773870Y2587987D1*
X5824110D1*
X5832401Y2641673D2*
Y2687104D1*
X5773870Y2733605D2*
Y2702544D1*
X5824110D1*
Y2733605D1*
X5797802Y2702544D2*
Y2721667D1*
X5773870Y2782538D2*
X5824110D1*
X5773870Y2749044D1*
X5824110D1*
X5785808Y2833847D2*
X5781055Y2831470D1*
X5776247Y2826662D1*
X5773870Y2821909D1*
Y2812347D1*
X5776247Y2807538D1*
X5781055Y2802785D1*
X5785808Y2800353D1*
X5792993Y2797977D1*
X5804987D1*
X5812117Y2800353D1*
X5816925Y2802785D1*
X5821678Y2807538D1*
X5824110Y2812347D1*
Y2821909D1*
X5821678Y2826662D1*
X5816925Y2831470D1*
X5812117Y2833847D1*
X5773870Y2863656D2*
X5776247Y2858848D1*
X5781055Y2854094D1*
X5785808Y2851663D1*
X5792993Y2849286D1*
X5804987D1*
X5812117Y2851663D1*
X5816925Y2854094D1*
X5821678Y2858848D1*
X5824110Y2863656D1*
Y2873218D1*
X5821678Y2877971D1*
X5816925Y2882779D1*
X5812117Y2885156D1*
X5804987Y2887533D1*
X5792993D1*
X5785808Y2885156D1*
X5781055Y2882779D1*
X5776247Y2877971D1*
X5773870Y2873218D1*
Y2863656D1*
Y2902972D2*
X5824110D1*
Y2919718D1*
X5821678Y2926903D1*
X5816925Y2931712D1*
X5812117Y2934089D1*
X5804987Y2936465D1*
X5792993D1*
X5785808Y2934089D1*
X5781055Y2931712D1*
X5776247Y2926903D1*
X5773870Y2919718D1*
Y2902972D1*
Y2982966D2*
Y2951904D1*
X5824110D1*
Y2982966D1*
X5797802Y2951904D2*
Y2971028D1*
Y2998405D2*
Y3019905D1*
X5795370Y3027090D1*
X5792993Y3029522D1*
X5788240Y3031898D1*
X5783432D1*
X5778679Y3029522D1*
X5776247Y3027090D1*
X5773870Y3019905D1*
Y2998405D1*
X5824110D1*
X5797802Y3015152D2*
X5824110Y3031898D1*
X6884063Y2380553D2*
X6864884Y2430793D1*
X6845761Y2380553D1*
X6852946Y2397299D2*
X6876878D1*
X6937749Y2380553D2*
Y2430793D1*
X6918625Y2380553D1*
X6899502Y2430793D1*
Y2380553D1*
X6953188Y2372262D2*
X6998619D1*
X7052305Y2380553D2*
Y2430793D1*
X7033182Y2380553D1*
X7014059Y2430793D1*
Y2380553D1*
X7082115Y2430793D2*
X7077306Y2428416D1*
X7072553Y2423608D1*
X7070121Y2418854D1*
X7067744Y2411669D1*
Y2399676D1*
X7070121Y2392546D1*
X7072553Y2387738D1*
X7077306Y2382984D1*
X7082115Y2380553D1*
X7091676D1*
X7096429Y2382984D1*
X7101238Y2387738D1*
X7103614Y2392546D1*
X7105991Y2399676D1*
Y2411669D1*
X7103614Y2418854D1*
X7101238Y2423608D1*
X7096429Y2428416D1*
X7091676Y2430793D1*
X7082115D1*
X7138177D2*
Y2380553D1*
X7121430Y2430793D2*
X7154924D1*
X7170363Y2372262D2*
X7215794D1*
X7231234Y2430793D2*
Y2380553D1*
X7247980D1*
X7255165Y2382984D1*
X7259974Y2387738D1*
X7262350Y2392546D1*
X7264727Y2399676D1*
Y2411669D1*
X7262350Y2418854D1*
X7259974Y2423608D1*
X7255165Y2428416D1*
X7247980Y2430793D1*
X7231234D1*
X7280166Y2406861D2*
X7301666D1*
X7308851Y2409293D1*
X7311283Y2411669D1*
X7313660Y2416423D1*
Y2421231D1*
X7311283Y2425984D1*
X7308851Y2428416D1*
X7301666Y2430793D1*
X7280166D1*
Y2380553D1*
X7296913Y2406861D2*
X7313660Y2380553D1*
X7329099Y2430793D2*
Y2380553D1*
X7344538Y2430793D2*
X7363661Y2380553D1*
X7382785Y2430793D1*
X7429285D2*
X7398224D1*
Y2380553D1*
X7429285D1*
X7398224Y2406861D2*
X7417347D1*
X7444725D2*
X7466224D1*
X7473409Y2409293D1*
X7475841Y2411669D1*
X7478218Y2416423D1*
Y2421231D1*
X7475841Y2425984D1*
X7473409Y2428416D1*
X7466224Y2430793D1*
X7444725D1*
Y2380553D1*
X7461471Y2406861D2*
X7478218Y2380553D1*
X4840688Y4199254D2*
X4890928D1*
Y4220809D1*
X4888496Y4227994D1*
X4886119Y4230370D1*
X4881366Y4232747D1*
X4874181D1*
X4869373Y4230370D1*
X4866996Y4227994D1*
X4864619Y4220809D1*
X4862188Y4227994D1*
X4859811Y4230370D1*
X4855058Y4232747D1*
X4850249D1*
X4845496Y4230370D1*
X4843064Y4227994D1*
X4840688Y4220809D1*
Y4199254D1*
X4864619D2*
Y4220809D1*
X4865835Y4248186D2*
Y4275821D1*
X4840688Y4322322D2*
Y4291260D1*
X4890928D1*
Y4322322D1*
X4864619Y4291260D2*
Y4310384D1*
X4840688Y4371254D2*
X4890928D1*
X4840688Y4337761D1*
X4890928D1*
X4852626Y4422563D2*
X4847873Y4420187D1*
X4843064Y4415378D1*
X4840688Y4410625D1*
Y4401064D1*
X4843064Y4396255D1*
X4847873Y4391502D1*
X4852626Y4389070D1*
X4859811Y4386694D1*
X4871804D1*
X4878934Y4389070D1*
X4883743Y4391502D1*
X4888496Y4396255D1*
X4890928Y4401064D1*
Y4410625D1*
X4888496Y4415378D1*
X4883743Y4420187D1*
X4878934Y4422563D1*
X4840688Y4452373D2*
X4843064Y4447564D1*
X4847873Y4442811D1*
X4852626Y4440379D1*
X4859811Y4438003D1*
X4871804D1*
X4878934Y4440379D1*
X4883743Y4442811D1*
X4888496Y4447564D1*
X4890928Y4452373D1*
Y4461934D1*
X4888496Y4466688D1*
X4883743Y4471496D1*
X4878934Y4473873D1*
X4871804Y4476249D1*
X4859811D1*
X4852626Y4473873D1*
X4847873Y4471496D1*
X4843064Y4466688D1*
X4840688Y4461934D1*
Y4452373D1*
Y4491688D2*
X4890928D1*
Y4508435D1*
X4888496Y4515620D1*
X4883743Y4520429D1*
X4878934Y4522805D1*
X4871804Y4525182D1*
X4859811D1*
X4852626Y4522805D1*
X4847873Y4520429D1*
X4843064Y4515620D1*
X4840688Y4508435D1*
Y4491688D1*
Y4571683D2*
Y4540621D1*
X4890928D1*
Y4571683D1*
X4864619Y4540621D2*
Y4559744D1*
Y4587122D2*
Y4608622D1*
X4862188Y4615807D1*
X4859811Y4618239D1*
X4855058Y4620615D1*
X4850249D1*
X4845496Y4618239D1*
X4843064Y4615807D1*
X4840688Y4608622D1*
Y4587122D1*
X4890928D1*
X4864619Y4603868D2*
X4890928Y4620615D1*
X4844383Y3011107D2*
X4894623D1*
Y3032662D1*
X4892191Y3039847D1*
X4889815Y3042224D1*
X4885062Y3044600D1*
X4877877D1*
X4873068Y3042224D1*
X4870692Y3039847D1*
X4868315Y3032662D1*
X4865883Y3039847D1*
X4863507Y3042224D1*
X4858753Y3044600D1*
X4853945D1*
X4849192Y3042224D1*
X4846760Y3039847D1*
X4844383Y3032662D1*
Y3011107D1*
X4868315D2*
Y3032662D1*
X4869531Y3060039D2*
Y3087674D1*
X4894623Y3141360D2*
X4844383D1*
X4894623Y3122237D1*
X4844383Y3103113D1*
X4894623D1*
X4844383Y3171169D2*
X4846760Y3166361D1*
X4851568Y3161608D1*
X4856321Y3159176D1*
X4863507Y3156799D1*
X4875500D1*
X4882630Y3159176D1*
X4887438Y3161608D1*
X4892191Y3166361D1*
X4894623Y3171169D1*
Y3180731D1*
X4892191Y3185484D1*
X4887438Y3190293D1*
X4882630Y3192669D1*
X4875500Y3195046D1*
X4863507D1*
X4856321Y3192669D1*
X4851568Y3190293D1*
X4846760Y3185484D1*
X4844383Y3180731D1*
Y3171169D1*
Y3227232D2*
X4894623D1*
X4844383Y3210485D2*
Y3243978D1*
Y3273788D2*
X4846760Y3268979D1*
X4851568Y3264226D1*
X4856321Y3261794D1*
X4863507Y3259418D1*
X4875500D1*
X4882630Y3261794D1*
X4887438Y3264226D1*
X4892191Y3268979D1*
X4894623Y3273788D1*
Y3283349D1*
X4892191Y3288102D1*
X4887438Y3292911D1*
X4882630Y3295287D1*
X4875500Y3297664D1*
X4863507D1*
X4856321Y3295287D1*
X4851568Y3292911D1*
X4846760Y3288102D1*
X4844383Y3283349D1*
Y3273788D1*
X4868315Y3313103D2*
Y3334603D1*
X4865883Y3341788D1*
X4863507Y3344220D1*
X4858753Y3346597D1*
X4853945D1*
X4849192Y3344220D1*
X4846760Y3341788D1*
X4844383Y3334603D1*
Y3313103D1*
X4894623D1*
X4868315Y3329850D2*
X4894623Y3346597D1*
X3966707Y1345328D2*
Y1295088D1*
X3988262D1*
X3995447Y1297520D1*
X3997823Y1299897D1*
X4000200Y1304650D1*
Y1311835D1*
X3997823Y1316643D1*
X3995447Y1319020D1*
X3988262Y1321396D1*
X3995447Y1323828D1*
X3997823Y1326205D1*
X4000200Y1330958D1*
Y1335766D1*
X3997823Y1340520D1*
X3995447Y1342951D1*
X3988262Y1345328D1*
X3966707D1*
Y1321396D2*
X3988262D1*
X4015639Y1345328D2*
Y1295088D1*
X4044324D1*
X4093257Y1338143D2*
X4088503Y1342951D1*
X4081318Y1345328D1*
X4071757D1*
X4064572Y1342951D1*
X4059763Y1338143D1*
Y1333390D1*
X4062195Y1328581D1*
X4064572Y1326205D1*
X4069325Y1323828D1*
X4083695Y1319020D1*
X4088503Y1316643D1*
X4090880Y1314211D1*
X4093257Y1309458D1*
Y1302273D1*
X4088503Y1297520D1*
X4081318Y1295088D1*
X4071757D1*
X4064572Y1297520D1*
X4059763Y1302273D1*
X5938381Y5791109D2*
X5988621D1*
Y5812664D1*
X5986189Y5819849D1*
X5983812Y5822226D1*
X5979059Y5824603D1*
X5971874D1*
X5967066Y5822226D1*
X5964689Y5819849D1*
X5962312Y5812664D1*
X5959881Y5819849D1*
X5957504Y5822226D1*
X5952751Y5824603D1*
X5947942D1*
X5943189Y5822226D1*
X5940757Y5819849D1*
X5938381Y5812664D1*
Y5791109D1*
X5962312D2*
Y5812664D1*
X5938381Y5840042D2*
X5988621D1*
Y5868727D1*
X5938381Y5884166D2*
X5974251D1*
X5981436Y5886542D1*
X5986189Y5891351D1*
X5988621Y5898536D1*
Y5903289D1*
X5986189Y5910474D1*
X5981436Y5915283D1*
X5974251Y5917659D1*
X5938381D1*
Y5964160D2*
Y5933098D1*
X5988621D1*
Y5964160D1*
X5962312Y5933098D2*
Y5952222D1*
X5938381Y5996346D2*
X5988621D1*
X5938381Y5979599D2*
Y6013093D1*
Y6042902D2*
X5940757Y6038093D1*
X5945566Y6033340D1*
X5950319Y6030908D1*
X5957504Y6028532D1*
X5969497D1*
X5976627Y6030908D1*
X5981436Y6033340D1*
X5986189Y6038093D1*
X5988621Y6042902D1*
Y6052463D1*
X5986189Y6057217D1*
X5981436Y6062025D1*
X5976627Y6064402D1*
X5969497Y6066778D1*
X5957504D1*
X5950319Y6064402D1*
X5945566Y6062025D1*
X5940757Y6057217D1*
X5938381Y6052463D1*
Y6042902D1*
Y6096588D2*
X5940757Y6091779D1*
X5945566Y6087026D1*
X5950319Y6084594D1*
X5957504Y6082218D1*
X5969497D1*
X5976627Y6084594D1*
X5981436Y6087026D1*
X5986189Y6091779D1*
X5988621Y6096588D1*
Y6106149D1*
X5986189Y6110902D1*
X5981436Y6115711D1*
X5976627Y6118087D1*
X5969497Y6120464D1*
X5957504D1*
X5950319Y6118087D1*
X5945566Y6115711D1*
X5940757Y6110902D1*
X5938381Y6106149D1*
Y6096588D1*
Y6152650D2*
X5988621D1*
X5938381Y6135903D2*
Y6169397D1*
Y6184836D2*
X5988621D1*
X5938381Y6218329D2*
X5988621D1*
X5962312Y6184836D2*
Y6218329D1*
X1883485Y7513322D2*
Y7463081D1*
X1905040D1*
X1912225Y7465513D1*
X1914601Y7467890D1*
X1916978Y7472643D1*
Y7479828D1*
X1914601Y7484637D1*
X1912225Y7487013D1*
X1905040Y7489390D1*
X1912225Y7491822D1*
X1914601Y7494198D1*
X1916978Y7498951D1*
Y7503760D1*
X1914601Y7508513D1*
X1912225Y7510945D1*
X1905040Y7513322D1*
X1883485D1*
Y7489390D2*
X1905040D1*
X1932417Y7513322D2*
Y7477452D1*
X1934794Y7470267D1*
X1939602Y7465513D1*
X1946787Y7463081D1*
X1951540D1*
X1958725Y7465513D1*
X1963534Y7470267D1*
X1965911Y7477452D1*
Y7513322D1*
X2017220Y7501383D2*
X2014843Y7506136D1*
X2010035Y7510945D1*
X2005281Y7513322D1*
X1995720D1*
X1990911Y7510945D1*
X1986158Y7506136D1*
X1983726Y7501383D1*
X1981350Y7494198D1*
Y7482205D1*
X1983726Y7475075D1*
X1986158Y7470267D1*
X1990911Y7465513D1*
X1995720Y7463081D1*
X2005281D1*
X2010035Y7465513D1*
X2014843Y7470267D1*
X2017220Y7475075D1*
X2032659Y7513322D2*
Y7463081D1*
X2066152Y7513322D2*
X2032659Y7479828D1*
X2044597Y7491822D2*
X2066152Y7463081D1*
X2081592Y7488174D2*
X2109226D1*
X2124666Y7513322D2*
Y7463081D1*
X2173598Y7513322D2*
Y7463081D1*
X2140105Y7513322D1*
Y7463081D1*
X2189037Y7488174D2*
X2216672D1*
X2270358Y7463081D2*
Y7513322D1*
X2251235Y7463081D1*
X2232111Y7513322D1*
Y7463081D1*
X2324099D2*
X2304920Y7513322D1*
X2285797Y7463081D1*
X2292982Y7479828D2*
X2316914D1*
X2339538Y7513322D2*
Y7463081D1*
X2388471Y7513322D2*
Y7463081D1*
X2354977Y7513322D1*
Y7463081D1*
X9646065Y4260429D2*
Y4210189D1*
X9667620D1*
X9674805Y4212621D1*
X9677182Y4214998D1*
X9679558Y4219751D1*
Y4226936D1*
X9677182Y4231744D1*
X9674805Y4234121D1*
X9667620Y4236497D1*
X9674805Y4238929D1*
X9677182Y4241306D1*
X9679558Y4246059D1*
Y4250867D1*
X9677182Y4255621D1*
X9674805Y4258053D1*
X9667620Y4260429D1*
X9646065D1*
Y4236497D2*
X9667620D1*
X9694997Y4260429D2*
Y4224559D1*
X9697374Y4217374D1*
X9702182Y4212621D1*
X9709367Y4210189D1*
X9714121D1*
X9721306Y4212621D1*
X9726114Y4217374D1*
X9728491Y4224559D1*
Y4260429D1*
X9779800Y4248491D2*
X9777423Y4253244D1*
X9772615Y4258053D1*
X9767862Y4260429D1*
X9758300D1*
X9753492Y4258053D1*
X9748738Y4253244D1*
X9746307Y4248491D1*
X9743930Y4241306D1*
Y4229312D1*
X9746307Y4222183D1*
X9748738Y4217374D1*
X9753492Y4212621D1*
X9758300Y4210189D1*
X9767862D1*
X9772615Y4212621D1*
X9777423Y4217374D1*
X9779800Y4222183D1*
X9795239Y4260429D2*
Y4210189D1*
X9828733Y4260429D2*
X9795239Y4226936D1*
X9807177Y4238929D2*
X9828733Y4210189D1*
X9844172Y4235281D2*
X9871807D1*
X9887246Y4260429D2*
Y4210189D1*
X9936178Y4260429D2*
Y4210189D1*
X9902685Y4260429D1*
Y4210189D1*
X9951618Y4235281D2*
X9979252D1*
X10032938Y4210189D2*
Y4260429D1*
X10013815Y4210189D1*
X9994692Y4260429D1*
Y4210189D1*
X10086679D2*
X10067501Y4260429D1*
X10048377Y4210189D1*
X10055562Y4226936D2*
X10079494D1*
X10102118Y4260429D2*
Y4210189D1*
X10151051Y4260429D2*
Y4210189D1*
X10117558Y4260429D1*
Y4210189D1*
X10166490Y4250812D2*
X10171299Y4253244D1*
X10178484Y4260374D1*
Y4210189D1*
X1868067Y5852062D2*
Y5801822D1*
X1889622D1*
X1896807Y5804254D1*
X1899183Y5806630D1*
X1901560Y5811383D1*
Y5818568D1*
X1899183Y5823377D1*
X1896807Y5825753D1*
X1889622Y5828130D1*
X1896807Y5830562D1*
X1899183Y5832938D1*
X1901560Y5837692D1*
Y5842500D1*
X1899183Y5847253D1*
X1896807Y5849685D1*
X1889622Y5852062D1*
X1868067D1*
Y5828130D2*
X1889622D1*
X1916999Y5852062D2*
Y5816192D1*
X1919376Y5809007D1*
X1924184Y5804254D1*
X1931369Y5801822D1*
X1936123D1*
X1943308Y5804254D1*
X1948116Y5809007D1*
X1950493Y5816192D1*
Y5852062D1*
X2001802Y5840123D2*
X1999425Y5844877D1*
X1994617Y5849685D1*
X1989864Y5852062D1*
X1980302D1*
X1975494Y5849685D1*
X1970740Y5844877D1*
X1968308Y5840123D1*
X1965932Y5832938D1*
Y5820945D1*
X1968308Y5813815D1*
X1970740Y5809007D1*
X1975494Y5804254D1*
X1980302Y5801822D1*
X1989864D1*
X1994617Y5804254D1*
X1999425Y5809007D1*
X2001802Y5813815D1*
X2017241Y5852062D2*
Y5801822D1*
X2041173Y5835315D2*
X2017241Y5811383D1*
X2026803Y5820945D2*
X2043549Y5801822D1*
X2058989Y5826914D2*
X2086623D1*
X2116433Y5852062D2*
X2111624Y5849685D1*
X2106871Y5844877D1*
X2104439Y5840123D1*
X2102063Y5832938D1*
Y5820945D1*
X2104439Y5813815D1*
X2106871Y5809007D1*
X2111624Y5804254D1*
X2116433Y5801822D1*
X2125994D1*
X2130748Y5804254D1*
X2135556Y5809007D1*
X2137933Y5813815D1*
X2140309Y5820945D1*
Y5832938D1*
X2137933Y5840123D1*
X2135556Y5844877D1*
X2130748Y5849685D1*
X2125994Y5852062D1*
X2116433D1*
X2155748Y5825753D2*
X2177304D1*
X2184433Y5828130D1*
X2186865Y5830562D1*
X2189242Y5835315D1*
Y5842500D1*
X2186865Y5847253D1*
X2184433Y5849685D1*
X2177304Y5852062D1*
X2155748D1*
Y5801822D1*
X2204681Y5826914D2*
X2232316D1*
X2286002Y5801822D2*
Y5852062D1*
X2266878Y5801822D1*
X2247755Y5852062D1*
Y5801822D1*
X2339743D2*
X2320564Y5852062D1*
X2301441Y5801822D1*
X2308626Y5818568D2*
X2332558D1*
X2355182Y5852062D2*
Y5801822D1*
X2404114Y5852062D2*
Y5801822D1*
X2370621Y5852062D1*
Y5801822D1*
X9630534Y5894287D2*
Y5844047D1*
X9652089D1*
X9659274Y5846479D1*
X9661651Y5848856D1*
X9664027Y5853609D1*
Y5860794D1*
X9661651Y5865602D1*
X9659274Y5867979D1*
X9652089Y5870356D1*
X9659274Y5872788D1*
X9661651Y5875164D1*
X9664027Y5879917D1*
Y5884726D1*
X9661651Y5889479D1*
X9659274Y5891911D1*
X9652089Y5894287D1*
X9630534D1*
Y5870356D2*
X9652089D1*
X9679467Y5894287D2*
Y5858417D1*
X9681843Y5851232D1*
X9686652Y5846479D1*
X9693837Y5844047D1*
X9698590D1*
X9705775Y5846479D1*
X9710583Y5851232D1*
X9712960Y5858417D1*
Y5894287D1*
X9764269Y5882349D2*
X9761893Y5887102D1*
X9757084Y5891911D1*
X9752331Y5894287D1*
X9742769D1*
X9737961Y5891911D1*
X9733208Y5887102D1*
X9730776Y5882349D1*
X9728399Y5875164D1*
Y5863171D1*
X9730776Y5856041D1*
X9733208Y5851232D1*
X9737961Y5846479D1*
X9742769Y5844047D1*
X9752331D1*
X9757084Y5846479D1*
X9761893Y5851232D1*
X9764269Y5856041D1*
X9779708Y5894287D2*
Y5844047D1*
X9803640Y5877541D2*
X9779708Y5853609D1*
X9789270Y5863171D2*
X9806017Y5844047D1*
X9821456Y5869140D2*
X9849091D1*
X9878900Y5894287D2*
X9874092Y5891911D1*
X9869338Y5887102D1*
X9866907Y5882349D1*
X9864530Y5875164D1*
Y5863171D1*
X9866907Y5856041D1*
X9869338Y5851232D1*
X9874092Y5846479D1*
X9878900Y5844047D1*
X9888462D1*
X9893215Y5846479D1*
X9898023Y5851232D1*
X9900400Y5856041D1*
X9902777Y5863171D1*
Y5875164D1*
X9900400Y5882349D1*
X9898023Y5887102D1*
X9893215Y5891911D1*
X9888462Y5894287D1*
X9878900D1*
X9918216Y5867979D2*
X9939771D1*
X9946901Y5870356D1*
X9949333Y5872788D1*
X9951709Y5877541D1*
Y5884726D1*
X9949333Y5889479D1*
X9946901Y5891911D1*
X9939771Y5894287D1*
X9918216D1*
Y5844047D1*
X9967148Y5869140D2*
X9994783D1*
X10048469Y5844047D2*
Y5894287D1*
X10029346Y5844047D1*
X10010222Y5894287D1*
Y5844047D1*
X10102210D2*
X10083031Y5894287D1*
X10063908Y5844047D1*
X10071093Y5860794D2*
X10095025D1*
X10117649Y5894287D2*
Y5844047D1*
X10166582Y5894287D2*
Y5844047D1*
X10133088Y5894287D1*
Y5844047D1*
X10182021Y5884670D2*
X10186829Y5887102D1*
X10194014Y5894232D1*
Y5844047D1*
X3087506Y7509168D2*
Y7458928D1*
X3109062D1*
X3116247Y7461360D1*
X3118623Y7463736D1*
X3121000Y7468490D1*
Y7475675D1*
X3118623Y7480483D1*
X3116247Y7482860D1*
X3109062Y7485236D1*
X3116247Y7487668D1*
X3118623Y7490045D1*
X3121000Y7494798D1*
Y7499606D1*
X3118623Y7504360D1*
X3116247Y7506791D1*
X3109062Y7509168D1*
X3087506D1*
Y7485236D2*
X3109062D1*
X3136439Y7509168D2*
Y7473298D1*
X3138816Y7466113D1*
X3143624Y7461360D1*
X3150809Y7458928D1*
X3155562D1*
X3162747Y7461360D1*
X3167556Y7466113D1*
X3169932Y7473298D1*
Y7509168D1*
X3221242Y7497230D2*
X3218865Y7501983D1*
X3214057Y7506791D1*
X3209303Y7509168D1*
X3199742D1*
X3194933Y7506791D1*
X3190180Y7501983D1*
X3187748Y7497230D1*
X3185372Y7490045D1*
Y7478051D1*
X3187748Y7470921D1*
X3190180Y7466113D1*
X3194933Y7461360D1*
X3199742Y7458928D1*
X3209303D1*
X3214057Y7461360D1*
X3218865Y7466113D1*
X3221242Y7470921D1*
X3236681Y7509168D2*
Y7458928D1*
X3270174Y7509168D2*
X3236681Y7475675D1*
X3248619Y7487668D2*
X3270174Y7458928D1*
X3285613Y7509168D2*
Y7458928D1*
X3334546Y7509168D2*
Y7458928D1*
X3301053Y7509168D1*
Y7458928D1*
X3044094Y5845811D2*
Y5795571D1*
X3065649D1*
X3072834Y5798003D1*
X3075211Y5800379D1*
X3077587Y5805133D1*
Y5812318D1*
X3075211Y5817126D1*
X3072834Y5819503D1*
X3065649Y5821879D1*
X3072834Y5824311D1*
X3075211Y5826688D1*
X3077587Y5831441D1*
Y5836249D1*
X3075211Y5841003D1*
X3072834Y5843434D1*
X3065649Y5845811D1*
X3044094D1*
Y5821879D2*
X3065649D1*
X3093027Y5845811D2*
Y5809941D1*
X3095403Y5802756D1*
X3100212Y5798003D1*
X3107397Y5795571D1*
X3112150D1*
X3119335Y5798003D1*
X3124143Y5802756D1*
X3126520Y5809941D1*
Y5845811D1*
X3177829Y5833873D2*
X3175453Y5838626D1*
X3170644Y5843434D1*
X3165891Y5845811D1*
X3156329D1*
X3151521Y5843434D1*
X3146768Y5838626D1*
X3144336Y5833873D1*
X3141959Y5826688D1*
Y5814694D1*
X3144336Y5807564D1*
X3146768Y5802756D1*
X3151521Y5798003D1*
X3156329Y5795571D1*
X3165891D1*
X3170644Y5798003D1*
X3175453Y5802756D1*
X3177829Y5807564D1*
X3193268Y5845811D2*
Y5795571D1*
X3226762Y5845811D2*
X3193268Y5812318D1*
X3205207Y5824311D2*
X3226762Y5795571D1*
X3256571Y5845811D2*
X3251763Y5843434D1*
X3247009Y5838626D1*
X3244578Y5833873D1*
X3242201Y5826688D1*
Y5814694D1*
X3244578Y5807564D1*
X3247009Y5802756D1*
X3251763Y5798003D1*
X3256571Y5795571D1*
X3266133D1*
X3270886Y5798003D1*
X3275694Y5802756D1*
X3278071Y5807564D1*
X3280448Y5814694D1*
Y5826688D1*
X3278071Y5833873D1*
X3275694Y5838626D1*
X3270886Y5843434D1*
X3266133Y5845811D1*
X3256571D1*
X3295887D2*
Y5809941D1*
X3298263Y5802756D1*
X3303072Y5798003D1*
X3310257Y5795571D1*
X3315010D1*
X3322195Y5798003D1*
X3327004Y5802756D1*
X3329380Y5809941D1*
Y5845811D1*
X3361566D2*
Y5795571D1*
X3344819Y5845811D2*
X3378313D1*
X1111008Y4345605D2*
Y4309735D1*
X1113385Y4302550D1*
X1118193Y4297797D1*
X1125378Y4295365D1*
X1130131D1*
X1137317Y4297797D1*
X1142125Y4302550D1*
X1144502Y4309735D1*
Y4345605D1*
X1159941D2*
Y4295365D1*
X1188626D1*
X1237558Y4345605D2*
Y4295365D1*
X1204065Y4345605D1*
Y4295365D1*
X1252998Y4287075D2*
X1298429D1*
X1313868Y4345605D2*
Y4295365D1*
X1342553D1*
X1389054Y4345605D2*
X1357992D1*
Y4295365D1*
X1389054D1*
X1357992Y4321673D2*
X1377116D1*
X1404493Y4345605D2*
Y4295365D1*
X1421240D1*
X1428425Y4297797D1*
X1433233Y4302550D1*
X1435610Y4307358D1*
X1437987Y4314488D1*
Y4326482D1*
X1435610Y4333667D1*
X1433233Y4338420D1*
X1428425Y4343228D1*
X1421240Y4345605D1*
X1404493D1*
X934620Y4126832D2*
Y4076592D1*
X951367D1*
X958552Y4079024D1*
X963361Y4083777D1*
X965737Y4088585D1*
X968114Y4095715D1*
Y4107709D1*
X965737Y4114894D1*
X963361Y4119647D1*
X958552Y4124455D1*
X951367Y4126832D1*
X934620D1*
X988361Y4126777D2*
X1014614D1*
X1000300Y4107653D1*
X1007485D1*
X1012238Y4105277D1*
X1014614Y4102900D1*
X1017046Y4095715D1*
Y4090962D1*
X1014614Y4083777D1*
X1009861Y4078969D1*
X1002676Y4076592D1*
X995491D1*
X988361Y4078969D1*
X985985Y4081400D1*
X983553Y4086154D1*
X6453260Y2939102D2*
X6503500D1*
Y2955848D1*
X6501068Y2963033D1*
X6496315Y2967842D1*
X6491506Y2970218D1*
X6484377Y2972595D1*
X6472383D1*
X6465198Y2970218D1*
X6460445Y2967842D1*
X6455636Y2963033D1*
X6453260Y2955848D1*
Y2939102D1*
X6503500Y3011966D2*
X6453315D1*
X6486753Y2988034D1*
Y3023904D1*
X4256366Y6703677D2*
Y6653437D1*
X4273112D1*
X4280297Y6655869D1*
X4285106Y6660622D1*
X4287483Y6665431D1*
X4289859Y6672560D1*
Y6684554D1*
X4287483Y6691739D1*
X4285106Y6696492D1*
X4280297Y6701301D1*
X4273112Y6703677D1*
X4256366D1*
X4333983Y6703622D2*
X4310107D1*
X4307730Y6682122D1*
X4310107Y6684499D1*
X4317292Y6686930D1*
X4324422D1*
X4331607Y6684499D1*
X4336415Y6679745D1*
X4338792Y6672560D1*
Y6667807D1*
X4336415Y6660622D1*
X4331607Y6655814D1*
X4324422Y6653437D1*
X4317292D1*
X4310107Y6655814D1*
X4307730Y6658246D1*
X4305298Y6662999D1*
X935836Y3876806D2*
Y3826566D1*
X952583D1*
X959768Y3828998D1*
X964576Y3833751D1*
X966953Y3838559D1*
X969330Y3845689D1*
Y3857682D1*
X966953Y3864868D1*
X964576Y3869621D1*
X959768Y3874429D1*
X952583Y3876806D1*
X935836D1*
X1013454Y3869621D2*
X1011077Y3874374D1*
X1003892Y3876750D1*
X999139D1*
X991954Y3874374D1*
X987145Y3867189D1*
X984769Y3855251D1*
Y3843312D1*
X987145Y3833751D1*
X991954Y3828942D1*
X999139Y3826566D1*
X1001516D1*
X1008645Y3828942D1*
X1013454Y3833751D1*
X1015830Y3840936D1*
Y3843312D1*
X1013454Y3850497D1*
X1008645Y3855251D1*
X1001516Y3857627D1*
X999139D1*
X991954Y3855251D1*
X987145Y3850497D1*
X984769Y3843312D1*
X2473852Y1345328D2*
X2442735D1*
Y1295088D1*
Y1321396D2*
X2461858D1*
X2489291Y1345328D2*
Y1295088D1*
X2517976D1*
X2566908Y1338143D2*
X2562155Y1342951D1*
X2554970Y1345328D1*
X2545408D1*
X2538223Y1342951D1*
X2533415Y1338143D1*
Y1333390D1*
X2535847Y1328581D1*
X2538223Y1326205D1*
X2542977Y1323828D1*
X2557347Y1319020D1*
X2562155Y1316643D1*
X2564532Y1314211D1*
X2566908Y1309458D1*
Y1302273D1*
X2562155Y1297520D1*
X2554970Y1295088D1*
X2545408D1*
X2538223Y1297520D1*
X2533415Y1302273D1*
X944019Y6097482D2*
Y6059181D1*
X941643Y6052051D1*
X939266Y6049619D1*
X934458Y6047242D1*
X927272D1*
X922519Y6049619D1*
X944019Y6090297D2*
X939266Y6095051D1*
X934458Y6097482D1*
X927272D1*
X922519Y6095051D1*
X917711Y6090297D1*
X915334Y6083112D1*
Y6078304D1*
X917711Y6071174D1*
X922519Y6066366D1*
X927272Y6063989D1*
X934458D1*
X939266Y6066366D1*
X944019Y6071174D1*
X959458Y6099859D2*
Y6049619D1*
Y6092674D2*
X964267Y6097427D1*
X969020Y6099859D1*
X976205D1*
X981014Y6097427D1*
X985767Y6092674D1*
X988199Y6085489D1*
Y6080680D1*
X985767Y6073551D1*
X981014Y6068742D1*
X976205Y6066366D1*
X969020D1*
X964267Y6068742D1*
X959458Y6073551D1*
X1003638Y6116606D2*
X1006014Y6114229D1*
X1008446Y6116606D1*
X1006014Y6119037D1*
X1003638Y6116606D1*
X1006014Y6099859D2*
Y6066366D1*
X1035824Y6099859D2*
X1031071Y6097482D1*
X1026262Y6092674D1*
X1023885Y6085489D1*
Y6080736D1*
X1026262Y6073551D1*
X1031071Y6068797D1*
X1035824Y6066366D1*
X1043009D1*
X1047817Y6068797D1*
X1052570Y6073551D1*
X1055002Y6080736D1*
Y6085489D1*
X1052570Y6092674D1*
X1047817Y6097482D1*
X1043009Y6099859D1*
X1035824D1*
X1094373Y6066366D2*
Y6116550D1*
X1070441Y6083112D1*
X1106311D1*
X824539Y5072853D2*
X819786Y5070477D1*
X814978Y5065668D1*
X812601Y5060915D1*
Y5051353D1*
X814978Y5046545D1*
X819786Y5041792D1*
X824539Y5039360D1*
X831724Y5036983D1*
X843718D1*
X850848Y5039360D1*
X855656Y5041792D1*
X860409Y5046545D1*
X862841Y5051353D1*
Y5060915D1*
X860409Y5065668D1*
X855656Y5070477D1*
X850848Y5072853D1*
X843718D1*
Y5060915D1*
X838909Y5088292D2*
Y5109848D1*
X836533Y5116977D1*
X834101Y5119409D1*
X829348Y5121786D1*
X822163D1*
X817410Y5119409D1*
X814978Y5116977D1*
X812601Y5109848D1*
Y5088292D1*
X862841D1*
X812601Y5137225D2*
X862841D1*
X812601Y5167034D2*
X814978Y5162226D1*
X819786Y5157473D1*
X824539Y5155041D1*
X831724Y5152664D1*
X843718D1*
X850848Y5155041D1*
X855656Y5157473D1*
X860409Y5162226D1*
X862841Y5167034D1*
Y5176596D1*
X860409Y5181349D1*
X855656Y5186158D1*
X850848Y5188534D1*
X843718Y5190911D1*
X831724D1*
X824539Y5188534D1*
X819786Y5186158D1*
X814978Y5181349D1*
X812601Y5176596D1*
Y5167034D1*
X871132Y5206350D2*
Y5251782D1*
X824595Y5269653D2*
X822218D1*
X817410Y5272029D1*
X815033Y5274406D1*
X812656Y5279214D1*
Y5288776D1*
X815033Y5293529D1*
X817410Y5295906D1*
X822218Y5298338D1*
X826971D1*
X831780Y5295906D1*
X838909Y5291152D1*
X862841Y5267221D1*
Y5300714D1*
X812656Y5344838D2*
Y5320962D1*
X834156Y5318585D1*
X831780Y5320962D1*
X829348Y5328147D1*
Y5335277D1*
X831780Y5342462D1*
X836533Y5347270D1*
X843718Y5349647D1*
X848471D1*
X855656Y5347270D1*
X860464Y5342462D1*
X862841Y5335277D1*
Y5328147D1*
X860464Y5320962D1*
X858033Y5318585D1*
X853279Y5316153D1*
X4879664Y6211148D2*
X4929904D1*
X4879664Y6244642D2*
X4929904D1*
X4903596Y6211148D2*
Y6244642D1*
X4879664Y6291142D2*
Y6260081D1*
X4929904D1*
Y6291142D1*
X4903596Y6260081D2*
Y6279204D1*
X4879664Y6306582D2*
X4929904D1*
X4891602Y6357891D2*
X4886849Y6355514D1*
X4882041Y6350706D1*
X4879664Y6345953D1*
Y6336391D1*
X4882041Y6331583D1*
X4886849Y6326829D1*
X4891602Y6324398D1*
X4898787Y6322021D1*
X4910781D1*
X4917911Y6324398D1*
X4922719Y6326829D1*
X4927472Y6331583D1*
X4929904Y6336391D1*
Y6345953D1*
X4927472Y6350706D1*
X4922719Y6355514D1*
X4917911Y6357891D1*
X4910781D1*
Y6345953D1*
X4879664Y6373330D2*
X4929904D1*
X4879664Y6406823D2*
X4929904D1*
X4903596Y6373330D2*
Y6406823D1*
X4879664Y6439009D2*
X4929904D1*
X4879664Y6422263D2*
Y6455756D1*
X4938195Y6471195D2*
Y6516627D1*
X4879664Y6532066D2*
X4929904D1*
X4879664Y6580999D2*
X4929904D1*
X4879664Y6547505D1*
X4929904D1*
X4879664Y5536243D2*
X4929904D1*
X4879664Y5569736D2*
X4929904D1*
X4903596Y5536243D2*
Y5569736D1*
X4879664Y5616237D2*
Y5585175D1*
X4929904D1*
Y5616237D1*
X4903596Y5585175D2*
Y5604298D1*
X4879664Y5631676D2*
X4929904D1*
X4891602Y5682985D2*
X4886849Y5680608D1*
X4882041Y5675800D1*
X4879664Y5671047D1*
Y5661485D1*
X4882041Y5656677D1*
X4886849Y5651924D1*
X4891602Y5649492D1*
X4898787Y5647115D1*
X4910781D1*
X4917911Y5649492D1*
X4922719Y5651924D1*
X4927472Y5656677D1*
X4929904Y5661485D1*
Y5671047D1*
X4927472Y5675800D1*
X4922719Y5680608D1*
X4917911Y5682985D1*
X4910781D1*
Y5671047D1*
X4879664Y5698424D2*
X4929904D1*
X4879664Y5731918D2*
X4929904D1*
X4903596Y5698424D2*
Y5731918D1*
X4879664Y5764104D2*
X4929904D1*
X4879664Y5747357D2*
Y5780850D1*
X4938195Y5796289D2*
Y5841721D1*
X4879664Y5871530D2*
X4882041Y5866722D1*
X4886849Y5861969D1*
X4891602Y5859537D1*
X4898787Y5857160D1*
X4910781D1*
X4917911Y5859537D1*
X4922719Y5861969D1*
X4927472Y5866722D1*
X4929904Y5871530D1*
Y5881092D1*
X4927472Y5885845D1*
X4922719Y5890654D1*
X4917911Y5893030D1*
X4910781Y5895407D1*
X4898787D1*
X4891602Y5893030D1*
X4886849Y5890654D1*
X4882041Y5885845D1*
X4879664Y5881092D1*
Y5871530D1*
Y5910846D2*
X4915534D1*
X4922719Y5913223D1*
X4927472Y5918031D1*
X4929904Y5925216D1*
Y5929969D1*
X4927472Y5937154D1*
X4922719Y5941963D1*
X4915534Y5944339D1*
X4879664D1*
Y5976525D2*
X4929904D1*
X4879664Y5959779D2*
Y5993272D1*
X4844383Y2139092D2*
X4894623D1*
X4844383Y2172585D2*
X4894623D1*
X4868315Y2139092D2*
Y2172585D1*
X4844383Y2188024D2*
X4894623D1*
X4856321Y2239334D2*
X4851568Y2236957D1*
X4846760Y2232149D1*
X4844383Y2227395D1*
Y2217834D1*
X4846760Y2213025D1*
X4851568Y2208272D1*
X4856322Y2205840D1*
X4863507Y2203464D1*
X4875500D1*
X4882630Y2205840D1*
X4887438Y2208272D1*
X4892191Y2213025D1*
X4894623Y2217834D1*
Y2227395D1*
X4892191Y2232148D1*
X4887438Y2236957D1*
X4882630Y2239334D1*
X4875500D1*
Y2227395D1*
X4844383Y2254773D2*
X4894623D1*
X4844383Y2288266D2*
X4894623D1*
X4868315Y2254773D2*
Y2288266D1*
X4844383Y2320452D2*
X4894623D1*
X4844383Y2303705D2*
Y2337199D1*
X4902914Y2352638D2*
Y2398069D1*
X4844383Y2444570D2*
Y2413509D1*
X4894623D1*
Y2444570D1*
X4868315Y2413509D2*
Y2432632D1*
X4844383Y2493503D2*
X4894623D1*
X4844383Y2460009D1*
X4894623D1*
X4856321Y2544812D2*
X4851568Y2542435D1*
X4846760Y2537627D1*
X4844383Y2532874D1*
Y2523312D1*
X4846760Y2518504D1*
X4851568Y2513750D1*
X4856321Y2511319D1*
X4863506Y2508942D1*
X4875500D1*
X4882630Y2511319D1*
X4887438Y2513750D1*
X4892191Y2518504D1*
X4894623Y2523312D1*
Y2532874D1*
X4892191Y2537627D1*
X4887438Y2542435D1*
X4882630Y2544812D1*
X4844383Y2574621D2*
X4846760Y2569813D1*
X4851568Y2565060D1*
X4856321Y2562628D1*
X4863506Y2560251D1*
X4875500D1*
X4882630Y2562628D1*
X4887438Y2565060D1*
X4892191Y2569813D1*
X4894623Y2574621D1*
Y2584183D1*
X4892191Y2588936D1*
X4887438Y2593745D1*
X4882630Y2596121D1*
X4875500Y2598498D1*
X4863506D1*
X4856321Y2596121D1*
X4851568Y2593745D1*
X4846760Y2588936D1*
X4844383Y2584183D1*
Y2574621D1*
Y2613937D2*
X4894623D1*
Y2630684D1*
X4892191Y2637869D1*
X4887438Y2642677D1*
X4882630Y2645054D1*
X4875500Y2647430D1*
X4863506D1*
X4856321Y2645054D1*
X4851568Y2642677D1*
X4846760Y2637869D1*
X4844383Y2630684D1*
Y2613937D1*
Y2693931D2*
Y2662870D1*
X4894623D1*
Y2693931D1*
X4868315Y2662870D2*
Y2681993D1*
Y2709370D2*
Y2730870D1*
X4865883Y2738055D1*
X4863506Y2740487D1*
X4858753Y2742864D1*
X4853945D1*
X4849192Y2740487D1*
X4846760Y2738055D1*
X4844383Y2730870D1*
Y2709370D1*
X4894623D1*
X4868315Y2726117D2*
X4894623Y2742864D1*
X4844383Y1463208D2*
X4894623D1*
X4844383Y1496701D2*
X4894623D1*
X4868315Y1463208D2*
Y1496701D1*
X4844383Y1512140D2*
X4894623D1*
X4856321Y1563449D2*
X4851568Y1561073D1*
X4846760Y1556264D1*
X4844383Y1551511D1*
Y1541949D1*
X4846760Y1537141D1*
X4851568Y1532388D1*
X4856322Y1529956D1*
X4863507Y1527579D1*
X4875500D1*
X4882630Y1529956D1*
X4887438Y1532388D1*
X4892191Y1537141D1*
X4894623Y1541949D1*
Y1551511D1*
X4892191Y1556264D1*
X4887438Y1561073D1*
X4882630Y1563449D1*
X4875500D1*
Y1551511D1*
X4844383Y1578888D2*
X4894623D1*
X4844383Y1612382D2*
X4894623D1*
X4868315Y1578888D2*
Y1612382D1*
X4844383Y1644568D2*
X4894623D1*
X4844383Y1627821D2*
Y1661314D1*
X4902914Y1676754D2*
Y1722185D1*
X4894623Y1775871D2*
X4844383D1*
X4894623Y1756748D1*
X4844383Y1737624D1*
X4894623D1*
X4844383Y1805680D2*
X4846760Y1800872D1*
X4851568Y1796119D1*
X4856321Y1793687D1*
X4863507Y1791310D1*
X4875500D1*
X4882630Y1793687D1*
X4887438Y1796119D1*
X4892191Y1800872D1*
X4894623Y1805680D1*
Y1815242D1*
X4892191Y1819995D1*
X4887438Y1824803D1*
X4882630Y1827180D1*
X4875500Y1829557D1*
X4863506D1*
X4856321Y1827180D1*
X4851568Y1824803D1*
X4846760Y1819995D1*
X4844383Y1815242D1*
Y1805680D1*
Y1861743D2*
X4894623D1*
X4844383Y1844996D2*
Y1878489D1*
Y1908299D2*
X4846760Y1903490D1*
X4851568Y1898737D1*
X4856321Y1896305D1*
X4863506Y1893928D1*
X4875500D1*
X4882630Y1896305D1*
X4887438Y1898737D1*
X4892191Y1903490D1*
X4894623Y1908299D1*
Y1917860D1*
X4892191Y1922613D1*
X4887438Y1927422D1*
X4882630Y1929798D1*
X4875500Y1932175D1*
X4863506D1*
X4856321Y1929798D1*
X4851568Y1927422D1*
X4846760Y1922613D1*
X4844383Y1917860D1*
Y1908299D1*
X4868315Y1947614D2*
Y1969114D1*
X4865883Y1976299D1*
X4863506Y1978731D1*
X4858753Y1981108D1*
X4853945D1*
X4849192Y1978731D1*
X4846760Y1976299D1*
X4844383Y1969114D1*
Y1947614D1*
X4894623D1*
X4868315Y1964361D2*
X4894623Y1981108D1*
X1740829Y1333520D2*
Y1283280D1*
X1794514D2*
Y1333520D1*
X1775391Y1283280D1*
X1756268Y1333520D1*
Y1283280D1*
X1809954Y1333520D2*
Y1297650D1*
X1812330Y1290465D1*
X1817139Y1285712D1*
X1824324Y1283280D1*
X1829077D1*
X1836262Y1285712D1*
X1841070Y1290465D1*
X1843447Y1297650D1*
Y1333520D1*
X9988845Y4641779D2*
X10039085D1*
X9988845Y4690712D2*
X10039085D1*
X9988845Y4657218D1*
X10039085D1*
X10015154Y4706151D2*
Y4727706D1*
X10012777Y4734836D1*
X10010345Y4737268D1*
X10005592Y4739644D1*
X9998407D1*
X9993654Y4737268D1*
X9991222Y4734836D1*
X9988845Y4727706D1*
Y4706151D1*
X10039085D1*
X10047376Y4755083D2*
Y4800515D1*
X9988845Y4815954D2*
X10039085D1*
Y4832701D1*
X10036653Y4839886D1*
X10031900Y4844694D1*
X10027092Y4847071D1*
X10019962Y4849448D1*
X10007968D1*
X10000783Y4847071D1*
X9996030Y4844694D1*
X9991222Y4839886D1*
X9988845Y4832701D1*
Y4815954D1*
Y4864887D2*
X10039085D1*
X9988845Y4894696D2*
X9991222Y4889888D1*
X9996030Y4885134D1*
X10000783Y4882703D1*
X10007968Y4880326D1*
X10019962D1*
X10027092Y4882703D1*
X10031900Y4885134D1*
X10036653Y4889888D1*
X10039085Y4894696D1*
Y4904258D1*
X10036653Y4909011D1*
X10031900Y4913819D1*
X10027092Y4916196D1*
X10019962Y4918573D1*
X10007968D1*
X10000783Y4916196D1*
X9996030Y4913819D1*
X9991222Y4909011D1*
X9988845Y4904258D1*
Y4894696D1*
Y4934012D2*
X10039085D1*
Y4950758D1*
X10036653Y4957943D1*
X10031900Y4962752D1*
X10027092Y4965129D1*
X10019962Y4967505D1*
X10007968D1*
X10000783Y4965129D1*
X9996030Y4962752D1*
X9991222Y4957943D1*
X9988845Y4950758D1*
Y4934012D1*
Y5014006D2*
Y4982944D1*
X10039085D1*
Y5014006D1*
X10012777Y4982944D2*
Y5002068D1*
X8688155Y2444199D2*
Y2393959D1*
X8703594Y2420268D2*
X8725094D1*
X8732279Y2422700D1*
X8734711Y2425076D1*
X8737087Y2429829D1*
Y2434638D1*
X8734711Y2439391D1*
X8732279Y2441823D1*
X8725094Y2444199D1*
X8703594D1*
Y2393959D1*
X8720341Y2420268D2*
X8737087Y2393959D1*
X8752526Y2434583D2*
X8757335Y2437014D1*
X8764520Y2444144D1*
Y2393959D1*
X9124424Y2740777D2*
Y2690537D1*
X9139864Y2716845D2*
X9161363D1*
X9168549Y2719277D1*
X9170980Y2721654D1*
X9173357Y2726407D1*
Y2731215D1*
X9170980Y2735968D1*
X9168549Y2738400D1*
X9161363Y2740777D1*
X9139864D1*
Y2690537D1*
X9156610Y2716845D2*
X9173357Y2690537D1*
X9191228Y2728783D2*
Y2731160D1*
X9193605Y2735968D1*
X9195981Y2738345D1*
X9200790Y2740722D1*
X9210351D1*
X9215104Y2738345D1*
X9217481Y2735968D1*
X9219913Y2731160D1*
Y2726407D1*
X9217481Y2721598D1*
X9212728Y2714469D1*
X9188796Y2690537D1*
X9222290D1*
X1140370Y2469379D2*
Y2431133D1*
X1137994Y2423948D1*
X1135562Y2421571D1*
X1130809Y2419139D1*
X1126000D1*
X1121247Y2421571D1*
X1118870Y2423948D1*
X1116439Y2431133D1*
Y2435886D1*
X1155809Y2459762D2*
X1160618Y2462194D1*
X1167803Y2469324D1*
Y2419139D1*
X3073544Y2527113D2*
Y2488866D1*
X3071167Y2481681D1*
X3068735Y2479305D1*
X3063982Y2476873D1*
X3059174D1*
X3054420Y2479305D1*
X3052044Y2481681D1*
X3049612Y2488866D1*
Y2493620D1*
X3088983Y2517496D2*
X3093791Y2519928D1*
X3100976Y2527058D1*
Y2476873D1*
X3145101Y2519928D2*
X3142724Y2524681D1*
X3135539Y2527058D1*
X3130786D1*
X3123601Y2524681D1*
X3118792Y2517496D1*
X3116416Y2505558D1*
Y2493620D1*
X3118792Y2484058D1*
X3123601Y2479249D1*
X3130786Y2476873D1*
X3133162D1*
X3140292Y2479249D1*
X3145101Y2484058D1*
X3147477Y2491243D1*
Y2493620D1*
X3145101Y2500805D1*
X3140292Y2505558D1*
X3133162Y2507934D1*
X3130786D1*
X3123601Y2505558D1*
X3118792Y2500805D1*
X3116416Y2493620D1*
X3072379Y4253465D2*
Y4215218D1*
X3070002Y4208033D1*
X3067571Y4205656D1*
X3062817Y4203225D1*
X3058009D1*
X3053256Y4205656D1*
X3050879Y4208033D1*
X3048447Y4215218D1*
Y4219971D1*
X3087818Y4243848D2*
X3092627Y4246280D1*
X3099812Y4253409D1*
Y4203225D1*
X3124813D2*
X3148744Y4253409D1*
X3115251D1*
X2518697Y5539524D2*
Y5489284D1*
X2552191Y5539524D2*
X2518697Y5506030D1*
X2530635Y5518024D2*
X2552191Y5489284D1*
X2591561D2*
Y5539468D1*
X2567630Y5506030D1*
X2603500D1*
X3419980Y5539610D2*
Y5489370D1*
X3453473Y5539610D2*
X3419980Y5506117D1*
X3431918Y5518110D2*
X3453473Y5489370D1*
X3497597Y5539555D2*
X3473721D1*
X3471344Y5518055D1*
X3473721Y5520432D1*
X3480906Y5522864D1*
X3488036D1*
X3495221Y5520432D1*
X3500029Y5515679D1*
X3502406Y5508493D1*
Y5503740D1*
X3500029Y5496555D1*
X3495221Y5491747D1*
X3488036Y5489370D1*
X3480906D1*
X3473721Y5491747D1*
X3471344Y5494179D1*
X3468913Y5498932D1*
X6373301Y5438664D2*
X6423541D1*
Y5467349D1*
X6385239Y5518658D2*
X6380486Y5516281D1*
X6375677Y5511473D1*
X6373301Y5506720D1*
Y5497158D1*
X6375677Y5492350D1*
X6380486Y5487597D1*
X6385239Y5485165D1*
X6392424Y5482788D1*
X6404417D1*
X6411547Y5485165D1*
X6416356Y5487597D1*
X6421109Y5492350D1*
X6423541Y5497158D1*
Y5506720D1*
X6421109Y5511473D1*
X6416356Y5516281D1*
X6411547Y5518658D1*
X6373301Y5534097D2*
X6423541D1*
Y5550844D1*
X6421109Y5558029D1*
X6416356Y5562837D1*
X6411547Y5565214D1*
X6404417Y5567591D1*
X6392424D1*
X6385239Y5565214D1*
X6380486Y5562837D1*
X6375677Y5558029D1*
X6373301Y5550844D1*
Y5534097D1*
X1003687Y6483329D2*
Y6433089D1*
X1032372D1*
X1078873Y6483329D2*
X1047812D1*
Y6433089D1*
X1078873D1*
X1047812Y6459398D2*
X1066935D1*
X1094312Y6483329D2*
Y6433089D1*
X1111059D1*
X1118244Y6435521D1*
X1123052Y6440274D1*
X1125429Y6445083D1*
X1127806Y6452213D1*
Y6464206D1*
X1125429Y6471391D1*
X1123052Y6476144D1*
X1118244Y6480953D1*
X1111059Y6483329D1*
X1094312D1*
X1143245Y6424799D2*
X1188676D1*
X1204116Y6459398D2*
X1225616D1*
X1232801Y6461830D1*
X1235232Y6464206D1*
X1237609Y6468959D1*
Y6473768D1*
X1235232Y6478521D1*
X1232801Y6480953D1*
X1225616Y6483329D1*
X1204116D1*
Y6433089D1*
X1220862Y6459398D2*
X1237609Y6433089D1*
X1284110Y6483329D2*
X1253048D1*
Y6433089D1*
X1284110D1*
X1253048Y6459398D2*
X1272171D1*
X1299549Y6483329D2*
Y6433089D1*
X1328234D1*
X9789589Y7185937D2*
Y7135697D1*
X9818274D1*
X9833713Y7185937D2*
Y7135697D1*
X9887399D2*
Y7185937D1*
X9868276Y7135697D1*
X9849152Y7185937D1*
Y7135697D1*
X9902838Y7176320D2*
X9907647Y7178752D1*
X9914832Y7185882D1*
Y7135697D1*
X9930271Y7127407D2*
X9975702D1*
X9991142Y7176320D2*
X9995950Y7178752D1*
X10003135Y7185882D1*
Y7135697D1*
X10018574Y7127407D2*
X10064006D1*
X10081877Y7173943D2*
Y7176320D1*
X10084254Y7181129D1*
X10086630Y7183505D1*
X10091439Y7185882D1*
X10101000D1*
X10105754Y7183505D1*
X10108130Y7181129D1*
X10110562Y7176320D1*
Y7171567D1*
X10108130Y7166758D1*
X10103377Y7159629D1*
X10079445Y7135697D1*
X10112939D1*
X9280192Y7149068D2*
Y7098828D1*
X9308877D1*
X9324316Y7149068D2*
Y7098828D1*
X9378002D2*
Y7149068D1*
X9358879Y7098828D1*
X9339755Y7149068D1*
Y7098828D1*
X9395873Y7137075D2*
Y7139451D1*
X9398250Y7144260D1*
X9400626Y7146636D1*
X9405435Y7149013D1*
X9414996D1*
X9419750Y7146636D1*
X9422126Y7144260D1*
X9424558Y7139451D1*
Y7134698D1*
X9422126Y7129890D1*
X9417373Y7122760D1*
X9393441Y7098828D1*
X9426935D1*
X9442374Y7090538D2*
X9487805D1*
X9503245Y7139451D2*
X9508053Y7141883D1*
X9515238Y7149013D1*
Y7098828D1*
X9530677Y7090538D2*
X9576109D1*
X9593980Y7137075D2*
Y7139451D1*
X9596357Y7144260D1*
X9598733Y7146636D1*
X9603542Y7149013D1*
X9613103D1*
X9617856Y7146636D1*
X9620233Y7144260D1*
X9622665Y7139451D1*
Y7134698D1*
X9620233Y7129890D1*
X9615480Y7122760D1*
X9591548Y7098828D1*
X9625042D1*
X7695877Y2433854D2*
Y2383614D1*
X7724562D1*
X7778248D2*
Y2433854D1*
X7759125Y2383614D1*
X7740002Y2433854D1*
Y2383614D1*
X7793687Y2424237D2*
X7798496Y2426669D1*
X7805681Y2433799D1*
Y2383614D1*
X7821120Y2375324D2*
X7866552D1*
X7920237Y2383614D2*
Y2433854D1*
X7901114Y2383614D1*
X7881991Y2433854D1*
Y2383614D1*
X7950047Y2433854D2*
X7945238Y2431478D1*
X7940485Y2426669D1*
X7938053Y2421916D1*
X7935677Y2414731D1*
Y2402738D1*
X7938053Y2395608D1*
X7940485Y2390799D1*
X7945238Y2386046D1*
X7950047Y2383614D1*
X7959608D1*
X7964361Y2386046D1*
X7969170Y2390799D1*
X7971547Y2395608D1*
X7973923Y2402738D1*
Y2414731D1*
X7971547Y2421916D1*
X7969170Y2426669D1*
X7964361Y2431478D1*
X7959608Y2433854D1*
X7950047D1*
X8006109D2*
Y2383614D1*
X7989362Y2433854D2*
X8022856D1*
X8038295Y2375324D2*
X8083727D1*
X8099166Y2433854D2*
Y2383614D1*
X8115912D1*
X8123097Y2386046D1*
X8127906Y2390799D1*
X8130283Y2395608D1*
X8132659Y2402738D1*
Y2414731D1*
X8130283Y2421916D1*
X8127906Y2426669D1*
X8123097Y2431478D1*
X8115912Y2433854D1*
X8099166D1*
X8148098Y2409923D2*
X8169598D1*
X8176783Y2412354D1*
X8179215Y2414731D1*
X8181592Y2419484D1*
Y2424293D1*
X8179215Y2429046D1*
X8176783Y2431478D1*
X8169598Y2433854D1*
X8148098D1*
Y2383614D1*
X8164845Y2409923D2*
X8181592Y2383614D1*
X8197031Y2433854D2*
X8216154Y2383614D1*
X8235277Y2433854D1*
X8065625Y2771812D2*
Y2721572D1*
X8094310D1*
X8147996D2*
Y2771812D1*
X8128872Y2721572D1*
X8109749Y2771812D1*
Y2721572D1*
X8165867Y2759819D2*
Y2762195D1*
X8168243Y2767004D1*
X8170620Y2769380D1*
X8175428Y2771757D1*
X8184990D1*
X8189743Y2769380D1*
X8192120Y2767004D1*
X8194552Y2762195D1*
Y2757442D1*
X8192120Y2752634D1*
X8187366Y2745504D1*
X8163435Y2721572D1*
X8196928D1*
X8212367Y2713282D2*
X8257799D1*
X8311485Y2721572D2*
Y2771812D1*
X8292361Y2721572D1*
X8273238Y2771812D1*
Y2721572D1*
X8341294Y2771812D2*
X8336486Y2769436D1*
X8331732Y2764627D1*
X8329300Y2759874D1*
X8326924Y2752689D1*
Y2740696D1*
X8329300Y2733566D1*
X8331732Y2728757D1*
X8336486Y2724004D1*
X8341294Y2721572D1*
X8350856D1*
X8355609Y2724004D1*
X8360417Y2728757D1*
X8362794Y2733566D1*
X8365170Y2740696D1*
Y2752689D1*
X8362794Y2759874D1*
X8360417Y2764627D1*
X8355609Y2769436D1*
X8350856Y2771812D1*
X8341294D1*
X8397356D2*
Y2721572D1*
X8380610Y2771812D2*
X8414103D1*
X8429542Y2713282D2*
X8474974D1*
X8490413Y2771812D2*
Y2721572D1*
X8507160D1*
X8514345Y2724004D1*
X8519153Y2728757D1*
X8521530Y2733566D1*
X8523906Y2740696D1*
Y2752689D1*
X8521530Y2759874D1*
X8519153Y2764627D1*
X8514345Y2769436D1*
X8507160Y2771812D1*
X8490413D1*
X8539346Y2747881D2*
X8560845D1*
X8568031Y2750312D1*
X8570462Y2752689D1*
X8572839Y2757442D1*
Y2762251D1*
X8570462Y2767004D1*
X8568031Y2769436D1*
X8560845Y2771812D1*
X8539346D1*
Y2721572D1*
X8556092Y2747881D2*
X8572839Y2721572D1*
X8588278Y2771812D2*
X8607401Y2721572D1*
X8626525Y2771812D1*
X1322418Y7041448D2*
Y7091688D1*
X1303294Y7041448D1*
X1284171Y7091688D1*
Y7041448D1*
X1376159D2*
X1356980Y7091688D1*
X1337857Y7041448D1*
X1345042Y7058195D2*
X1368974D1*
X1391598Y7091688D2*
Y7041448D1*
X1440530Y7091688D2*
Y7041448D1*
X1407037Y7091688D1*
Y7041448D1*
X1455970Y7033158D2*
X1501401D1*
X1516841Y7065380D2*
X1538396D1*
X1545525Y7067757D1*
X1547957Y7070188D1*
X1550334Y7074942D1*
Y7082127D1*
X1547957Y7086880D1*
X1545525Y7089312D1*
X1538396Y7091688D1*
X1516841D1*
Y7041448D1*
X1565773Y7091688D2*
X1577767Y7041448D1*
X1589705Y7091688D1*
X1601643Y7041448D1*
X1613637Y7091688D1*
X1629076Y7067757D2*
X1650576D1*
X1657761Y7070188D1*
X1660192Y7072565D1*
X1662569Y7077318D1*
Y7082127D1*
X1660192Y7086880D1*
X1657761Y7089312D1*
X1650576Y7091688D1*
X1629076D1*
Y7041448D1*
X1645822Y7067757D2*
X1662569Y7041448D1*
X4537265Y1345328D2*
Y1295088D1*
X4503772Y1345328D1*
Y1295088D1*
X4591006D2*
X4571828Y1345328D1*
X4552705Y1295088D1*
X4559890Y1311835D2*
X4583821D1*
X4639939Y1345328D2*
Y1295088D1*
X4606446Y1345328D1*
Y1295088D1*
X4655378Y1345328D2*
Y1295088D1*
X4672125D1*
X4679310Y1297520D1*
X4684118Y1302273D1*
X4686495Y1307082D1*
X4688872Y1314211D1*
Y1326205D1*
X4686495Y1333390D1*
X4684118Y1338143D1*
X4679310Y1342951D1*
X4672125Y1345328D1*
X4655378D1*
X4704311Y1286798D2*
X4749742D1*
X4796298Y1345328D2*
X4765182D1*
Y1295088D1*
Y1321396D2*
X4784305D1*
X4811738D2*
X4833237D1*
X4840422Y1323828D1*
X4842854Y1326205D1*
X4845231Y1330958D1*
Y1335766D1*
X4842854Y1340520D1*
X4840422Y1342951D1*
X4833237Y1345328D1*
X4811738D1*
Y1295088D1*
X4828484Y1321396D2*
X4845231Y1295088D1*
X4896540Y1333390D2*
X4894164Y1338143D1*
X4889355Y1342951D1*
X4884602Y1345328D1*
X4875040D1*
X4870232Y1342951D1*
X4865479Y1338143D1*
X4863047Y1333390D1*
X4860670Y1326205D1*
Y1314211D1*
X4863047Y1307082D1*
X4865479Y1302273D1*
X4870232Y1297520D1*
X4875040Y1295088D1*
X4884602D1*
X4889355Y1297520D1*
X4894164Y1302273D1*
X4896540Y1307082D1*
X4911979Y1286798D2*
X4957411D1*
X4972850Y1345328D2*
Y1295088D1*
X4994405D1*
X5001590Y1297520D1*
X5003967Y1299897D1*
X5006343Y1304650D1*
Y1311835D1*
X5003967Y1316643D1*
X5001590Y1319020D1*
X4994405Y1321396D1*
X5001590Y1323828D1*
X5003967Y1326205D1*
X5006343Y1330958D1*
Y1335766D1*
X5003967Y1340520D1*
X5001590Y1342951D1*
X4994405Y1345328D1*
X4972850D1*
Y1321396D2*
X4994405D1*
X3044547Y1339077D2*
Y1288837D1*
X3011053Y1339077D1*
Y1288837D1*
X3098288D2*
X3079109Y1339077D1*
X3059986Y1288837D1*
X3067171Y1305584D2*
X3091103D1*
X3147220Y1339077D2*
Y1288837D1*
X3113727Y1339077D1*
Y1288837D1*
X3162660Y1339077D2*
Y1288837D1*
X3179406D1*
X3186591Y1291269D1*
X3191400Y1296022D1*
X3193776Y1300831D1*
X3196153Y1307961D1*
Y1319954D1*
X3193776Y1327139D1*
X3191400Y1331892D1*
X3186591Y1336701D1*
X3179406Y1339077D1*
X3162660D1*
X3211592Y1280547D2*
X3257024D1*
X3303580Y1339077D2*
X3272463D1*
Y1288837D1*
Y1315146D2*
X3291586D1*
X3319019D2*
X3340519D1*
X3347704Y1317578D1*
X3350136Y1319954D1*
X3352512Y1324707D1*
Y1329516D1*
X3350136Y1334269D1*
X3347704Y1336701D1*
X3340519Y1339077D1*
X3319019D1*
Y1288837D1*
X3335766Y1315146D2*
X3352512Y1288837D1*
X3403822Y1327139D2*
X3401445Y1331892D1*
X3396637Y1336701D1*
X3391883Y1339077D1*
X3382322D1*
X3377513Y1336701D1*
X3372760Y1331892D1*
X3370328Y1327139D1*
X3367952Y1319954D1*
Y1307961D1*
X3370328Y1300831D1*
X3372760Y1296022D1*
X3377513Y1291269D1*
X3382322Y1288837D1*
X3391883D1*
X3396637Y1291269D1*
X3401445Y1296022D1*
X3403822Y1300831D1*
X3419261Y1280547D2*
X3464692D1*
X3511248Y1339077D2*
X3480132D1*
Y1288837D1*
Y1315146D2*
X3499255D1*
X686641Y7077881D2*
X708196D1*
X715326Y7080258D1*
X717758Y7082690D1*
X720134Y7087443D1*
Y7094628D1*
X717758Y7099381D1*
X715326Y7101813D1*
X708196Y7104190D1*
X686641D1*
Y7053950D1*
X735574Y7104190D2*
Y7053950D1*
X751013Y7079042D2*
X778648D1*
X810834Y7104190D2*
Y7053950D1*
X794087Y7104190D2*
X827580D1*
X843019D2*
Y7053950D1*
X858459Y7104190D2*
X877582Y7053950D1*
X896705Y7104190D1*
X950446Y7053950D2*
X931268Y7104190D1*
X912145Y7053950D1*
X919330Y7070696D2*
X943261D1*
X965886Y7045659D2*
X1011317D1*
X1026756Y7077881D2*
X1048311D1*
X1055441Y7080258D1*
X1057873Y7082690D1*
X1060250Y7087443D1*
Y7094628D1*
X1057873Y7099381D1*
X1055441Y7101813D1*
X1048311Y7104190D1*
X1026756D1*
Y7053950D1*
X1075689Y7104190D2*
X1087682Y7053950D1*
X1099621Y7104190D1*
X1111559Y7053950D1*
X1123552Y7104190D1*
X1138992Y7080258D2*
X1160491D1*
X1167676Y7082690D1*
X1170108Y7085066D1*
X1172485Y7089820D1*
Y7094628D1*
X1170108Y7099381D1*
X1167676Y7101813D1*
X1160491Y7104190D1*
X1138992D1*
Y7053950D1*
X1155738Y7080258D2*
X1172485Y7053950D1*
X6549715Y2448234D2*
X6571270D1*
X6578399Y2450610D1*
X6580831Y2453042D1*
X6583208Y2457795D1*
Y2464980D1*
X6580831Y2469734D1*
X6578399Y2472165D1*
X6571270Y2474542D1*
X6549715D1*
Y2424302D1*
X6598647Y2474542D2*
Y2424302D1*
X6647580Y2467357D2*
X6642827Y2472165D1*
X6635641Y2474542D1*
X6626080D1*
X6618895Y2472165D1*
X6614086Y2467357D1*
Y2462604D1*
X6616518Y2457795D1*
X6618895Y2455419D1*
X6623648Y2453042D1*
X6638018Y2448234D1*
X6642827Y2445857D1*
X6645203Y2443425D1*
X6647580Y2438672D1*
Y2431487D1*
X6642827Y2426734D1*
X6635641Y2424302D1*
X6626080D1*
X6618895Y2426734D1*
X6614086Y2431487D1*
X6679766Y2474542D2*
Y2424302D1*
X6663019Y2474542D2*
X6696512D1*
X6726322D2*
X6721513Y2472165D1*
X6716760Y2467357D1*
X6714328Y2462604D1*
X6711952Y2455419D1*
Y2443425D1*
X6714328Y2436295D1*
X6716760Y2431487D1*
X6721513Y2426734D1*
X6726322Y2424302D1*
X6735883D1*
X6740636Y2426734D1*
X6745445Y2431487D1*
X6747821Y2436295D1*
X6750198Y2443425D1*
Y2455419D1*
X6747821Y2462604D1*
X6745445Y2467357D1*
X6740636Y2472165D1*
X6735883Y2474542D1*
X6726322D1*
X6799131D2*
Y2424302D1*
X6765637Y2474542D1*
Y2424302D1*
X9731243Y3937944D2*
X9726490Y3935622D1*
X9721681Y3930814D1*
X9719305Y3926005D1*
X9716873Y3918820D1*
Y3906882D1*
X9719305Y3899697D1*
X9721681Y3894944D1*
X9726490Y3890135D1*
X9731243Y3887759D1*
X9740805D1*
X9745613Y3890135D1*
X9750366Y3894944D1*
X9752743Y3899697D1*
X9755175Y3906882D1*
Y3918820D1*
X9752743Y3926005D1*
X9750366Y3930814D1*
X9745613Y3935622D1*
X9740805Y3937944D1*
X9731243D1*
X9738428Y3897320D2*
X9752743Y3882950D1*
X9770614Y3928327D2*
X9775422Y3930759D1*
X9782607Y3937888D1*
Y3887704D1*
X6663961Y2967659D2*
Y2989159D1*
X6661529Y2996344D1*
X6659152Y2998776D1*
X6654399Y3001153D1*
X6649591D1*
X6644837Y2998776D1*
X6642406Y2996344D1*
X6640029Y2989159D1*
Y2967659D1*
X6690269D1*
X6663961Y2984406D2*
X6690269Y3001152D1*
Y3040523D2*
X6640084D1*
X6673522Y3016592D1*
Y3052462D1*
X9265861Y3842707D2*
X9287360D1*
X9294545Y3845139D1*
X9296977Y3847516D1*
X9299354Y3852269D1*
Y3857077D1*
X9296977Y3861831D1*
X9294545Y3864262D1*
X9287360Y3866639D1*
X9265861D1*
Y3816399D1*
X9282607Y3842707D2*
X9299354Y3816399D1*
X9343478Y3866584D2*
X9319602D1*
X9317225Y3845084D1*
X9319602Y3847461D1*
X9326787Y3849892D1*
X9333916D1*
X9341101Y3847461D1*
X9345910Y3842707D1*
X9348286Y3835522D1*
Y3830769D1*
X9345910Y3823584D1*
X9341101Y3818776D1*
X9333916Y3816399D1*
X9326787D1*
X9319602Y3818776D1*
X9317225Y3821208D1*
X9314793Y3825961D1*
X1422939Y6459398D2*
X1444439D1*
X1451624Y6461830D1*
X1454055Y6464206D1*
X1456432Y6468959D1*
Y6473768D1*
X1454055Y6478521D1*
X1451624Y6480953D1*
X1444439Y6483329D1*
X1422939D1*
Y6433089D1*
X1439685Y6459398D2*
X1456432Y6433089D1*
X1471871Y6424799D2*
X1517303D1*
X1532742Y6459398D2*
X1554242D1*
X1561427Y6461830D1*
X1563859Y6464206D1*
X1566235Y6468959D1*
Y6473768D1*
X1563859Y6478521D1*
X1561427Y6480953D1*
X1554242Y6483329D1*
X1532742D1*
Y6433089D1*
X1549489Y6459398D2*
X1566235Y6433089D1*
X1612736Y6483329D2*
X1581675D1*
Y6433089D1*
X1612736D1*
X1581675Y6459398D2*
X1600798D1*
X1628175Y6483329D2*
Y6433089D1*
X1656860D1*
X1710601D2*
X1691423Y6483329D1*
X1672300Y6433089D1*
X1679485Y6449836D2*
X1703416D1*
X1726041Y6483329D2*
X1745164Y6459398D1*
Y6433089D1*
X1764287Y6483329D2*
X1745164Y6459398D1*
X3080876Y1854277D2*
X3102376D1*
X3109561Y1856709D1*
X3111993Y1859085D1*
X3114369Y1863839D1*
Y1868647D1*
X3111993Y1873400D1*
X3109561Y1875832D1*
X3102376Y1878209D1*
X3080876D1*
Y1827969D1*
X3097622Y1854277D2*
X3114369Y1827969D1*
X3129808Y1851900D2*
X3151364D1*
X3158493Y1854277D1*
X3160925Y1856709D1*
X3163302Y1861462D1*
Y1868647D1*
X3160925Y1873400D1*
X3158493Y1875832D1*
X3151364Y1878209D1*
X3129808D1*
Y1827969D1*
X3178741Y1878209D2*
Y1827969D1*
X9503254Y2426669D2*
X9498501Y2431478D1*
X9491316Y2433854D1*
X9481754D1*
X9474569Y2431478D1*
X9469761Y2426669D1*
Y2421916D1*
X9472192Y2417108D1*
X9474569Y2414731D1*
X9479322Y2412354D1*
X9493692Y2407546D1*
X9498501Y2405169D1*
X9500877Y2402738D1*
X9503254Y2397984D1*
Y2390799D1*
X9498501Y2386046D1*
X9491316Y2383614D1*
X9481754D1*
X9474569Y2386046D1*
X9469761Y2390799D1*
X9549755Y2433854D2*
X9518693D1*
Y2383614D1*
X9549755D1*
X9518693Y2409923D2*
X9537816D1*
X9565194D2*
X9586694D1*
X9593879Y2412354D1*
X9596311Y2414731D1*
X9598687Y2419484D1*
Y2424293D1*
X9596311Y2429046D1*
X9593879Y2431478D1*
X9586694Y2433854D1*
X9565194D1*
Y2383614D1*
X9581941Y2409923D2*
X9598687Y2383614D1*
X9614126Y2433854D2*
X9633250Y2383614D1*
X9652373Y2433854D1*
X9682182D2*
X9677374Y2431478D1*
X9672621Y2426669D1*
X9670189Y2421916D1*
X9667812Y2414731D1*
Y2402738D1*
X9670189Y2395608D1*
X9672621Y2390799D1*
X9677374Y2386046D1*
X9682182Y2383614D1*
X9691744D1*
X9696497Y2386046D1*
X9701306Y2390799D1*
X9703682Y2395608D1*
X9706059Y2402738D1*
Y2414731D1*
X9703682Y2421916D1*
X9701306Y2426669D1*
X9696497Y2431478D1*
X9691744Y2433854D1*
X9682182D1*
X9721498Y2424237D2*
X9726306Y2426669D1*
X9733491Y2433799D1*
Y2383614D1*
X9957165Y2426669D2*
X9952412Y2431478D1*
X9945227Y2433854D1*
X9935666D1*
X9928480Y2431478D1*
X9923672Y2426669D1*
Y2421916D1*
X9926104Y2417108D1*
X9928480Y2414731D1*
X9933234Y2412354D1*
X9947604Y2407546D1*
X9952412Y2405169D1*
X9954789Y2402738D1*
X9957165Y2397984D1*
Y2390799D1*
X9952412Y2386046D1*
X9945227Y2383614D1*
X9935666D1*
X9928480Y2386046D1*
X9923672Y2390799D1*
X10003666Y2433854D2*
X9972605D1*
Y2383614D1*
X10003666D1*
X9972605Y2409923D2*
X9991728D1*
X10019105D2*
X10040605D1*
X10047790Y2412354D1*
X10050222Y2414731D1*
X10052599Y2419484D1*
Y2424293D1*
X10050222Y2429046D1*
X10047790Y2431478D1*
X10040605Y2433854D1*
X10019105D1*
Y2383614D1*
X10035852Y2409923D2*
X10052599Y2383614D1*
X10068038Y2433854D2*
X10087161Y2383614D1*
X10106284Y2433854D1*
X10136094D2*
X10131285Y2431478D1*
X10126532Y2426669D1*
X10124100Y2421916D1*
X10121724Y2414731D1*
Y2402738D1*
X10124100Y2395608D1*
X10126532Y2390799D1*
X10131285Y2386046D1*
X10136094Y2383614D1*
X10145655D1*
X10150409Y2386046D1*
X10155217Y2390799D1*
X10157594Y2395608D1*
X10159970Y2402738D1*
Y2414731D1*
X10157594Y2421916D1*
X10155217Y2426669D1*
X10150409Y2431478D1*
X10145655Y2433854D1*
X10136094D1*
X10177841Y2421861D2*
Y2424237D1*
X10180218Y2429046D1*
X10182594Y2431422D1*
X10187403Y2433799D1*
X10196965D1*
X10201718Y2431422D1*
X10204094Y2429046D1*
X10206526Y2424237D1*
Y2419484D1*
X10204094Y2414676D1*
X10199341Y2407546D1*
X10175409Y2383614D1*
X10208903D1*
X6942894Y3587203D2*
X6993134D1*
X6942894Y3570456D2*
Y3603950D1*
X7001424Y3619389D2*
Y3664820D1*
X6993134Y3718561D2*
X6942894Y3699383D1*
X6993134Y3680260D1*
X6976387Y3687445D2*
Y3711376D1*
X7001424Y3734001D2*
Y3779432D1*
X6969202Y3794871D2*
Y3816427D1*
X6966825Y3823556D1*
X6964394Y3825988D1*
X6959640Y3828365D1*
X6952455D1*
X6947702Y3825988D1*
X6945270Y3823556D1*
X6942894Y3816427D1*
Y3794871D1*
X6993134D1*
X6942894Y3843804D2*
X6993134Y3855797D1*
X6942894Y3867736D1*
X6993134Y3879674D1*
X6942894Y3891667D1*
X6993134Y3945353D2*
X6942894D1*
X6993134Y3926230D1*
X6942894Y3907107D1*
X6993134D1*
X7001424Y3960792D2*
Y4006224D1*
X6942894Y4021663D2*
X6993134D1*
Y4050348D1*
Y4104034D2*
X6942894D1*
X6993134Y4084911D1*
X6942894Y4065787D1*
X6993134D1*
X6952511Y4119473D2*
X6950079Y4124282D1*
X6942949Y4131467D1*
X6993134D1*
X7001424Y4146906D2*
Y4192337D1*
X6942894Y4207777D2*
X6993134D1*
X6942894Y4241270D2*
X6993134D1*
X6966825Y4207777D2*
Y4241270D1*
X6950079Y4290203D2*
X6945270Y4285449D1*
X6942894Y4278264D1*
Y4268703D1*
X6945270Y4261518D1*
X6950079Y4256709D1*
X6954832D1*
X6959640Y4259141D1*
X6962017Y4261518D1*
X6964394Y4266271D1*
X6969202Y4280641D1*
X6971579Y4285449D1*
X6974010Y4287826D1*
X6978764Y4290203D1*
X6985949D1*
X6990702Y4285449D1*
X6993134Y4278264D1*
Y4268703D1*
X6990702Y4261518D1*
X6985949Y4256709D1*
X7426357Y3589616D2*
X7476597D1*
X7426357Y3572870D2*
Y3606363D1*
X7484887Y3621802D2*
Y3667234D1*
X7476597Y3720975D2*
X7426357Y3701796D1*
X7476597Y3682673D1*
X7459850Y3689858D2*
Y3713790D1*
X7484887Y3736414D2*
Y3781846D1*
X7452665Y3797285D2*
Y3818840D1*
X7450289Y3825970D1*
X7447857Y3828402D1*
X7443104Y3830778D1*
X7435919D1*
X7431165Y3828402D1*
X7428734Y3825970D1*
X7426357Y3818840D1*
Y3797285D1*
X7476597D1*
X7426357Y3846217D2*
X7476597Y3858211D1*
X7426357Y3870149D1*
X7476597Y3882087D1*
X7426357Y3894081D1*
X7476597Y3947767D2*
X7426357D1*
X7476597Y3928643D1*
X7426357Y3909520D1*
X7476597D1*
X7484887Y3963206D2*
Y4008637D1*
X7426357Y4024077D2*
X7476597D1*
Y4052762D1*
Y4106447D2*
X7426357D1*
X7476597Y4087324D1*
X7426357Y4068201D1*
X7476597D1*
X7435974Y4121887D2*
X7433542Y4126695D1*
X7426412Y4133880D1*
X7476597D1*
X7484887Y4149319D2*
Y4194751D1*
X7426357Y4210190D2*
X7476597D1*
Y4238875D1*
X7433542Y4287808D2*
X7428734Y4283054D1*
X7426357Y4275869D1*
Y4266308D1*
X7428734Y4259123D1*
X7433542Y4254314D1*
X7438295D1*
X7443104Y4256746D1*
X7445480Y4259123D1*
X7447857Y4263876D1*
X7452665Y4278246D1*
X7455042Y4283054D1*
X7457474Y4285431D1*
X7462227Y4287808D1*
X7469412D1*
X7474165Y4283054D1*
X7476597Y4275869D1*
Y4266308D1*
X7474165Y4259123D1*
X7469412Y4254314D1*
X6062576Y6951922D2*
Y6901682D1*
X6045829Y6951922D2*
X6079323D1*
X6094762D2*
X6097139Y6949545D1*
X6099571Y6951922D1*
X6097139Y6954354D1*
X6094762Y6951922D1*
X6097139Y6935175D2*
Y6901682D1*
X6115010Y6935175D2*
X6129380Y6901682D1*
X6143695Y6935175D1*
X6187819D2*
Y6901682D1*
Y6927990D2*
X6183066Y6932799D1*
X6178257Y6935175D1*
X6171127D1*
X6166319Y6932799D1*
X6161566Y6927990D1*
X6159134Y6920805D1*
Y6916052D1*
X6161566Y6908867D1*
X6166319Y6904114D1*
X6171127Y6901682D1*
X6178257D1*
X6183066Y6904114D1*
X6187819Y6908867D1*
X7010951Y5427606D2*
X7061192D1*
X7010951Y5410860D2*
X7010952Y5444353D1*
Y5459792D2*
X7061192D1*
X7010952Y5475231D2*
X7061191Y5494355D1*
X7010952Y5513478D1*
X7061191Y5567219D2*
X7010952Y5548040D1*
X7061191Y5528917D1*
X7044445Y5536102D2*
Y5560034D1*
X7069482Y5582658D2*
Y5628090D1*
X7010952Y5643529D2*
X7061191D1*
Y5672214D1*
X8710951Y5426982D2*
X8761192D1*
X8710951Y5410235D2*
X8710952Y5443728D1*
Y5459168D2*
X8761192Y5459167D1*
X8710952Y5474607D2*
X8761191Y5493730D1*
X8710952Y5512853D1*
X8761191Y5566594D2*
X8710952Y5547416D1*
X8761191Y5528292D1*
X8744445Y5535478D2*
Y5559409D1*
X8769482Y5582034D2*
Y5627465D1*
X8734883Y5642904D2*
Y5664404D1*
X8732451Y5671589D1*
X8730075Y5674021D1*
X8725322Y5676398D1*
X8720513D1*
X8715760Y5674021D1*
X8713328Y5671589D1*
X8710951Y5664404D1*
X8710952Y5642904D1*
X8761191D1*
X8734883Y5659651D2*
X8761191Y5676398D1*
X8202560Y3634774D2*
X8252800D1*
X8202560Y3618027D2*
Y3651521D1*
X8252800Y3705206D2*
X8202560D1*
X8252800Y3686083D1*
X8202560Y3666960D1*
X8252800D1*
X8261091Y3720646D2*
Y3766077D1*
X8252800Y3819818D2*
X8202560Y3800640D1*
X8252800Y3781516D1*
X8236054Y3788702D2*
Y3812633D1*
X8252800Y3873504D2*
X8202560D1*
X8252800Y3854381D1*
X8202560Y3835258D1*
X8252800Y3835257D1*
X8261091Y3888943D2*
Y3934375D1*
X8202560Y3949814D2*
X8252800D1*
Y3978499D1*
X8202560Y3993938D2*
X8252800D1*
Y4022623D1*
X8214499Y4073932D2*
X8209745Y4071556D1*
X8204937Y4066747D1*
X8202560Y4061994D1*
Y4052432D1*
X8204937Y4047624D1*
X8209745Y4042871D1*
X8214499Y4040439D1*
X8221684Y4038062D1*
X8233677D1*
X8240807Y4040439D1*
X8245615Y4042871D1*
X8250369Y4047624D1*
X8252800Y4052432D1*
Y4061994D1*
X8250369Y4066747D1*
X8245615Y4071556D1*
X8240807Y4073932D1*
X8261091Y4089372D2*
Y4134803D1*
X8202560Y4150242D2*
X8252800D1*
X8202560Y4183736D2*
X8252800D1*
X8226492Y4150242D2*
Y4183736D1*
X8209745Y4232668D2*
X8204937Y4227915D1*
X8202560Y4220730D1*
Y4211168D1*
X8204937Y4203983D1*
X8209745Y4199175D1*
X8214499D1*
X8219307Y4201607D1*
X8221684Y4203983D1*
X8224060Y4208737D1*
X8228869Y4223107D1*
X8231245Y4227915D1*
X8233677Y4230292D1*
X8238430Y4232668D1*
X8245615D1*
X8250369Y4227915D1*
X8252800Y4220730D1*
Y4211168D1*
X8250369Y4203983D1*
X8245615Y4199175D1*
X8686026Y3637189D2*
X8736266D1*
X8686026Y3620442D2*
Y3653935D1*
X8736266Y3707621D2*
X8686026D1*
X8736266Y3688498D1*
X8686026Y3669375D1*
X8736266D1*
X8744557Y3723060D2*
Y3768492D1*
X8736266Y3822233D2*
X8686026Y3803054D1*
X8736266Y3783931D1*
X8719520Y3791116D2*
Y3815048D1*
X8736266Y3875919D2*
X8686026D1*
X8736266Y3856795D1*
X8686026Y3837672D1*
X8736266D1*
X8744557Y3891358D2*
Y3936790D1*
X8686026Y3952229D2*
X8736266D1*
Y3980914D1*
X8686026Y3996353D2*
X8736266D1*
Y4025038D1*
X8697965Y4076347D2*
X8693211Y4073970D1*
X8688403Y4069162D1*
X8686026Y4064409D1*
Y4054847D1*
X8688403Y4050039D1*
X8693211Y4045286D1*
X8697965Y4042854D1*
X8705150Y4040477D1*
X8717143D1*
X8724273Y4042854D1*
X8729081Y4045286D1*
X8733834Y4050039D1*
X8736266Y4054847D1*
Y4064409D1*
X8733834Y4069162D1*
X8729081Y4073970D1*
X8724273Y4076347D1*
X8744557Y4091786D2*
Y4137218D1*
X8686026Y4152657D2*
X8736266D1*
Y4181342D1*
X8693211Y4230275D2*
X8688403Y4225521D1*
X8686026Y4218336D1*
Y4208775D1*
X8688403Y4201590D1*
X8693211Y4196781D1*
X8697964D1*
X8702773Y4199213D1*
X8705150Y4201590D1*
X8707526Y4206343D1*
X8712335Y4220713D1*
X8714711Y4225521D1*
X8717143Y4227898D1*
X8721896Y4230275D1*
X8729081D1*
X8733834Y4225521D1*
X8736266Y4218336D1*
Y4208775D1*
X8733834Y4201590D1*
X8729081Y4196781D1*
X5898329Y2433854D2*
Y2383614D1*
X5881582Y2433854D2*
X5915075D1*
X5968761Y2383614D2*
Y2433854D1*
X5949638Y2383614D1*
X5930514Y2433854D1*
Y2383614D1*
X5984200Y2375324D2*
X6029632D1*
X6076133Y2433854D2*
X6045071D1*
Y2383614D1*
X6076133D1*
X6045071Y2409923D2*
X6064194D1*
X6125065Y2433854D2*
Y2383614D1*
X6091572Y2433854D1*
Y2383614D1*
X6176374Y2421916D2*
X6173998Y2426669D1*
X6169189Y2431478D1*
X6164436Y2433854D1*
X6154874D1*
X6150066Y2431478D1*
X6145313Y2426669D1*
X6142881Y2421916D1*
X6140504Y2414731D1*
Y2402738D1*
X6142881Y2395608D1*
X6145313Y2390799D1*
X6150066Y2386046D1*
X6154874Y2383614D1*
X6164436D1*
X6169189Y2386046D1*
X6173998Y2390799D1*
X6176374Y2395608D1*
X6206184Y2433854D2*
X6201375Y2431478D1*
X6196622Y2426669D1*
X6194190Y2421916D1*
X6191814Y2414731D1*
Y2402738D1*
X6194190Y2395608D1*
X6196622Y2390799D1*
X6201375Y2386046D1*
X6206184Y2383614D1*
X6215745D1*
X6220498Y2386046D1*
X6225307Y2390799D1*
X6227683Y2395608D1*
X6230060Y2402738D1*
Y2414731D1*
X6227683Y2421916D1*
X6225307Y2426669D1*
X6220498Y2431478D1*
X6215745Y2433854D1*
X6206184D1*
X6245499D2*
Y2383614D1*
X6262246D1*
X6269431Y2386046D1*
X6274239Y2390799D1*
X6276616Y2395608D1*
X6278993Y2402738D1*
Y2414731D1*
X6276616Y2421916D1*
X6274239Y2426669D1*
X6269431Y2431478D1*
X6262246Y2433854D1*
X6245499D1*
X6325493D2*
X6294432D1*
Y2383614D1*
X6325493D1*
X6294432Y2409923D2*
X6313555D1*
X6340933D2*
X6362432D1*
X6369618Y2412354D1*
X6372049Y2414731D1*
X6374426Y2419484D1*
Y2424293D1*
X6372049Y2429046D1*
X6369618Y2431478D1*
X6362432Y2433854D1*
X6340933D1*
Y2383614D1*
X6357679Y2409923D2*
X6374426Y2383614D1*
X7228505Y2761466D2*
Y2711226D1*
X7211759Y2761466D2*
X7245252D1*
X7298938Y2711226D2*
Y2761466D1*
X7279814Y2711226D1*
X7260691Y2761466D1*
Y2711226D1*
X7314377Y2702935D2*
X7359808D1*
X7413494Y2711226D2*
Y2761466D1*
X7394371Y2711226D1*
X7375248Y2761466D1*
Y2711226D1*
X7443304Y2761466D2*
X7438495Y2759089D1*
X7433742Y2754281D1*
X7431310Y2749528D1*
X7428933Y2742343D1*
Y2730349D1*
X7431310Y2723219D1*
X7433742Y2718411D1*
X7438495Y2713658D1*
X7443304Y2711226D1*
X7452865D1*
X7457618Y2713658D1*
X7462427Y2718411D1*
X7464803Y2723219D1*
X7467180Y2730349D1*
Y2742343D1*
X7464803Y2749528D1*
X7462427Y2754281D1*
X7457618Y2759089D1*
X7452865Y2761466D1*
X7443304D1*
X7499366D2*
Y2711226D1*
X7482619Y2761466D2*
X7516113D1*
X7531552Y2702935D2*
X7576983D1*
X7592423Y2761466D2*
Y2711226D1*
X7609169D1*
X7616354Y2713658D1*
X7621163Y2718411D1*
X7623539Y2723219D1*
X7625916Y2730349D1*
Y2742343D1*
X7623539Y2749528D1*
X7621163Y2754281D1*
X7616354Y2759089D1*
X7609169Y2761466D1*
X7592423D1*
X7641355Y2737534D2*
X7662855D1*
X7670040Y2739966D1*
X7672472Y2742343D1*
X7674849Y2747096D1*
Y2751904D1*
X7672472Y2756657D1*
X7670040Y2759089D1*
X7662855Y2761466D1*
X7641355D1*
Y2711226D1*
X7658102Y2737534D2*
X7674849Y2711226D1*
X7690288Y2761466D2*
Y2711226D1*
X7705727Y2761466D2*
X7724850Y2711226D1*
X7743974Y2761466D1*
X7790474D2*
X7759413D1*
Y2711226D1*
X7790474D1*
X7759413Y2737534D2*
X7778536D1*
X7805913D2*
X7827413D1*
X7834598Y2739966D1*
X7837030Y2742343D1*
X7839407Y2747096D1*
Y2751904D1*
X7837030Y2756657D1*
X7834598Y2759089D1*
X7827413Y2761466D1*
X7805913D1*
Y2711226D1*
X7822660Y2737534D2*
X7839407Y2711226D1*
X4251317Y7336598D2*
Y7300728D1*
X4253694Y7293543D1*
X4258502Y7288790D1*
X4265687Y7286358D1*
X4270440D1*
X4277626Y7288790D1*
X4282434Y7293543D1*
X4284811Y7300728D1*
Y7336598D1*
X4302682Y7324604D2*
Y7326981D1*
X4305058Y7331789D1*
X4307435Y7334166D1*
X4312243Y7336542D1*
X4321805D1*
X4326558Y7334166D1*
X4328935Y7331789D1*
X4331367Y7326981D1*
Y7322228D1*
X4328935Y7317419D1*
X4324182Y7310289D1*
X4300250Y7286358D1*
X4333743D1*
X9477263Y6521852D2*
Y6485982D1*
X9479640Y6478797D1*
X9484448Y6474044D1*
X9491633Y6471612D1*
X9496387D1*
X9503572Y6474044D1*
X9508380Y6478797D1*
X9510757Y6485982D1*
Y6521852D1*
X9531004Y6521797D2*
X9557257D1*
X9542943Y6502674D1*
X9550128D1*
X9554881Y6500297D1*
X9557257Y6497921D1*
X9559689Y6490736D1*
Y6485982D1*
X9557257Y6478797D1*
X9552504Y6473989D1*
X9545319Y6471612D1*
X9538134D1*
X9531004Y6473989D1*
X9528628Y6476421D1*
X9526196Y6481174D1*
X9635570Y4613334D2*
X9671440D1*
X9678625Y4615711D1*
X9683378Y4620519D1*
X9685810Y4627704D1*
Y4632457D1*
X9683378Y4639642D1*
X9678625Y4644451D1*
X9671440Y4646828D1*
X9635570D1*
Y4662267D2*
X9685810D1*
Y4690952D1*
X9635570Y4739884D2*
X9685810D1*
X9635570Y4706391D1*
X9685810D1*
X9694100Y4755323D2*
Y4800755D1*
X9635570Y4816194D2*
X9685810D1*
Y4832941D1*
X9683378Y4840126D1*
X9678625Y4844934D1*
X9673816Y4847311D1*
X9666686Y4849688D1*
X9654693D1*
X9647508Y4847311D1*
X9642755Y4844934D1*
X9637946Y4840126D1*
X9635570Y4832941D1*
Y4816194D1*
Y4865127D2*
X9685810D1*
X9635570Y4894936D2*
X9637946Y4890128D1*
X9642755Y4885375D1*
X9647508Y4882943D1*
X9654693Y4880566D1*
X9666686D1*
X9673816Y4882943D1*
X9678625Y4885375D1*
X9683378Y4890128D1*
X9685810Y4894936D1*
Y4904498D1*
X9683378Y4909251D1*
X9678625Y4914059D1*
X9673816Y4916436D1*
X9666686Y4918813D1*
X9654693D1*
X9647508Y4916436D1*
X9642755Y4914059D1*
X9637946Y4909251D1*
X9635570Y4904498D1*
Y4894936D1*
Y4934252D2*
X9685810D1*
Y4950999D1*
X9683378Y4958184D1*
X9678625Y4962992D1*
X9673816Y4965369D1*
X9666686Y4967745D1*
X9654693D1*
X9647508Y4965369D1*
X9642755Y4962992D1*
X9637946Y4958184D1*
X9635570Y4950999D1*
Y4934252D1*
Y5014246D2*
Y4983184D1*
X9685810D1*
Y5014246D1*
X9659501Y4983184D2*
Y5002308D1*
X1112579Y4645636D2*
Y4609767D1*
X1114956Y4602581D1*
X1119764Y4597828D1*
X1126949Y4595396D1*
X1131702D1*
X1138887Y4597828D1*
X1143696Y4602581D1*
X1146072Y4609767D1*
Y4645636D1*
X1161512D2*
Y4595396D1*
X1190197D1*
X1239129Y4645636D2*
Y4595396D1*
X1205636Y4645636D1*
Y4595396D1*
X1254568Y4587106D2*
X1300000D1*
X1315439Y4621705D2*
X1336939D1*
X1344124Y4624137D1*
X1346556Y4626513D1*
X1348933Y4631266D1*
Y4636075D1*
X1346556Y4640828D1*
X1344124Y4643260D1*
X1336939Y4645636D1*
X1315439D1*
Y4595396D1*
X1332186Y4621705D2*
X1348933Y4595396D1*
X1395433Y4645636D2*
X1364372D1*
Y4595396D1*
X1395433D1*
X1364372Y4621705D2*
X1383495D1*
X1444366Y4638451D2*
X1439613Y4643260D1*
X1432428Y4645636D1*
X1422866D1*
X1415681Y4643260D1*
X1410872Y4638451D1*
Y4633698D1*
X1413304Y4628890D1*
X1415681Y4626513D1*
X1420434Y4624137D1*
X1434804Y4619328D1*
X1439613Y4616952D1*
X1441989Y4614520D1*
X1444366Y4609767D1*
Y4602581D1*
X1439613Y4597828D1*
X1432428Y4595396D1*
X1422866D1*
X1415681Y4597828D1*
X1410872Y4602581D1*
X6169478Y4934186D2*
Y4898316D1*
X6171855Y4891131D1*
X6176663Y4886378D1*
X6183848Y4883946D1*
X6188601D1*
X6195786Y4886378D1*
X6200595Y4891131D1*
X6202971Y4898316D1*
Y4934186D1*
X6242342Y4883946D2*
Y4934130D1*
X6218411Y4900692D1*
X6254281D1*
X6164416Y5509246D2*
Y5473376D1*
X6166792Y5466191D1*
X6171601Y5461438D1*
X6178786Y5459006D1*
X6183539D1*
X6190724Y5461438D1*
X6195532Y5466191D1*
X6197909Y5473376D1*
Y5509246D1*
X6242033Y5509191D2*
X6218157D1*
X6215780Y5487691D1*
X6218157Y5490068D1*
X6225342Y5492499D1*
X6232471D1*
X6239657Y5490068D1*
X6244465Y5485314D1*
X6246842Y5478129D1*
Y5473376D1*
X6244465Y5466191D1*
X6239657Y5461383D1*
X6232471Y5459006D1*
X6225342D1*
X6218157Y5461383D1*
X6215780Y5463814D1*
X6213348Y5468568D1*
X9028432Y3546540D2*
Y3510670D1*
X9030809Y3503485D1*
X9035617Y3498732D1*
X9042802Y3496300D1*
X9047555D1*
X9054740Y3498732D1*
X9059549Y3503485D1*
X9061925Y3510670D1*
Y3546540D1*
X9106050Y3539355D2*
X9103673Y3544108D1*
X9096488Y3546485D1*
X9091735D1*
X9084550Y3544108D1*
X9079741Y3536923D1*
X9077365Y3524985D1*
Y3513047D1*
X9079741Y3503485D1*
X9084550Y3498677D1*
X9091735Y3496300D1*
X9094111D1*
X9101241Y3498677D1*
X9106050Y3503485D1*
X9108426Y3510670D1*
Y3513047D1*
X9106050Y3520232D1*
X9101241Y3524985D1*
X9094111Y3527361D1*
X9091735D1*
X9084550Y3524985D1*
X9079741Y3520232D1*
X9077365Y3513047D1*
X9658532Y3571543D2*
Y3535673D1*
X9660909Y3528488D1*
X9665717Y3523734D1*
X9672903Y3521303D1*
X9677656D1*
X9684841Y3523734D1*
X9689649Y3528488D1*
X9692026Y3535673D1*
Y3571543D1*
X9717027Y3521303D2*
X9740958Y3571487D1*
X9707465D1*
X6783241Y1536920D2*
Y1486680D1*
X6799988D1*
X6807173Y1489112D1*
X6811981Y1493865D1*
X6814358Y1498674D1*
X6816734Y1505804D1*
Y1517797D1*
X6814358Y1524982D1*
X6811981Y1529735D1*
X6807173Y1534544D1*
X6799988Y1536920D1*
X6783241D1*
X6841735Y1486680D2*
X6865667Y1536865D1*
X6832174D1*
X6500747Y1243138D2*
Y1192898D1*
X6517493D1*
X6524678Y1195330D1*
X6529487Y1200083D1*
X6531863Y1204892D1*
X6534240Y1212021D1*
Y1224015D1*
X6531863Y1231200D1*
X6529487Y1235953D1*
X6524678Y1240762D1*
X6517493Y1243138D1*
X6500747D1*
X6552111Y1231145D2*
Y1233521D1*
X6554488Y1238330D1*
X6556864Y1240706D1*
X6561673Y1243083D1*
X6571234D1*
X6575987Y1240706D1*
X6578364Y1238330D1*
X6580796Y1233521D1*
Y1228768D1*
X6578364Y1223960D1*
X6573611Y1216830D1*
X6549679Y1192898D1*
X6583172D1*
X6598612Y1233521D2*
X6603420Y1235953D1*
X6610605Y1243083D1*
Y1192898D1*
X6477494Y1530668D2*
Y1480428D1*
X6494241D1*
X6501426Y1482860D1*
X6506234Y1487613D1*
X6508611Y1492422D1*
X6510987Y1499552D1*
Y1511545D1*
X6508611Y1518730D1*
X6506234Y1523483D1*
X6501426Y1528292D1*
X6494241Y1530668D1*
X6477494D1*
X6528858Y1518675D2*
Y1521052D1*
X6531235Y1525860D1*
X6533612Y1528237D1*
X6538420Y1530613D1*
X6547982D1*
X6552735Y1528237D1*
X6555111Y1525860D1*
X6557543Y1521052D1*
Y1516298D1*
X6555111Y1511490D1*
X6550358Y1504360D1*
X6526427Y1480428D1*
X6559920D1*
X6577791Y1518675D2*
Y1521052D1*
X6580168Y1525860D1*
X6582544Y1528237D1*
X6587353Y1530613D1*
X6596914D1*
X6601667Y1528237D1*
X6604044Y1525860D1*
X6606476Y1521052D1*
Y1516298D1*
X6604044Y1511490D1*
X6599291Y1504360D1*
X6575359Y1480428D1*
X6608852D1*
X6783777Y1230638D2*
Y1180398D1*
X6800524D1*
X6807709Y1182830D1*
X6812518Y1187583D1*
X6814894Y1192392D1*
X6817271Y1199521D1*
Y1211515D1*
X6814894Y1218700D1*
X6812518Y1223453D1*
X6807709Y1228262D1*
X6800524Y1230638D1*
X6783777D1*
X6835142Y1218645D2*
Y1221021D1*
X6837518Y1225830D1*
X6839895Y1228206D1*
X6844704Y1230583D1*
X6854265D1*
X6859018Y1228206D1*
X6861395Y1225830D1*
X6863827Y1221021D1*
Y1216268D1*
X6861395Y1211460D1*
X6856642Y1204330D1*
X6832710Y1180398D1*
X6866203D1*
X6886451Y1230583D2*
X6912704D1*
X6898389Y1211460D1*
X6905574D1*
X6910327Y1209083D1*
X6912704Y1206707D1*
X6915136Y1199521D1*
Y1194768D1*
X6912704Y1187583D1*
X6907951Y1182775D1*
X6900766Y1180398D1*
X6893581D1*
X6886451Y1182775D1*
X6884074Y1185207D1*
X6881643Y1189960D1*
X5908413Y1426281D2*
Y1388034D1*
X5906036Y1380849D1*
X5903604Y1378473D1*
X5898851Y1376041D1*
X5894042D1*
X5889289Y1378473D1*
X5886913Y1380849D1*
X5884481Y1388034D1*
Y1392787D1*
X5947783Y1376041D2*
Y1426226D1*
X5923852Y1392787D1*
X5959722D1*
X6006278Y1409534D2*
X6003846Y1402349D1*
X5999093Y1397541D1*
X5991908Y1395164D1*
X5989531D1*
X5982346Y1397541D1*
X5977593Y1402349D1*
X5975161Y1409534D1*
Y1411911D1*
X5977593Y1419096D1*
X5982346Y1423849D1*
X5989531Y1426226D1*
X5991908D1*
X5999093Y1423849D1*
X6003846Y1419096D1*
X6006278Y1409534D1*
Y1397541D1*
X6003846Y1385602D1*
X5999093Y1378417D1*
X5991908Y1376041D1*
X5987154D1*
X5979969Y1378417D1*
X5977593Y1383226D1*
X6208093Y1304679D2*
X6229593D1*
X6236778Y1307110D1*
X6239210Y1309487D1*
X6241586Y1314240D1*
Y1319049D1*
X6239210Y1323802D1*
X6236778Y1326234D1*
X6229593Y1328610D1*
X6208093D1*
Y1278370D1*
X6224840Y1304679D2*
X6241586Y1278370D1*
X6257026Y1318993D2*
X6261834Y1321425D1*
X6269019Y1328555D1*
Y1278370D1*
X6286890Y1316617D2*
Y1318993D1*
X6289267Y1323802D1*
X6291643Y1326178D1*
X6296452Y1328555D1*
X6306013D1*
X6310767Y1326178D1*
X6313143Y1323802D1*
X6315575Y1318993D1*
Y1314240D1*
X6313143Y1309432D1*
X6308390Y1302302D1*
X6284458Y1278370D1*
X6317952D1*
X6188202Y1403551D2*
X6209702D1*
X6216887Y1405983D1*
X6219319Y1408360D1*
X6221695Y1413113D1*
Y1417921D1*
X6219319Y1422674D1*
X6216887Y1425106D1*
X6209702Y1427483D1*
X6188202D1*
Y1377243D1*
X6204949Y1403551D2*
X6221695Y1377243D1*
X6237134Y1417866D2*
X6241943Y1420298D1*
X6249128Y1427428D1*
Y1377243D1*
X6269376Y1427428D2*
X6295629D1*
X6281314Y1408304D1*
X6288499D1*
X6293252Y1405928D1*
X6295629Y1403551D1*
X6298061Y1396366D1*
Y1391613D1*
X6295629Y1384428D1*
X6290876Y1379620D1*
X6283690Y1377243D1*
X6276505D1*
X6269376Y1379620D1*
X6266999Y1382051D1*
X6264567Y1386805D1*
X6200654Y1173416D2*
X6222154D1*
X6229339Y1175848D1*
X6231771Y1178224D1*
X6234147Y1182978D1*
Y1187786D1*
X6231771Y1192539D1*
X6229339Y1194971D1*
X6222154Y1197348D1*
X6200654D1*
Y1147108D1*
X6217401Y1173416D2*
X6234147Y1147108D1*
X6249587Y1187731D2*
X6254395Y1190163D1*
X6261580Y1197292D1*
Y1147108D1*
X6300951D2*
Y1197292D1*
X6277019Y1163854D1*
X6312889D1*
X6191092Y1042152D2*
X6212592D1*
X6219777Y1044584D1*
X6222209Y1046961D1*
X6224586Y1051714D1*
Y1056522D1*
X6222209Y1061276D1*
X6219777Y1063707D1*
X6212592Y1066084D1*
X6191092D1*
Y1015844D1*
X6207839Y1042152D2*
X6224586Y1015844D1*
X6244833Y1066029D2*
X6271086D1*
X6256772Y1046905D1*
X6263957D1*
X6268710Y1044529D1*
X6271086Y1042152D1*
X6273518Y1034967D1*
Y1030214D1*
X6271086Y1023029D1*
X6266333Y1018221D1*
X6259148Y1015844D1*
X6251963D1*
X6244833Y1018221D1*
X6242457Y1020652D1*
X6240025Y1025406D1*
X6298519Y1015844D2*
X6322451Y1066029D1*
X6288958D1*
X8412911Y1530670D2*
Y1480430D1*
X8429658D1*
X8436843Y1482862D1*
X8441651Y1487615D1*
X8444028Y1492423D1*
X8446404Y1499553D1*
Y1511546D1*
X8444028Y1518732D1*
X8441651Y1523485D1*
X8436843Y1528293D1*
X8429658Y1530670D1*
X8412911D1*
X8461844Y1521053D2*
X8466652Y1523485D1*
X8473837Y1530614D1*
Y1480430D1*
X8133383Y1236888D2*
Y1186648D1*
X8150130D1*
X8157315Y1189079D1*
X8162123Y1193833D1*
X8164500Y1198641D1*
X8166876Y1205771D1*
Y1217764D1*
X8164500Y1224949D1*
X8162123Y1229703D1*
X8157315Y1234511D1*
X8150130Y1236888D1*
X8133383D1*
X8184747Y1224894D2*
Y1227271D1*
X8187124Y1232079D1*
X8189500Y1234456D1*
X8194309Y1236832D1*
X8203871D1*
X8208624Y1234456D1*
X8211000Y1232079D1*
X8213432Y1227271D1*
Y1222518D1*
X8211000Y1217709D1*
X8206247Y1210579D1*
X8182315Y1186648D1*
X8215809D1*
X8120908Y1524418D2*
Y1474178D1*
X8137655D1*
X8144840Y1476610D1*
X8149648Y1481363D1*
X8152025Y1486171D1*
X8154401Y1493301D1*
Y1505295D1*
X8152025Y1512480D1*
X8149648Y1517233D1*
X8144840Y1522041D1*
X8137655Y1524418D1*
X8120908D1*
X8181779Y1524362D2*
X8174649Y1521986D1*
X8172217Y1517233D1*
Y1512424D1*
X8174649Y1507671D1*
X8179402Y1505239D1*
X8188964Y1502863D1*
X8196149Y1500486D1*
X8200902Y1495678D1*
X8203279Y1490924D1*
Y1483739D1*
X8200902Y1478986D1*
X8198525Y1476554D1*
X8191340Y1474178D1*
X8181779D1*
X8174649Y1476554D1*
X8172217Y1478986D1*
X8169840Y1483739D1*
Y1490924D1*
X8172217Y1495678D1*
X8177025Y1500486D1*
X8184155Y1502863D1*
X8193717Y1505239D1*
X8198525Y1507671D1*
X8200902Y1512424D1*
Y1517233D1*
X8198525Y1521986D1*
X8191340Y1524362D1*
X8181779D1*
X8428352Y1224388D2*
Y1174148D1*
X8445099D1*
X8452284Y1176579D1*
X8457092Y1181333D1*
X8459469Y1186141D1*
X8461845Y1193271D1*
Y1205264D1*
X8459469Y1212449D1*
X8457092Y1217203D1*
X8452284Y1222011D1*
X8445099Y1224388D1*
X8428352D1*
X8508401Y1207641D2*
X8505969Y1200456D1*
X8501216Y1195647D1*
X8494031Y1193271D1*
X8491655D1*
X8484470Y1195647D1*
X8479716Y1200456D1*
X8477285Y1207641D1*
Y1210018D1*
X8479716Y1217203D1*
X8484470Y1221956D1*
X8491655Y1224332D1*
X8494031D1*
X8501216Y1221956D1*
X8505969Y1217203D1*
X8508401Y1207641D1*
Y1195647D1*
X8505969Y1183709D1*
X8501216Y1176524D1*
X8494031Y1174148D1*
X8489278D1*
X8482093Y1176524D1*
X8479716Y1181333D1*
X7531832Y1420030D2*
Y1381784D1*
X7529455Y1374599D1*
X7527023Y1372222D1*
X7522270Y1369790D1*
X7517462D1*
X7512708Y1372222D1*
X7510332Y1374599D1*
X7507900Y1381784D1*
Y1386537D1*
X7547271Y1410413D2*
X7552079Y1412845D1*
X7559264Y1419975D1*
Y1369790D1*
X7589074Y1419975D2*
X7581889Y1417598D1*
X7577080Y1410413D1*
X7574704Y1398475D1*
Y1391290D1*
X7577080Y1379352D1*
X7581889Y1372167D1*
X7589074Y1369790D1*
X7593827D1*
X7601012Y1372167D1*
X7605765Y1379352D1*
X7608197Y1391290D1*
Y1398475D1*
X7605765Y1410413D1*
X7601012Y1417598D1*
X7593827Y1419975D1*
X7589074D1*
X7605765Y1410413D2*
X7577080Y1379352D1*
X7845229Y1292177D2*
X7866728D1*
X7873913Y1294609D1*
X7876345Y1296986D1*
X7878722Y1301739D1*
Y1306547D1*
X7876345Y1311300D1*
X7873913Y1313732D1*
X7866728Y1316109D1*
X7845229D1*
Y1265869D1*
X7861975Y1292177D2*
X7878722Y1265869D1*
X7894161Y1306492D2*
X7898970Y1308924D1*
X7906155Y1316054D1*
Y1265869D1*
X7821977Y1442193D2*
X7843477D1*
X7850662Y1444625D1*
X7853094Y1447001D1*
X7855471Y1451755D1*
Y1456563D1*
X7853094Y1461316D1*
X7850662Y1463748D1*
X7843477Y1466125D1*
X7821977D1*
Y1415885D1*
X7838724Y1442193D2*
X7855471Y1415885D1*
X7873342Y1454131D2*
Y1456508D1*
X7875718Y1461316D1*
X7878095Y1463693D1*
X7882903Y1466069D1*
X7892465D1*
X7897218Y1463693D1*
X7899595Y1461316D1*
X7902027Y1456508D1*
Y1451755D1*
X7899595Y1446946D1*
X7894842Y1439816D1*
X7870910Y1415885D1*
X7904403D1*
X7834479Y1167165D2*
X7855978D1*
X7863164Y1169597D1*
X7865595Y1171974D1*
X7867972Y1176727D1*
Y1181535D1*
X7865595Y1186289D1*
X7863164Y1188721D1*
X7855978Y1191097D1*
X7834479D1*
Y1140857D1*
X7851225Y1167165D2*
X7867972Y1140857D1*
X7888220Y1191042D2*
X7914473D1*
X7900158Y1171919D1*
X7907343D1*
X7912096Y1169542D1*
X7914473Y1167165D1*
X7916905Y1159980D1*
Y1155227D1*
X7914473Y1148042D1*
X7909720Y1143234D1*
X7902534Y1140857D1*
X7895349D1*
X7888220Y1143234D1*
X7885843Y1145666D1*
X7883411Y1150419D1*
X7835695Y1035902D2*
X7857194D1*
X7864379Y1038333D1*
X7866811Y1040710D1*
X7869188Y1045463D1*
Y1050272D1*
X7866811Y1055025D1*
X7864379Y1057457D1*
X7857194Y1059833D1*
X7835695D1*
Y1009593D1*
X7852441Y1035902D2*
X7869188Y1009593D1*
X7913312Y1052648D2*
X7910935Y1057401D1*
X7903750Y1059778D1*
X7898997D1*
X7891812Y1057401D1*
X7887004Y1050216D1*
X7884627Y1038278D1*
Y1026340D1*
X7887004Y1016778D1*
X7891812Y1011970D1*
X7898997Y1009593D1*
X7901374D1*
X7908504Y1011970D1*
X7913312Y1016778D1*
X7915689Y1023963D1*
Y1026340D1*
X7913312Y1033525D1*
X7908504Y1038278D1*
X7901374Y1040655D1*
X7898997D1*
X7891812Y1038278D1*
X7887004Y1033525D1*
X7884627Y1026340D1*
X9994863Y1511918D2*
Y1461678D1*
X10011610D1*
X10018795Y1464110D1*
X10023603Y1468863D1*
X10025980Y1473671D1*
X10028357Y1480801D1*
Y1492795D1*
X10025980Y1499980D1*
X10023603Y1504733D1*
X10018795Y1509541D1*
X10011610Y1511918D1*
X9994863D1*
X10043796Y1502301D2*
X10048604Y1504733D1*
X10055789Y1511862D1*
Y1461678D1*
X10085599Y1511862D2*
X10078414Y1509486D1*
X10073605Y1502301D1*
X10071229Y1490363D1*
Y1483178D1*
X10073605Y1471239D1*
X10078414Y1464054D1*
X10085599Y1461678D1*
X10090352D1*
X10097537Y1464054D1*
X10102290Y1471239D1*
X10104722Y1483178D1*
Y1490363D1*
X10102290Y1502301D1*
X10097537Y1509486D1*
X10090352Y1511862D1*
X10085599D1*
X10102290Y1502301D2*
X10073605Y1471239D1*
X9736835Y1218136D2*
Y1167896D1*
X9753582D1*
X9760767Y1170327D1*
X9765575Y1175081D1*
X9767952Y1179889D1*
X9770328Y1187019D1*
Y1199012D1*
X9767952Y1206197D1*
X9765575Y1210951D1*
X9760767Y1215759D1*
X9753582Y1218136D1*
X9736835D1*
X9785768Y1208519D2*
X9790576Y1210951D1*
X9797761Y1218080D1*
Y1167896D1*
X9813200Y1208519D2*
X9818009Y1210951D1*
X9825194Y1218080D1*
Y1167896D1*
X9713582Y1505666D2*
Y1455426D1*
X9730329D1*
X9737514Y1457858D1*
X9742323Y1462611D1*
X9744699Y1467419D1*
X9747076Y1474549D1*
Y1486543D1*
X9744699Y1493728D1*
X9742323Y1498481D1*
X9737514Y1503289D1*
X9730329Y1505666D1*
X9713582D1*
X9762515Y1496049D2*
X9767324Y1498481D1*
X9774509Y1505611D1*
Y1455426D1*
X9792380Y1493672D2*
Y1496049D1*
X9794756Y1500857D1*
X9797133Y1503234D1*
X9801941Y1505611D1*
X9811503D1*
X9816256Y1503234D1*
X9818633Y1500857D1*
X9821065Y1496049D1*
Y1491296D1*
X9818633Y1486487D1*
X9813880Y1479358D1*
X9789948Y1455426D1*
X9823441D1*
X10019866Y1205636D2*
Y1155396D1*
X10036613D1*
X10043798Y1157827D1*
X10048606Y1162581D1*
X10050983Y1167389D1*
X10053359Y1174519D1*
Y1186512D1*
X10050983Y1193697D1*
X10048606Y1198451D1*
X10043798Y1203259D1*
X10036613Y1205636D1*
X10019866D1*
X10068799Y1196019D2*
X10073607Y1198451D1*
X10080792Y1205580D1*
Y1155396D1*
X10101040Y1205580D2*
X10127293D1*
X10112978Y1186457D1*
X10120163D1*
X10124916Y1184080D1*
X10127293Y1181704D1*
X10129725Y1174519D1*
Y1169766D1*
X10127293Y1162581D1*
X10122540Y1157772D1*
X10115355Y1155396D1*
X10108169D1*
X10101040Y1157772D1*
X10098663Y1160204D1*
X10096231Y1164957D1*
X9149000Y1401278D2*
Y1363032D1*
X9146624Y1355847D1*
X9144192Y1353470D1*
X9139439Y1351038D1*
X9134630D1*
X9129877Y1353470D1*
X9127500Y1355847D1*
X9125069Y1363032D1*
Y1367785D1*
X9164440Y1391661D2*
X9169248Y1394093D1*
X9176433Y1401223D1*
Y1351038D1*
X9191872Y1391661D2*
X9196681Y1394093D1*
X9203866Y1401223D1*
Y1351038D1*
X9447148Y1279676D2*
X9468648D1*
X9475833Y1282108D1*
X9478265Y1284484D1*
X9480641Y1289238D1*
Y1294046D1*
X9478265Y1298799D1*
X9475833Y1301231D1*
X9468648Y1303608D1*
X9447148D1*
Y1253368D1*
X9463895Y1279676D2*
X9480641Y1253368D1*
X9505642D2*
X9529574Y1303552D1*
X9496081D1*
X9428424Y1429692D2*
X9449923D1*
X9457108Y1432123D1*
X9459540Y1434500D1*
X9461917Y1439253D1*
Y1444062D1*
X9459540Y1448815D1*
X9457108Y1451247D1*
X9449923Y1453623D1*
X9428424D1*
Y1403383D1*
X9445170Y1429692D2*
X9461917Y1403383D1*
X9489294Y1453568D2*
X9482165Y1451191D1*
X9479733Y1446438D1*
Y1441630D1*
X9482165Y1436877D1*
X9486918Y1434445D1*
X9496479Y1432068D1*
X9503664Y1429692D1*
X9508418Y1424883D1*
X9510794Y1420130D1*
Y1412945D1*
X9508418Y1408192D1*
X9506041Y1405760D1*
X9498856Y1403383D1*
X9489294D1*
X9482165Y1405760D1*
X9479733Y1408192D1*
X9477356Y1412945D1*
Y1420130D1*
X9479733Y1424883D1*
X9484541Y1429692D1*
X9491671Y1432068D1*
X9501233Y1434445D1*
X9506041Y1436877D1*
X9508418Y1441630D1*
Y1446438D1*
X9506041Y1451191D1*
X9498856Y1453568D1*
X9489294D1*
X9442086Y1148413D2*
X9463585D1*
X9470770Y1150845D1*
X9473202Y1153222D1*
X9475579Y1157975D1*
Y1162783D1*
X9473202Y1167537D1*
X9470770Y1169969D1*
X9463585Y1172345D1*
X9442086D1*
Y1122105D1*
X9458832Y1148413D2*
X9475579Y1122105D1*
X9522135Y1155598D2*
X9519703Y1148413D1*
X9514950Y1143605D1*
X9507765Y1141228D1*
X9505388D1*
X9498203Y1143605D1*
X9493450Y1148413D1*
X9491018Y1155598D1*
Y1157975D1*
X9493450Y1165160D1*
X9498203Y1169913D1*
X9505388Y1172290D1*
X9507765D1*
X9514950Y1169913D1*
X9519703Y1165160D1*
X9522135Y1155598D1*
Y1143605D1*
X9519703Y1131667D1*
X9514950Y1124482D1*
X9507765Y1122105D1*
X9503012D1*
X9495827Y1124482D1*
X9493450Y1129290D1*
X9427181Y1017150D2*
X9448681D1*
X9455866Y1019581D1*
X9458298Y1021958D1*
X9460674Y1026711D1*
Y1031520D1*
X9458298Y1036273D1*
X9455866Y1038705D1*
X9448681Y1041081D1*
X9427181D1*
Y990841D1*
X9443928Y1017150D2*
X9460674Y990841D1*
X9476113Y1031464D2*
X9480922Y1033896D1*
X9488107Y1041026D1*
Y990841D1*
X9517916Y1041026D2*
X9510731Y1038649D1*
X9505923Y1031464D1*
X9503546Y1019526D1*
Y1012341D1*
X9505923Y1000403D1*
X9510731Y993218D1*
X9517916Y990841D1*
X9522669D1*
X9529855Y993218D1*
X9534608Y1000403D1*
X9537040Y1012341D1*
Y1019526D1*
X9534608Y1031464D1*
X9529855Y1038649D1*
X9522669Y1041026D1*
X9517916D1*
X9534608Y1031464D2*
X9505923Y1000403D1*
X858068Y4189309D2*
X807828D1*
X858068Y4170186D1*
X807828Y4151062D1*
X858068D1*
X807828Y4235810D2*
Y4204748D1*
X858068D1*
Y4235810D1*
X831760Y4204748D2*
Y4223871D1*
X819766Y4287119D2*
X815013Y4284742D1*
X810205Y4279934D1*
X807828Y4275180D1*
Y4265619D1*
X810205Y4260810D1*
X815013Y4256057D1*
X819766Y4253625D1*
X826951Y4251249D1*
X838945D1*
X846075Y4253625D1*
X850883Y4256057D1*
X855636Y4260810D1*
X858068Y4265619D1*
Y4275180D1*
X855636Y4279934D1*
X850883Y4284742D1*
X846075Y4287119D1*
X807828Y4302558D2*
X858068D1*
X807828Y4336051D2*
X858068D1*
X831760Y4302558D2*
Y4336051D1*
X858068Y4389792D2*
X807828Y4370614D1*
X858068Y4351491D1*
X841321Y4358676D2*
Y4382607D1*
X807828Y4438725D2*
X858068D1*
X807828Y4405232D1*
X858068D1*
X807828Y4454164D2*
X858068D1*
X815013Y4503097D2*
X810205Y4498344D1*
X807828Y4491158D1*
Y4481597D1*
X810205Y4474412D1*
X815013Y4469603D1*
X819766D1*
X824575Y4472035D1*
X826951Y4474412D1*
X829328Y4479165D1*
X834136Y4493535D1*
X836513Y4498344D1*
X838945Y4500720D1*
X843698Y4503097D1*
X850883D1*
X855636Y4498344D1*
X858068Y4491158D1*
Y4481597D1*
X855636Y4474412D1*
X850883Y4469603D1*
X858068Y4556782D2*
X807828D1*
X858068Y4537659D1*
X807828Y4518536D1*
X858068D1*
X866359Y4572222D2*
Y4617653D1*
X807828Y4633093D2*
X858068D1*
Y4661777D1*
X807828Y4708278D2*
Y4677217D1*
X858068D1*
Y4708278D1*
X831760Y4677217D2*
Y4696340D1*
X807828Y4723717D2*
X858068D1*
Y4740464D1*
X855636Y4747649D1*
X850883Y4752458D1*
X846075Y4754834D1*
X838945Y4757211D1*
X826951D1*
X819766Y4754834D1*
X815013Y4752458D1*
X810205Y4747649D1*
X807828Y4740464D1*
Y4723717D1*
X10011158Y2693109D2*
D102*
Y2727509D1*
X10007267Y2739005D1*
X10003465Y2742896D1*
X9995860Y2746698D1*
X9988166D1*
X9980561Y2742896D1*
X9976670Y2739005D1*
X9972868Y2727509D1*
Y2693109D1*
X10053252D1*
X10011158Y2719904D2*
X10053252Y2746698D1*
X9972868Y2794393D2*
X9976670Y2786700D1*
X9984364Y2779094D1*
X9991969Y2775204D1*
X10003465Y2771401D1*
X10022654D1*
X10034062Y2775203D1*
X10041756Y2779094D1*
X10049361Y2786700D1*
X10053252Y2794393D1*
Y2809692D1*
X10049361Y2817297D1*
X10041755Y2824990D1*
X10034062Y2828793D1*
X10022654Y2832595D1*
X10003465D1*
X9991969Y2828793D1*
X9984364Y2824990D1*
X9976670Y2817297D1*
X9972868Y2809692D1*
Y2794393D1*
Y2857298D2*
X10053252D1*
Y2891786D1*
X10049361Y2903282D1*
X10045558Y2907085D1*
X10037953Y2910887D1*
X10026457D1*
X10018763Y2907085D1*
X10014961Y2903282D1*
X10011158Y2891786D1*
X10007267Y2903282D1*
X10003465Y2907085D1*
X9995860Y2910887D1*
X9988166D1*
X9980561Y2907085D1*
X9976670Y2903282D1*
X9972868Y2891786D1*
Y2857298D1*
X10011158D2*
Y2891786D1*
X9972868Y2958582D2*
X9976670Y2950889D1*
X9984364Y2943284D1*
X9991969Y2939393D1*
X10003465Y2935590D1*
X10022654D1*
X10034062Y2939393D1*
X10041755Y2943284D1*
X10049361Y2950889D1*
X10053252Y2958582D1*
Y2973881D1*
X10049361Y2981486D1*
X10041755Y2989180D1*
X10034062Y2992982D1*
X10022654Y2996785D1*
X10003465D1*
X9991969Y2992982D1*
X9984364Y2989180D1*
X9976670Y2981486D1*
X9972868Y2973881D1*
Y2958582D1*
X9991969Y3078879D2*
X9984364Y3075077D1*
X9976670Y3067383D1*
X9972868Y3059778D1*
Y3044480D1*
X9976670Y3036786D1*
X9984364Y3029181D1*
X9991969Y3025290D1*
X10003465Y3021487D1*
X10022654D1*
X10034062Y3025290D1*
X10041755Y3029181D1*
X10049361Y3036786D1*
X10053252Y3044480D1*
Y3059778D1*
X10049361Y3067383D1*
X10041755Y3075077D1*
X10034062Y3078879D1*
X9972868Y3126574D2*
X9976670Y3118881D1*
X9984364Y3111276D1*
X9991969Y3107385D1*
X10003465Y3103582D1*
X10022654D1*
X10034062Y3107385D1*
X10041755Y3111276D1*
X10049361Y3118881D1*
X10053252Y3126574D1*
Y3141873D1*
X10049361Y3149478D1*
X10041755Y3157172D1*
X10034062Y3160974D1*
X10022654Y3164777D1*
X10003465D1*
X9991969Y3160974D1*
X9984364Y3157172D1*
X9976670Y3149478D1*
X9972868Y3141873D1*
Y3126574D1*
Y3243069D2*
X10053252D1*
X9972868Y3189479D1*
X10053252D1*
X9972956Y3286961D2*
X9995948Y3267772D1*
X9976758Y3290764D1*
X9972956Y3286961D1*
X9988255Y3315466D2*
X9984364Y3323160D1*
X9972956Y3334656D1*
X10053252D1*
Y3374657D2*
X9972956Y3412948D1*
Y3359359D1*
X10325738Y2771767D2*
D101*
X10426218D1*
Y2805260D1*
X10421354Y2819630D1*
X10411848Y2829247D1*
X10402231Y2834000D1*
X10387971Y2838753D1*
X10363984D1*
X10349614Y2834000D1*
X10340108Y2829247D1*
X10330491Y2819630D1*
X10325738Y2805260D1*
Y2771767D1*
X10373601Y2869632D2*
Y2912632D1*
X10368737Y2927002D1*
X10363984Y2931865D1*
X10354478Y2936619D1*
X10344861D1*
X10335355Y2931865D1*
X10330491Y2927002D1*
X10325738Y2912632D1*
Y2869632D1*
X10426218D1*
X10373601Y2903125D2*
X10426218Y2936619D1*
X10325738Y2967497D2*
X10426218D1*
X10340108Y3065362D2*
X10330491Y3055856D1*
X10325738Y3041486D1*
Y3022363D1*
X10330491Y3007992D1*
X10340108Y2998376D1*
X10349614D1*
X10359231Y3003239D1*
X10363984Y3007992D1*
X10368737Y3017499D1*
X10378354Y3046239D1*
X10383107Y3055856D1*
X10387971Y3060609D1*
X10397477Y3065362D1*
X10411848D1*
X10421354Y3055856D1*
X10426218Y3041486D1*
Y3022363D1*
X10421354Y3007992D1*
X10411848Y2998376D1*
X10325738Y3096241D2*
X10426218D1*
X10325738Y3163227D2*
X10426218D1*
X10373601Y3096241D2*
Y3163227D1*
X10325738Y3227599D2*
X10426218D1*
X10325738Y3194106D2*
Y3261093D1*
Y3291971D2*
X10426218D1*
X2049303Y1039455D2*
D103*
Y987789D1*
X2023503Y1013589D2*
X2075169D1*
X5143417Y5283731D2*
Y5232065D1*
X5117617Y5257864D2*
X5169283D1*
X5143417Y4608660D2*
Y4556994D1*
X5117617Y4582794D2*
X5169283D1*
X5149668Y2595948D2*
Y2544282D1*
X5123868Y2570082D2*
X5175534D1*
X6107760Y7363351D2*
Y7423639D1*
X6084812Y7363351D1*
X6061864Y7423639D1*
Y7363351D1*
X6163561Y7423639D2*
X6126287D1*
Y7363351D1*
X6163561D1*
X6126287Y7394921D2*
X6149235D1*
X6225132Y7409313D2*
X6222280Y7415017D1*
X6216510Y7420787D1*
X6210806Y7423639D1*
X6199332D1*
X6193562Y7420787D1*
X6187858Y7415017D1*
X6184940Y7409313D1*
X6182088Y7400691D1*
Y7386299D1*
X6184940Y7377743D1*
X6187858Y7371973D1*
X6193562Y7366269D1*
X6199332Y7363351D1*
X6210806D1*
X6216510Y7366269D1*
X6222280Y7371973D1*
X6225132Y7377743D1*
X6243659Y7423639D2*
Y7363351D1*
X6283851Y7423639D2*
Y7363351D1*
X6243659Y7394921D2*
X6283851D1*
X6348340Y7363351D2*
X6325326Y7423639D1*
X6302378Y7363351D1*
X6311000Y7383447D2*
X6339718D1*
X6407059Y7423639D2*
Y7363351D1*
X6366867Y7423639D1*
Y7363351D1*
X6425586Y7423639D2*
Y7363351D1*
X6484305Y7415017D2*
X6478602Y7420787D1*
X6469980Y7423639D1*
X6458506D1*
X6449884Y7420787D1*
X6444113Y7415017D1*
Y7409313D1*
X6447032Y7403543D1*
X6449884Y7400691D1*
X6455587Y7397839D1*
X6472831Y7392069D1*
X6478602Y7389217D1*
X6481453Y7386299D1*
X6484305Y7380595D1*
Y7371973D1*
X6478602Y7366269D1*
X6469980Y7363351D1*
X6458506D1*
X6449884Y7366269D1*
X6444113Y7371973D1*
X6548728Y7363351D2*
Y7423639D1*
X6525780Y7363351D1*
X6502832Y7423639D1*
Y7363351D1*
X6668620Y7409313D2*
X6665769Y7415017D1*
X6659998Y7420787D1*
X6654295Y7423639D1*
X6642821D1*
X6637051Y7420787D1*
X6631347Y7415017D1*
X6628428Y7409313D1*
X6625577Y7400691D1*
Y7386299D1*
X6628428Y7377743D1*
X6631347Y7371973D1*
X6637051Y7366269D1*
X6642821Y7363351D1*
X6654295D1*
X6659998Y7366269D1*
X6665769Y7371973D1*
X6668620Y7377743D1*
X6704392Y7423639D2*
X6698622Y7420787D1*
X6692918Y7415017D1*
X6689999Y7409313D1*
X6687148Y7400691D1*
Y7386299D1*
X6689999Y7377743D1*
X6692918Y7371973D1*
X6698622Y7366269D1*
X6704392Y7363351D1*
X6715866D1*
X6721569Y7366269D1*
X6727340Y7371973D1*
X6730191Y7377743D1*
X6733043Y7386299D1*
Y7400691D1*
X6730191Y7409313D1*
X6727340Y7415017D1*
X6721569Y7420787D1*
X6715866Y7423639D1*
X6704392D1*
X6791762D2*
Y7363351D1*
X6751570Y7423639D1*
Y7363351D1*
X6830386Y7423639D2*
Y7363351D1*
X6810290Y7423639D2*
X6850482D1*
X6869009Y7394921D2*
X6894809D1*
X6903431Y7397839D1*
X6906349Y7400691D1*
X6909201Y7406395D1*
Y7412165D1*
X6906349Y7417869D1*
X6903431Y7420787D1*
X6894809Y7423639D1*
X6869009D1*
Y7363351D1*
X6889105Y7394921D2*
X6909201Y7363351D1*
X6944972Y7423639D2*
X6939202Y7420787D1*
X6933498Y7415017D1*
X6930580Y7409313D1*
X6927728Y7400691D1*
Y7386299D1*
X6930580Y7377743D1*
X6933498Y7371973D1*
X6939202Y7366269D1*
X6944972Y7363351D1*
X6956446D1*
X6962150Y7366269D1*
X6967920Y7371973D1*
X6970772Y7377743D1*
X6973624Y7386299D1*
Y7400691D1*
X6970772Y7409313D1*
X6967920Y7415017D1*
X6962150Y7420787D1*
X6956446Y7423639D1*
X6944972D1*
X6992151D2*
Y7363351D1*
X7026573D1*
X7103421Y7423639D2*
Y7363351D1*
X7129287D1*
X7137909Y7366269D1*
X7140761Y7369121D1*
X7143613Y7374825D1*
Y7383447D1*
X7140761Y7389217D1*
X7137909Y7392069D1*
X7129287Y7394921D1*
X7137909Y7397839D1*
X7140761Y7400691D1*
X7143613Y7406395D1*
Y7412165D1*
X7140761Y7417869D1*
X7137909Y7420787D1*
X7129287Y7423639D1*
X7103421D1*
Y7394921D2*
X7129287D1*
X7179384Y7423639D2*
X7173614Y7420787D1*
X7167910Y7415017D1*
X7164992Y7409313D1*
X7162140Y7400691D1*
Y7386299D1*
X7164992Y7377743D1*
X7167910Y7371973D1*
X7173614Y7366269D1*
X7179384Y7363351D1*
X7190858D1*
X7196562Y7366269D1*
X7202332Y7371973D1*
X7205184Y7377743D1*
X7208036Y7386299D1*
Y7400691D1*
X7205184Y7409313D1*
X7202332Y7415017D1*
X7196562Y7420787D1*
X7190858Y7423639D1*
X7179384D1*
X7272525Y7363351D2*
X7249511Y7423639D1*
X7226563Y7363351D1*
X7235185Y7383447D2*
X7263903D1*
X7291052Y7394921D2*
X7316852D1*
X7325474Y7397839D1*
X7328392Y7400691D1*
X7331244Y7406395D1*
Y7412165D1*
X7328392Y7417869D1*
X7325474Y7420787D1*
X7316852Y7423639D1*
X7291052D1*
Y7363351D1*
X7311148Y7394921D2*
X7331244Y7363351D1*
X7349771Y7423639D2*
Y7363351D1*
X7369867D1*
X7378489Y7366269D1*
X7384259Y7371973D1*
X7387111Y7377743D1*
X7389963Y7386299D1*
Y7400691D1*
X7387111Y7409313D1*
X7384259Y7415017D1*
X7378489Y7420787D1*
X7369867Y7423639D1*
X7349771D1*
X2235961Y6952766D2*
Y6892478D1*
X2270383D1*
X2306154Y6952766D2*
X2300384Y6949914D1*
X2294680Y6944144D1*
X2291762Y6938441D1*
X2288910Y6929818D1*
Y6915426D1*
X2291762Y6906871D1*
X2294680Y6901100D1*
X2300384Y6895397D1*
X2306154Y6892478D1*
X2317628D1*
X2323332Y6895397D1*
X2329102Y6901100D1*
X2331954Y6906871D1*
X2334806Y6915426D1*
Y6929818D1*
X2331954Y6938441D1*
X2329102Y6944144D1*
X2323332Y6949914D1*
X2317628Y6952766D1*
X2306154D1*
X2353333D2*
X2367725Y6892478D1*
X2382051Y6952766D1*
X2396377Y6892478D1*
X2410769Y6952766D1*
X2466570D2*
X2429296D1*
Y6892478D1*
X2466570D1*
X2429296Y6924048D2*
X2452244D1*
X2485097D2*
X2510897D1*
X2519519Y6926967D1*
X2522437Y6929818D1*
X2525289Y6935522D1*
Y6941292D1*
X2522437Y6946996D1*
X2519519Y6949914D1*
X2510897Y6952766D1*
X2485097D1*
Y6892478D1*
X2505193Y6924048D2*
X2525289Y6892478D1*
X2656655Y6932670D2*
X2653737D1*
X2650885Y6929752D1*
X2648033Y6924048D1*
X2642263Y6909722D1*
X2636559Y6901100D1*
X2630855Y6895330D1*
X2625085Y6892478D1*
X2613611D1*
X2607908Y6895330D1*
X2604989Y6898249D1*
X2602137Y6903952D1*
Y6909722D1*
X2604989Y6915426D1*
X2607908Y6918278D1*
X2627937Y6929752D1*
X2630855Y6932670D1*
X2633707Y6938374D1*
Y6944144D1*
X2630855Y6949848D1*
X2625085Y6952700D1*
X2619381Y6949848D1*
X2616463Y6944144D1*
Y6938374D1*
X2619381Y6929752D1*
X2625085Y6921196D1*
X2639411Y6901100D1*
X2645181Y6895330D1*
X2650885Y6892478D1*
X2656655D1*
X2733503Y6952766D2*
Y6909722D1*
X2736355Y6901100D1*
X2742126Y6895397D1*
X2750748Y6892478D1*
X2756451D1*
X2765073Y6895397D1*
X2770844Y6901100D1*
X2773696Y6909722D1*
Y6952766D1*
X2792223Y6921196D2*
X2818089D1*
X2826644Y6924048D1*
X2829563Y6926967D1*
X2832415Y6932670D1*
Y6941292D1*
X2829563Y6946996D1*
X2826644Y6949914D1*
X2818089Y6952766D1*
X2792223D1*
Y6892478D1*
X2850942Y6921196D2*
X2876808D1*
X2885364Y6924048D1*
X2888282Y6926967D1*
X2891134Y6932670D1*
Y6941292D1*
X2888282Y6946996D1*
X2885364Y6949914D1*
X2876808Y6952766D1*
X2850942D1*
Y6892478D1*
X2946935Y6952766D2*
X2909661D1*
Y6892478D1*
X2946935D1*
X2909661Y6924048D2*
X2932609D1*
X2965462D2*
X2991261D1*
X2999884Y6926967D1*
X3002802Y6929818D1*
X3005654Y6935522D1*
Y6941292D1*
X3002802Y6946996D1*
X2999884Y6949914D1*
X2991261Y6952766D1*
X2965462D1*
Y6892478D1*
X2985558Y6924048D2*
X3005654Y6892478D1*
X3125546Y6938441D2*
X3122694Y6944144D1*
X3116924Y6949914D1*
X3111220Y6952766D1*
X3099746D1*
X3093976Y6949914D1*
X3088272Y6944144D1*
X3085354Y6938441D1*
X3082502Y6929818D1*
Y6915426D1*
X3085354Y6906871D1*
X3088272Y6901100D1*
X3093976Y6895397D1*
X3099746Y6892478D1*
X3111220D1*
X3116924Y6895397D1*
X3122694Y6901100D1*
X3125546Y6906871D1*
X3161317Y6952766D2*
X3155547Y6949914D1*
X3149843Y6944144D1*
X3146925Y6938441D1*
X3144073Y6929818D1*
Y6915426D1*
X3146925Y6906871D1*
X3149843Y6901100D1*
X3155547Y6895397D1*
X3161317Y6892478D1*
X3172791D1*
X3178495Y6895397D1*
X3184265Y6901100D1*
X3187117Y6906871D1*
X3189969Y6915426D1*
Y6929818D1*
X3187117Y6938441D1*
X3184265Y6944144D1*
X3178495Y6949914D1*
X3172791Y6952766D1*
X3161317D1*
X3248688D2*
Y6892478D1*
X3208496Y6952766D1*
Y6892478D1*
X3287311Y6952766D2*
Y6892478D1*
X3267215Y6952766D2*
X3307407D1*
X3325934Y6924048D2*
X3351734D1*
X3360356Y6926967D1*
X3363274Y6929818D1*
X3366126Y6935522D1*
Y6941292D1*
X3363274Y6946996D1*
X3360356Y6949914D1*
X3351734Y6952766D1*
X3325934D1*
Y6892478D1*
X3346030Y6924048D2*
X3366126Y6892478D1*
X3401897Y6952766D2*
X3396127Y6949914D1*
X3390423Y6944144D1*
X3387505Y6938441D1*
X3384653Y6929818D1*
Y6915426D1*
X3387505Y6906871D1*
X3390423Y6901100D1*
X3396127Y6895397D1*
X3401897Y6892478D1*
X3413371D1*
X3419075Y6895397D1*
X3424845Y6901100D1*
X3427697Y6906871D1*
X3430549Y6915426D1*
Y6929818D1*
X3427697Y6938441D1*
X3424845Y6944144D1*
X3419075Y6949914D1*
X3413371Y6952766D1*
X3401897D1*
X3449076D2*
Y6892478D1*
X3483498D1*
X3560346Y6952766D2*
Y6892478D1*
X3586212D1*
X3594834Y6895397D1*
X3597686Y6898249D1*
X3600538Y6903952D1*
Y6912574D1*
X3597686Y6918345D1*
X3594834Y6921196D1*
X3586212Y6924048D1*
X3594834Y6926967D1*
X3597686Y6929818D1*
X3600538Y6935522D1*
Y6941292D1*
X3597686Y6946996D1*
X3594834Y6949914D1*
X3586212Y6952766D1*
X3560346D1*
Y6924048D2*
X3586212D1*
X3636309Y6952766D2*
X3630539Y6949914D1*
X3624835Y6944144D1*
X3621917Y6938441D1*
X3619065Y6929818D1*
Y6915426D1*
X3621917Y6906871D1*
X3624835Y6901100D1*
X3630539Y6895397D1*
X3636309Y6892478D1*
X3647783D1*
X3653487Y6895397D1*
X3659257Y6901100D1*
X3662109Y6906871D1*
X3664961Y6915426D1*
Y6929818D1*
X3662109Y6938441D1*
X3659257Y6944144D1*
X3653487Y6949914D1*
X3647783Y6952766D1*
X3636309D1*
X3729450Y6892478D2*
X3706436Y6952766D1*
X3683488Y6892478D1*
X3692110Y6912574D2*
X3720828D1*
X3747977Y6924048D2*
X3773777D1*
X3782399Y6926967D1*
X3785318Y6929818D1*
X3788169Y6935522D1*
Y6941292D1*
X3785318Y6946996D1*
X3782399Y6949914D1*
X3773777Y6952766D1*
X3747977D1*
Y6892478D1*
X3768073Y6924048D2*
X3788169Y6892478D1*
X3806697Y6952766D2*
Y6892478D1*
X3826793D1*
X3835415Y6895397D1*
X3841185Y6901100D1*
X3844037Y6906871D1*
X3846889Y6915426D1*
Y6929818D1*
X3844037Y6938441D1*
X3841185Y6944144D1*
X3835415Y6949914D1*
X3826793Y6952766D1*
X3806697D1*
X923323Y7386597D2*
X949123D1*
X957745Y7389515D1*
X960663Y7392367D1*
X963515Y7398071D1*
Y7403841D1*
X960663Y7409545D1*
X957745Y7412463D1*
X949123Y7415315D1*
X923323D1*
Y7355027D1*
X943419Y7386597D2*
X963515Y7355027D1*
X999287Y7415315D2*
X993516Y7412463D1*
X987813Y7406693D1*
X984894Y7400989D1*
X982042Y7392367D1*
Y7377975D1*
X984894Y7369419D1*
X987813Y7363649D1*
X993516Y7357945D1*
X999287Y7355027D1*
X1010761D1*
X1016464Y7357945D1*
X1022234Y7363649D1*
X1025086Y7369419D1*
X1027938Y7377975D1*
Y7392367D1*
X1025086Y7400989D1*
X1022234Y7406693D1*
X1016464Y7412463D1*
X1010761Y7415315D1*
X999287D1*
X1046465D2*
Y7355027D1*
X1072332D1*
X1080954Y7357945D1*
X1083805Y7360797D1*
X1086657Y7366501D1*
Y7375123D1*
X1083805Y7380893D1*
X1080954Y7383745D1*
X1072332Y7386597D1*
X1080954Y7389515D1*
X1083805Y7392367D1*
X1086657Y7398071D1*
Y7403841D1*
X1083805Y7409545D1*
X1080954Y7412463D1*
X1072332Y7415315D1*
X1046465D1*
Y7386597D2*
X1072332D1*
X1122429Y7415315D2*
X1116658Y7412463D1*
X1110955Y7406693D1*
X1108036Y7400989D1*
X1105184Y7392367D1*
Y7377975D1*
X1108036Y7369419D1*
X1110955Y7363649D1*
X1116658Y7357945D1*
X1122429Y7355027D1*
X1133903D1*
X1139606Y7357945D1*
X1145376Y7363649D1*
X1148228Y7369419D1*
X1151080Y7377975D1*
Y7392367D1*
X1148228Y7400989D1*
X1145376Y7406693D1*
X1139606Y7412463D1*
X1133903Y7415315D1*
X1122429D1*
X1212651Y7400989D2*
X1209799Y7406693D1*
X1204029Y7412463D1*
X1198325Y7415315D1*
X1186852D1*
X1181081Y7412463D1*
X1175378Y7406693D1*
X1172459Y7400989D1*
X1169607Y7392367D1*
Y7377975D1*
X1172459Y7369419D1*
X1175378Y7363649D1*
X1181081Y7357945D1*
X1186852Y7355027D1*
X1198325D1*
X1204029Y7357945D1*
X1209799Y7363649D1*
X1212651Y7369419D1*
X1248423Y7415315D2*
X1242652Y7412463D1*
X1236949Y7406693D1*
X1234030Y7400989D1*
X1231178Y7392367D1*
Y7377975D1*
X1234030Y7369419D1*
X1236949Y7363649D1*
X1242652Y7357945D1*
X1248423Y7355027D1*
X1259896D1*
X1265600Y7357945D1*
X1271370Y7363649D1*
X1274222Y7369419D1*
X1277074Y7377975D1*
Y7392367D1*
X1274222Y7400989D1*
X1271370Y7406693D1*
X1265600Y7412463D1*
X1259896Y7415315D1*
X1248423D1*
X1335793D2*
Y7355027D1*
X1295601Y7415315D1*
Y7355027D1*
X1412642Y7403775D2*
X1418412Y7406693D1*
X1427034Y7415249D1*
Y7355027D1*
X1457035D2*
X1485753Y7415249D1*
X1445561D1*
X923323Y7265299D2*
Y7205011D1*
X943419D1*
X952041Y7207929D1*
X957812Y7213633D1*
X960663Y7219403D1*
X963515Y7227959D1*
Y7242351D1*
X960663Y7250973D1*
X957812Y7256677D1*
X952041Y7262447D1*
X943419Y7265299D1*
X923323D1*
X982042Y7236581D2*
X1007842D1*
X1016464Y7239499D1*
X1019383Y7242351D1*
X1022234Y7248055D1*
Y7253825D1*
X1019383Y7259529D1*
X1016464Y7262447D1*
X1007842Y7265299D1*
X982042D1*
Y7205011D1*
X1002138Y7236581D2*
X1022234Y7205011D1*
X1040762Y7265299D2*
Y7205011D1*
X1099481Y7256677D2*
X1093777Y7262447D1*
X1085155Y7265299D1*
X1073681D1*
X1065059Y7262447D1*
X1059289Y7256677D1*
Y7250973D1*
X1062207Y7245203D1*
X1065059Y7242351D1*
X1070763Y7239499D1*
X1088007Y7233729D1*
X1093777Y7230877D1*
X1096629Y7227959D1*
X1099481Y7222255D1*
Y7213633D1*
X1093777Y7207929D1*
X1085155Y7205011D1*
X1073681D1*
X1065059Y7207929D1*
X1059289Y7213633D1*
X1118008Y7265299D2*
Y7205011D1*
X1158200Y7265299D2*
Y7205011D1*
X1118008Y7236581D2*
X1158200D1*
X1196823Y7265299D2*
Y7205011D1*
X1176727Y7265299D2*
X1216919D1*
X1235446D2*
Y7205011D1*
X6386898Y7044884D2*
X6412698D1*
X6421320Y7047803D1*
X6424238Y7050654D1*
X6427090Y7056358D1*
Y7062128D1*
X6424238Y7067832D1*
X6421320Y7070750D1*
X6412698Y7073602D1*
X6386898D1*
Y7013314D1*
X6406994Y7044884D2*
X6427090Y7013314D1*
X6462861Y7073602D2*
X6457091Y7070750D1*
X6451387Y7064980D1*
X6448469Y7059276D1*
X6445617Y7050654D1*
Y7036262D1*
X6448469Y7027707D1*
X6451387Y7021936D1*
X6457091Y7016233D1*
X6462861Y7013314D1*
X6474335D1*
X6480039Y7016233D1*
X6485809Y7021936D1*
X6488661Y7027707D1*
X6491513Y7036262D1*
Y7050654D1*
X6488661Y7059276D1*
X6485809Y7064980D1*
X6480039Y7070750D1*
X6474335Y7073602D1*
X6462861D1*
X6510040D2*
Y7013314D1*
X6535906D1*
X6544528Y7016233D1*
X6547380Y7019084D1*
X6550232Y7024788D1*
Y7033410D1*
X6547380Y7039180D1*
X6544528Y7042032D1*
X6535906Y7044884D1*
X6544528Y7047803D1*
X6547380Y7050654D1*
X6550232Y7056358D1*
Y7062128D1*
X6547380Y7067832D1*
X6544528Y7070750D1*
X6535906Y7073602D1*
X6510040D1*
Y7044884D2*
X6535906D1*
X6586003Y7073602D2*
X6580233Y7070750D1*
X6574529Y7064980D1*
X6571611Y7059276D1*
X6568759Y7050654D1*
Y7036262D1*
X6571611Y7027707D1*
X6574529Y7021936D1*
X6580233Y7016233D1*
X6586003Y7013314D1*
X6597477D1*
X6603181Y7016233D1*
X6608951Y7021936D1*
X6611803Y7027707D1*
X6614655Y7036262D1*
Y7050654D1*
X6611803Y7059276D1*
X6608951Y7064980D1*
X6603181Y7070750D1*
X6597477Y7073602D1*
X6586003D1*
X6676226Y7059276D2*
X6673374Y7064980D1*
X6667604Y7070750D1*
X6661900Y7073602D1*
X6650426D1*
X6644656Y7070750D1*
X6638952Y7064980D1*
X6636034Y7059276D1*
X6633182Y7050654D1*
Y7036262D1*
X6636034Y7027707D1*
X6638952Y7021936D1*
X6644656Y7016233D1*
X6650426Y7013314D1*
X6661900D1*
X6667604Y7016233D1*
X6673374Y7021936D1*
X6676226Y7027707D1*
X6711997Y7073602D2*
X6706227Y7070750D1*
X6700523Y7064980D1*
X6697605Y7059276D1*
X6694753Y7050654D1*
Y7036262D1*
X6697605Y7027707D1*
X6700523Y7021936D1*
X6706227Y7016233D1*
X6711997Y7013314D1*
X6723471D1*
X6729175Y7016233D1*
X6734945Y7021936D1*
X6737797Y7027707D1*
X6740649Y7036262D1*
Y7050654D1*
X6737797Y7059276D1*
X6734945Y7064980D1*
X6729175Y7070750D1*
X6723471Y7073602D1*
X6711997D1*
X6799368D2*
Y7013314D1*
X6759176Y7073602D1*
Y7013314D1*
X6876216Y7062062D2*
X6881987Y7064980D1*
X6890609Y7073536D1*
Y7013314D1*
X6920610D2*
X6949328Y7073536D1*
X6909136D1*
X6386898Y6923587D2*
Y6863299D1*
X6406994D1*
X6415616Y6866217D1*
X6421386Y6871921D1*
X6424238Y6877691D1*
X6427090Y6886246D1*
Y6900639D1*
X6424238Y6909261D1*
X6421386Y6914965D1*
X6415616Y6920735D1*
X6406994Y6923587D1*
X6386898D1*
X6445617Y6894869D2*
X6471417D1*
X6480039Y6897787D1*
X6482957Y6900639D1*
X6485809Y6906342D1*
Y6912113D1*
X6482957Y6917816D1*
X6480039Y6920735D1*
X6471417Y6923587D1*
X6445617D1*
Y6863299D1*
X6465713Y6894869D2*
X6485809Y6863299D1*
X6504336Y6923587D2*
Y6863299D1*
X6563055Y6914965D2*
X6557352Y6920735D1*
X6548730Y6923587D1*
X6537256D1*
X6528634Y6920735D1*
X6522863Y6914965D1*
Y6909261D1*
X6525782Y6903491D1*
X6528634Y6900639D1*
X6534337Y6897787D1*
X6551582Y6892017D1*
X6557352Y6889165D1*
X6560204Y6886246D1*
X6563055Y6880543D1*
Y6871921D1*
X6557352Y6866217D1*
X6548730Y6863299D1*
X6537256D1*
X6528634Y6866217D1*
X6522863Y6871921D1*
X6581583Y6923587D2*
Y6863299D1*
X6621775Y6923587D2*
Y6863299D1*
X6581583Y6894869D2*
X6621775D1*
X6660398Y6923587D2*
Y6863299D1*
X6640302Y6923587D2*
X6680494D1*
X6699021D2*
Y6863299D1*
X5875142Y6175414D2*
Y6123748D1*
X5849342Y6149548D2*
X5901008D1*
M02*
